<mxfile host="app.diagrams.net" modified="2023-12-20T21:15:22.693Z" agent="Mozilla/5.0 (Windows NT 10.0; Win64; x64) AppleWebKit/537.36 (KHTML, like Gecko) Chrome/120.0.0.0 Safari/537.36" etag="3NseLyBb1od_fVCf6zmK" version="22.1.11" type="device">
  <diagram name="Provar Systems" id="Cbt3V6y36ORxRw6up7Z1">
    <mxGraphModel dx="1675" dy="1561" grid="1" gridSize="10" guides="1" tooltips="1" connect="1" arrows="1" fold="1" page="1" pageScale="1" pageWidth="1600" pageHeight="1200" background="#ffffff" math="0" shadow="0">
      <root>
        <mxCell id="0" />
        <mxCell id="1" parent="0" />
        <mxCell id="xoEMEb9Q6lRqkHzQhWVF-44" value="" style="rounded=0;whiteSpace=wrap;html=1;fillColor=none;strokeColor=default;dashed=1;movable=1;resizable=1;rotatable=1;deletable=1;editable=1;locked=0;connectable=1;" vertex="1" parent="1">
          <mxGeometry x="480.83000000000004" y="120" width="200" height="78" as="geometry" />
        </mxCell>
        <mxCell id="xoEMEb9Q6lRqkHzQhWVF-25" value="" style="rounded=0;whiteSpace=wrap;html=1;" vertex="1" parent="1">
          <mxGeometry x="120" y="620" width="80" height="120" as="geometry" />
        </mxCell>
        <mxCell id="uI3OphNUKf_lqw-jZ9q1-8" value="" style="rounded=0;whiteSpace=wrap;html=1;fillColor=none;strokeColor=default;dashed=1;movable=1;resizable=1;rotatable=1;deletable=1;editable=1;locked=0;connectable=1;" parent="1" vertex="1">
          <mxGeometry x="480" y="441" width="400" height="479" as="geometry" />
        </mxCell>
        <mxCell id="uI3OphNUKf_lqw-jZ9q1-1" value="User A" style="shape=umlActor;verticalLabelPosition=bottom;verticalAlign=top;html=1;outlineConnect=0;" parent="1" vertex="1">
          <mxGeometry x="140" y="630" width="40" height="80" as="geometry" />
        </mxCell>
        <mxCell id="uI3OphNUKf_lqw-jZ9q1-16" value="" style="shape=image;verticalLabelPosition=bottom;labelBackgroundColor=default;verticalAlign=top;aspect=fixed;imageAspect=0;image=data:image/png,iVBORw0KGgoAAAANSUhEUgAAB4AAAATbCAMAAABP3VhdAAAABGdBTUEAALGPC/xhBQAAAAFzUkdCAK7OHOkAAAMAUExURUxpcV5iZupDNXp/hl9jaEKF9F5iZ19jaF5iZ2t+hoGHjnuAhmZrcGJma4qQlV5iZ5mfpWJnbIWLkl5iZ2ZrcF5iaF5iZ+lCNDSoU36DiuOsYF5iZ4KHjn6DinuAh19jaIeNlIGHjl5iZ19jaGZqb4SKkWNnbICFjEGE82Zqb1q3/2JnbGVpb15iZ2Vpb2Vpb2dscV5iZ1Sr//q7BDOnUkSK92BlakLYakjqc0aP+DauVmRobWJnbP/PIje0WVm1/2RobWVpb0KF9WNnbf9eSulCNPu7BGJnbOtDNGhscv3EBUGE9GZqcGdrcf/6BkGE9GJnbGRobWZqcGVqb2hscv9aR15iZ2BkaV/B/+lCNGJmbGZqb/y9BP/6Bl5iZ0GF9fu8BGhscmdrcV9jaF9jaGNobVav/2dscWZqb2luc0aN+WhscUGE80KF9f9aR1iz/2ZqcGBkaWtwdmJma2htcmhscetDNfu8BWVqb/9bR2Zqb//5Bl9jaGVqb+tDNV1hZmVqb2twdWJma/y8BGdscWhtcmltc2hscvNJO/3LBUeP+mVpb0eQ+UaN+EeR+vVJOkeP+jOoU0SK90eP+f/7Bvy8BGtwdv3IBUWN+P/1BfJHOPNIOPvNBvJHOPFIN/7OBWJma2VpbkWM+F9jaPRKOkaO+f3HBf7PBUWM+GVpb/7OBfNIOP3IBfVJOu9FNmJma/3JBUOH9fJHOETfbv3JBf3JBf7OBUSK9/FGN0WL9/RIOTWsVf3FBf3KBWxwdkOI9vNHOPBFN/VJOvu8BfNHOfy8BP7NBTe1Wf3DBfdLOzavVv3LBUG3VjawV0iT+zezWDm5W0aP+TavVvBFN/VJOl9jaD6NzN1HQl1hZkOY2H1tr0GT0z6Ny/+GNqaocYNnafmGI2R1cF9jaEKF9Pu8BepDNTSoU15iZ0GE8/u8Bfu7Bfq7BOpBNDOnUTCnVDSmWT+NzMW2GkKpTetKMXxtruxBMkGF9d9HQPu9BPefD/ODG+9kJ/muCvBzIfaUFD+OzPwRGJsAAADldFJOUwD6/g/9/vT+/gEQCsLuBPACewr8he7z/v4VAfYHEg3sBgz56UYPPRj8IRC4Hd3tJDjYDvz7uMYOEO64jKgE7ghao+2bB/b2lPAsIPUygAjxeEyUzUcQ59IE+7nb7BDk5/FEcuD1ahZUsT8fKfncFQu8v2qyL2Lpv+QMJw3MZN/9wEzg3TucZHclnigaSJ1iQDbt04QU51slPRjthGZ3ljvR1ZHjHVh2Rq3ZLaSQMtTUrsLCCOrWV3uza1rXuIGkytzOTcZlzkxExWqiwR58b2EwwYq5cfj+/vTu2bj7EhBdOS////1gQp/vAAAgAElEQVR42uzVqw3DMBRA0YxgnF3CvELXCPcU4XlSNwgJDKw6WH5SC6oEVCmpziG2/CGP3KoCAAAAAAAAAAAAAAAAAAAAAAAAAAAAAAAAAAAAAAAAAAAAAAAAAAAAAAAAAAAAAAAAAAAAAAAAAAAAAAAAAAAAAAAAAAAAAAAAAAAAAAAAAAAAAAAAAAAAAAAAAAAAAAAAAAAAAAAAAAAAAAAAAAAAAAAAAAAAAAAAAAAAAAAAAAAAAAAAAAAAAAAAAAAAAAAAAAAAAAAAAAAAAAAAAAAAAAAAAAAAAAAAAAAAAAAAAAAAAAAAAAAAAAAAAAAAAAAAAAAAAAAAAAAAAAAAAAAAAAAAAAAAAAAAAAAAAAAAAAAAAAAAAAAAAAAAAAAAAAAAAAAAAAAAAAAAAAAAAAAAAAAAAAAAAAAAAAAAAAAAAAAAAAAAAAAAAAAAAAAAAAAAAAAAAAAAAAAAAAAAAAAAAAAAAAAAAAAAAAAAAAAAAAAAAAAAAAAAAAAAAAAAAAAAAAAAAAAAAAAAAAAAAAAAAAAAAAAAAAAAAAAAAAAAAAAAAAAAAAAAAAAAAAAAAAAAAAAAAAAAAAAAAAAAAAAAAAAAAAAAAAAAAAAAAAAAAAAAAAAAAAAAAAAAAAAAAAAAAAAAAAAAAAAAAAAAAAAAAAAAAAAAAAAAAAAAAAAAAAAAAAAAAAAAAAAAAAAAAAAAAAAAAAAAAAAAAAAAAPgn9SGzAYAfZPfqlwDASU9f25RLKbdDy2Vu0vuj4QHAV+3d19Rs2W2HboqIcdF/WE/vEc9H124pzkmGmdm7e9fG0TyA40HgIl06gf6C3JYLW5qBQQJBiqkM6yrdFMeNphOoUS2WnXiZ62KsYvFVxoZzc8HN2sZNmm0SWNjWCFxMd7t77el5JDt2Ji9+0Zul76cKSdiN1obv/h49jwwA2LO9dd0R4Z22/eHg+to0TcMwmiH1K+K74Q/DX7m+ngx77ZEI8UOG+S8KAMBr8V2115rO2sPxteiujG4gKYHyhPDbkoyxKPH1eOjfywyfEWEAALaIr2xvpzcR6RXhVeLoqg+5fWT1A3UZYxHisMPX45t2qxvOwkQYAIAX6qs7Vn/mh+01RHsV2Vb1yeg+Zz3EMsOmPenNPCIMAMDTZHx7Y9uM2rvq6F6WGQ7HYRFhc3xz71lRhGkwAABro+/IH5umsdbe4GBxhsUsbBjmuDfrNnSNBgMAIHMYjr6dm2sR3+Tau1Fh+Y8MI2zak/u+5dBgAAAFdqxWe2LLZefk4/tVhJvhIOzHDQYAoKr11a2WPxY3feNEBimK/w1iEKbBAIAK0xv9Tjj7yoVn9eEsb7oRlnN23GCxJ4sMAwCqNfw63duhHc2+KY++zzTYntx3nTqvBACgSsOv1erZZvb1XWuwuB9s96aWzqsBAKjO8DsxjZzqu9FgwxyEY7DGSjQAoOTtPTmpN/q+azTVHOu71mCxFO33G4zBAIBy51e3pjd2vsPvQ4GDeAy272asRAMASky3bidmAYbfx1uymuZg1nV4fQAApZx/w/yO4/wGhbEcg0233WUKBgCULb7h9Ou1x6Ya5bdAAZYRjlaiSTAAoIz5dQ21YNPvZoNXCWZHNACgJHTrdhDtvAoKaz3BAACUwJm491uknVcvJ/ieHdEAgDKwphNx71ctdn0fEmwOZhar0ACA46Y5/WG08zk4CvLhHObdtMGtYADAEdM93z6i/AryXLDt9zkWDAA42vHXunXF3qtjWH3eSHCgGG6bdWgAwHFyWkOzuAePXt2NNRDr0AAAHJl6tPpcvMdubPt0LNXueTpTMADguFgjefJXDY6UvBXs3lu8kgCAoxp/b45z9Xkzwap51+dQMADgiMZf90hXnx+vQzMEAwCObvwNjh5DMADgeDRKMP6uP5eDIRgAcATOPN8ux/i7NgT3PHZDAwAKzWlNjLKMv+tDcIsHYwEACszqlGr8fRiCbb/LqwsAKChN7r4q0/i72g6tGkP2YgEAClnfE701aKrHffb3uQSLIdgdsQwNACgg69aVy8/lC3BcYLvNbmgAQOF0eyVcft7Yi6Wadx6vMwCgWDy5+zkoMbEbesCNYABAkegtV1XLufz89Y1gzgQDAApBO2mU9/bv42Vom8diAQCKwmrbpdz9/PSN4B4nggEAhZh/l9uvqkCeCGYrFgCgAMq//WrzRnDQHHpnvOwAgNz721TLf/t3VeAvivLnb7//9D0vPAAgT2etSmy/WvkSBH/+74/zDz++4bUHAOSnLvqrVqW+q/7+tbi8+sirDwDIi17J/i7+WtRkgU95BwAA8uDcVrS/cwoMAMizv3ZF+1uLCvwN7wEAQF79rcz2q7X+zqMCv/30nncBAID+ZtffuMDvKDAAgP5m2d9VgVmFBgDQ3wz7u1yF/vVb3gsAAPqbXX+jAtc4DwwAyFB9Sn/ny73QFBgAkBH5/MnK95cCAwCypdHfjQL/i09mAABk0d++W5mPH3y5v3GBP/DZSACADHiTZjWffzV/vsBnvC0AAOmOvydd+rspLPDnH3hnAADSZfUMVaG/60Pwonb+77/zzgAApKnRNqt0A3iL/ooCzy94KCUAIE169AAO+rtZ4Nri3c88lBIAkJqKHUDasr/yNvDbqze8PwAAKfHo73NboWuXbIUGAKTV3wn9feEwEluhAQCpsHpGUJ0d0Dv0Nyrw+S9sxAIApEC/NSt0AGmn/kYbsS74dGAAQPLiDVj0l41YAIAseYMK3QDevb+iwDWeCg0ASJp10wzo78u3gec8EQsAkDCnY7L/6rUEiydicRsYAJAgrVWhJ2Dt2V+5EYvbwACAJFXpBvDe/Z1Hp4FPebsAABLSECeA6e92t4E5DQwASIg+sot0A1j5SjH6G38swz8/8o4BACTCK8YJ4OeCK76jJhTiw/orF6EvOYsEAEhEI/cTSKvwhn+EGmoKhiC+EN8JfydYdjjH/s45iwQASIo+yvUE0qq9oruGadqmPbgL9TohX3w1CL9lmmGMVXVV4bz6K24DX/z8Le8aAMDB8luAVpb1DdtrmLYdRnfU6luNiCPEX3utURhj2zaXFd4rwof3N7oNfPkji9AAgEPltwAdTb6qGrbXvelMPRFdva49+VfWdRFjr9XpDWSF40k4+/7K28Cf2QkNADhQPgvQYsVZ1rdp2AN/5In0Lv8iTXvU4LVv1EWFp+2hbYpJeLcGJ9Tf2ry2uGAnNADgQLksQMezbzj69mbeqr3aK39q3GFNdxreqOeahmjw1glOqL/shAYAJMHxs34ER3TjV9TX9afdhq5t0971DMcRtqa+aHCwZYOT66/YCf2P71iEBgAcoD7N/BEc0aYrw+6NrIdl533EDW5uNQYn2V+xCP3uV54JDQDYnzURO7CyzW+gGPbktntYfaNJWHe6s6EdjcGZ9Td+JjSHgQEA+w+R4kMIM1yAjtaebb9l6Sc7rTu/0OBG33eju8GZ9VcuQn/iMDAAYF/Z7sCK8ut2PKee5EWcOd3OwHwpwYn3l8PAAIBDOPJDkLLbeiXz2xXbrrREr0PTrZlMsKpk01/2YQEADulWK7sdWBv5TUGU4CB+nnTq/a2FI/DbK/ZhAQD2YQ0z24G1ym9a/y8hE+yK7VhqBv2VI/DiM/uwAAB7qMtnYClZrD6ritq0/bSm31WCu+0wweJWsJJ6f0WBL/7DCAwA2GMAHqvZDMDi4K994zlautcjEuz59uat4NT6K/ZhcRQJALA7/dZUsxp/jcG0kclFaY3WJFqHVlLub3QUiUdCAwB25Q0yGICjz++12916VpelWe2HITjN/sqjSD+c8kYCAOzEaWdxBEmOv5OWk+mV9YemLLCSan95GgcAYK8B2E39CJISqNH4e5btpYkhWAzeKfe3xggMACjiACz72xxkO/6uhmCxHVpJs7+MwACAgg7AqqKaN10tj8vTxHbotPvLCAwAKNwAHD160u5YeV1hY+aqv/1xnmJ/GYEBAIUbgOXys5LL8vOS3prI/tbmjMAAgIoMwLK/xp13lutV/u27i0Ut1QmYERgAsBNrnOoALPqrGr1uzld5+v7T23BGZQQGABREyg/BEv0NbN/K/0K/ubpcpFpgHocFANhtAE5xBTrq76iR/3Wenny8+pBqgWs8ERoAsP0ALD8GKdXjR/bIOdGKcK1vfkq5wHwoEgBgW400PwdYnD8K3JFTlIv9Pu0ChyPwe95TAIDXaS175wFYFb48Tfxoo7/qoK8X53JTL/Di3RUjMADgdU5vlzNIUXfll/99mvytKMTL/p4V6XpTLvBifv4LIzAA4HX/Z+9uXhrL0jiOh4Is3NVOyF8QsjS46EUQQs2lMRC3GUhIVlkEHXfdNIHZZDMRyxFNSMtkWpAplYwNClNKNRbFvCjCQEP/AbNKCu711q42VWoVc8+9SdSU7+U59yXfz6JepLq9hgs/nuc855y/3bEAtqN31Mnd09OTk5OPHz+aA86sr52cfDo9dYLYTuE//pzw1g/sJLDEHnTyxwyvFQDgFs/+eocCWISvXfOefjr5bMfusWlYPgwQX+tF8cmJHcPf/SL6zxEv/cjdBA7LKoFT7EQCANzKPoTjya3ha2WvE73HInaNrsEK2Ox+XfyLbgz/1Kjl0hFv/cxSE1gcxsFOJADALRL/unEPUjd8P518tNP1Yo17IW+NKwK5m8PHWvbl9vpqrZwOeagQnniRl5fAenvqFWNYAICb3TSC5aTvqRO+H87z1bjdcf+fmmZcK2T/sd1s1coRz2Tw7EJS1jqwOIxjiTEsAMDN/nTdCJZIX6v0/XxmHp+Hr3FPvf/GNK0QfrllFcIJj2RwbG3KSkrGsAAA7rhmBKuXvk7l+6DsvZTD9i9xLfuyurvikQXh4uZ0Ww9LG8PiTiQAwE3+8M/fv/2iAh4VneeL6Ws8ArNjZ3BB1MFpL5TBpZ1oW84yMAdCAwBucdUpWKL4Pf189qjpe14I23Xweivngb3Bc7K2A1v/V07DAgDc5IefBjrQo+9G374/6aev8di6GVzf3rDLYFdlnFFoGQncnt6kBw0AuJ69CfhS79kqfqWl74UM1gov1yfLLrehx5ZTcgax2AoMALjR5U3Advx+FPFryovf3nqwVQZXtlouR3DxN0nLwGwFBgDc5OImYBG/n8668WvIJr5DXKtXXY5gScvAVlkdfRPj/QIAXOO8A92NX7v3bKghDulwO4IzC0kpTWjRg57j/QIAXO3ZL90OdD9+TWXx2+tEuxzBMbEbmOMoAQBK9WagR0X8Gqrj92IEp13bF1yS1IS2e9AjvGMAgC9ERAf67ZO3o6Ni9MqN+O1GcFyrv550a1NS5kVSDz/+HJY4jpI5aADA1Qn8529Hn4y+e3v62bX47UdwpbniUglcHJfShOYsDgDAdX74y+9E+XtyZnxwL357jejC0UbOnY9hLi9jDouzOAAA19S/4hzod+9PncVfw12m0YnXq5OunE85sZeSUAKL86C5kxAAcJWfvxt973SfDddZj9DRKrs1Nz6H0lL08RNYLALP04MGAHzp2X++/XQm4vfY8AKxLTi733JhGEvOZmC9nVqb5S0DAAyIhP73d6+Uv/0INuOVpgtFsJQ5LLERqchGJADAoNxu3VPx2yuCtxvKx6Ez8xJKYNGDXmAVGAAwUAA3trJWxXlseIsYxqpslFV/GjEZJbBuJfDm3FPeNQDAufTqgWYem4bniCK4vrUShBLYSuDw9NI868AAgL5asxJ3biTyYgSb2lFL8YYkGSVwWCSwnl+mDQ0A6GpURfvZ8Ci7Db2rtg0tZxW4HdbD+tQmR1ICAIRE60DzcP5229Cv1bahY+OSbkUSbehF9gMDAELpw4ppeDl/nTZ0YbuhuATWZdwLbLehZxZivHcAMOxqzbrp8fh12tDav1vq9iONhIpL0baUBBZt6OQaO4IBYMiteHr593IburKq8FiszMKUlB5021kIfs5CMAAMtca2ZnZ8kL9OG7reLIeUVcGlGV3CpUi9heDUzhxvHwAMcf56fPzqywRWdzDl7FpKVglsJXA7urOY4QUEgOEUaR3EDd/kr7gm2MxWV5TVwHNJWSWwsxA8QwIDwHBKrFZMH8Wvk8AFVQk8Eoq9ibZlNaG7Ccx2JAAgf0ngQRPSxrD6CbzAuZQAQP76ZR1YXQKX8tLGsLoJnCeBAYD8JYEHjW1Ot0lgAAD5qziB5fagnQsKSWAAIH9J4EFye9D2diQrgZnEAoChEfFx/vYTWAG7B92WncDsRgKAocnflp/zt5vAKk7kmPhVcg/aTmD2AwPAsGgcxP2cv04Cv84p+KTkncVxOYGf8lICAPnrm1Mppd/MMBKKLelSe9DdSawlzoUGgCGwsq35PX+dBN6VfzeSOA9adgCH9XB0h7uRACDwalXN9/HrJHBlVfokdOaF5EVgJ4Hbqc0ibyYABFu6mTWNQCRwx6w0pH9cJdmLwHYCi/uBY7ybABBkicN6MPJX1MDxI8mbkcQicFR6D9peBk6yHRgAAs3nG5AGIliryh6FHnsufxHYHoUO5xmFBoAAC8AA9KVl4KzsUWjpO4EvbEZiFBoAAqtW1YKTvyKBjcpqQuon9nQxqctvQYsEbkfHGcQCgICyB7CCxDS0alnmJzYSin2jYAqrO4i1NsY7CgBB5O8ToK8ew/p+UupHpmoKq3sz0gvOpASAIArUArCS/LXEJN/HcDGBwywDA0AQ5bY08vfeZpdTagKYZWAACKjEbrAWgNXkr5qzsM6XgX9lNzAABE0jWAvAivI3lJlXMgbdXwbmakIACJjatkb+PkTxG2UBLJrQOzShASBQAtaAVpa/6vYh2cvAYX1qeZa3FQACJFgNaHX1rxXAvynah0QTGgACKBeoI7DU5a8dwNPqAritt6eZhAaA4EgcZln/fSAl1zFcakIzCQ0AgbHyMkh3ICnNX3UbgftN6JkSbywABEN6S6P/7JMAFk3o55wJDQDBEKRLgFXnr/IADof1/DxzWAAQBEGawFKev/ZRWCoDmM3AABAUQZrAUp+/ocy82gC257AWmMMCAP+r/TcwlyC5kL/KA5g5LAAISgG8W6D/7KsAbuvt1B4lMAD4XXC2ILmSv24EcJgSGAD8L90s0H/2WQDbJTBHQgMABfAw568rASxK4LkRXl4AoAAe3vx1JYDt0zgogQGAAniI89edABancbAKDAAUwEOcv+4EMIPQAOBztWAUwC7mr1sVMIPQAOBnAdkD7Gb+ulQBUwIDgL8L4EAcguVq/loBnBQFaVj1XuC2vsSJ0ADgU5FV1adAH3c6F//a6Zh+z99eBSyawipjOMyJ0ADgX2WV1yA52WuaZjwe1wTrd9P+7l+Xwi7nrxXA+enpaFTX9XA3hZVdivSGEhgA/GmybipLX5G9ca2QzVb29/fXLVv7+0fZbLagxU0nR/2Zv6GRub29zfHxpWRyKjWt68oy2Po+yR+5FxgA/Ci9rqYAPhY5KcJ3f/2wVctZ0pay+MPKarN6VC9oohQ2fZm/odDTidmxsVisODe/tzmTnJrWRTaGlYxhcRgHAPiS2IOkpPg144X60fpqrZxORAaeIWEF8cphtWJl8EPKYA/k73kQZ2bHiouvxvNWBqsogzmMAwB8KnGoYATLqn5NLXvUbOTSCfu7Ri5EcO/P6XJNZHD83mWwh/J3xDmaOTMxVloYz6fsMlh6CTz1ijEsAPAfBSNYVvUb1+pbrVxaRG3k6ueIOBk82TzK3jOCvVT/dmNY/DIxNrc2k9J10YgOy6yA29E3Md5jAPAd6SNYVvXb0Srrk+XErc8iQjhd29gXEWz6N3/7OTxb2ltK6ZLXgkUPepExLADwm3SzILcAtqI0Xl+fTEfu/EiJ3MZ+4c5FsHfzV0TwRHF5RjSidYlFsN5OrTGGBQB+k9vWZC/+1quN9P0eKlFrHmh3K4I9nb92BJfW8qIPLbUE5jQsAPAduR1oK0S1g9Vc5N6PlZ7cqt+lCPZ6/orl4NnFnSmZK8FsBQYAH0qvy+xAW/lbfz2ZeNCTlTfuUAR7Pn+dEC4u58XJHLISWGwFHuNdBgBfkdmBtsKzUzksP/TREpPV7C0J7I/8DYkieGlal5bA4lLCmDN6DQDwCYkdaNPoaN83El/xcLlm5cYE9k3+WkVwaXNKWgKLHjRz0ADgKxJnoM2OWdj6ynhMr96UwD7KX0tx7f/s3T9rW1kax/Hb3MLN4tL4FRiV0ZjJLGgNKlRYILUqJKxKhZHxC1DpKsIZEkvCMRgMAcfGuHBI7BAmJkVINsyfTLLFwNY3mHvnks3uvoK95+bPZpjYSPHzKPccfT9FyszNQfCb55znPGdJbReaPmgAsI3eDnQSm/XD/mW/r7Dz5Nyniu3KX8/Lfb+kVQObPmj2oAHAJv37sVr+Dk4aAl+4eV4C25a/U96qWgKbPeguv2YAsEfhWTPWy9+OyDeek8C25a+hl8DMgwYAu3QOdeZAx1FcF8rfcxLYxvxVTGA/aO9zEQkAbDHr9Y/zSkfAzcOG2Hdu/rkTy878/ZjAKvOgGYYFAPZY1HmJMI5Kl++/+uR/FP7UC21r/nperlf0NZ4IZhgWANikcKJyCUk8Hisngz8ksL3563mt6+VA/nGkpKouP+AiEgDYwhwBa7y/EK9tCn/oaTNyI389b/nuXBAqHALPzXMIDAB2mPUaP6kcAceDZwXhb9169P9GLLvz15u+taJwDGwOgbkJDAC2ULkFHEel0474px58PAa2PH89b+FFVeEY2EyjnOYnDQBWKOwp3AL+Pco/VcjHwknTkfz1vNZ8W34TmpvAAGAPnacI48FOQeFj++82oR3IX8/rKmxC+zxJCADW6FwrKRTApWsNla89GESO5K+32iuL70H7wdxjDoEBwAZaYzikO6A/1uunpSjvRP56XmtDvBPajINmFAcA2EGhByspgO9UlD53cS12JH+92vdV+RKYURwAYAmVHqx4TS0hkxL4tRv5q1ICh0F1ly4sALBBZVu8B0uzADYlsCv5q1EC+8zCAgBbAvi0pNACrRiRlWdbs64svimBffFZWDl+1QCQeRpzsJIC+LCj+M0Fd5Y/KYGF96B9P9ygDRoAbAhghSbouH4wy9IOZXkllN2Epg0aAKypgOWboPPPG6zscK6YV5Gk26C70ywsAGTfYj1+LbwD3dyusK7Dqe0WhUvgMOAeEgDYoLAn3QT9Oh5ssq7Dam2Esm1YPtOgAcCOAD5psgP9FYnvQXMPCQDsIH4LiR3okdR2q6HPcwwAQAAL7EDTAz2K1neyh8B+0J4ngAEg+xpHJfExlH2WdXi5V+3AF57EQQADQNZpzOHIP+IIeASrvbJsAPvhCpM4AGASA1hzDrSDaruyw7DMJA4CGACyH8DSg7B+j5rPCizsCLpF4S4sAhgArKiA78vO4aAHazRTXk66CyssLrOuADCJAdz3SOBRAlj4RaQ5RmEBwCQGcBQfNwjgkQJYvA2aAAaASQxgmqBHtHq7TAADAAFMAI89gHsEMABMIPHHkEqHHVaVAAYAXEz+MSSuARPAAIChApg5HF9Vbb1KAAMAAUwAjz+AiwQwAExkALMF/XUDeJcKGAAmMoBj4Qr4lAAeCWfAADCR+tLXkEpHdEETwACAi3EPmAAGABDAE+nKdQIYAAhggVnQa8yCHoH8LGgeYwCAiQzg9DUkjBLAK2Eg/Bxhd5qFBQALAjgSDuCdAgs7gpb8e8CtJNcBABkP4J/ysjvQUfOEe0gjqK0XQ8n8NQGcI4ABYOICmNcYRrTwsBqEkvlLAAPAhAZw/jldWCO4cr0t3AQdbhDAAJB9ncNSJHwIPFhkWYc15eU2hHuwgrn5HAsLAJlXORUO4DhqPqMLa3jdonAPVtCev8KyAkD2A/iO9HNIHAKPQvoIOAngcm+VdQWAzJN/DimKj5mFNbTcvuwRsAngBwusKwDYEMCx9CFw/YA96GEtL8nuQCcBXN0lgAHAAuLPIcXsQQ9PfAeaSZQAYAf5UVjpOGimUQ4pHQQtPYejxboCgAXkLwJHcXObYVhDmbpRlN6B9sMlrgEDgA0610rS+cuThMMyUzhkd6DNNWBuIQGADcQvApsIru/RhjUM8RYscw14nwAGABsUTuTvIVECD2e1Vw5C6QAuP+AaMABY4aAu3AZNCfz1CuAgDKrrNEEDgAVmzT2kiFPgr1YAy+avaYJeZmUBwIoAVmiDpgQextQN+QKYJmgAsIf4e0hpCRw/3WJpL2amUIoXwDRBA4A1KtviXVgmgkun3AW+UG3X3AGWroB5igEArDG7o9GFFcWDHTahL9JdCX3pApgeLACwKH81urDSPqznbEJfoJVuQMsfAdODBQDWaBzJHwKnm9CHdEKfa+FFUbwDy+xAhxv0YAGALcwsrFijD6vOSOjzTN/S2IA2R8C3OQIGAFvIPwn8PoGjtZ1ZlvczprzuhslfX+EIeJcjYACwhsohcFoDr22yup/L39bjOekZlBwBA4B9lA6BTSPWExL4c/l7vaxwAMwRMADYpnJH4yYwCXxh/sofAHMEDADW0XiPgQQ+j1r+cgQMAHaZ9frHKgUwCXxB/mrsQPvhEkfAAGATMw461ktgRmJ9oruvlb/J39lmEDQAWKVw0tQqgdNe6L0Oa2xMebUbj9ta+Wt2oB8usMoAYJOt+2oBnI6FvtNnjY0r6yuhr5W/Zge6yxoDgFU619T2oNMEbh5tsg3tea3eUlL++jr5a54ivJtjkQHAKpp70CaBX+fXTia+CF699bic5q8SdqABwEKae9DpVMq4fnRQMR3Xk6q2nJS/SteP6IEGAGup7kG/K4JLa6eLk/k4w1QSv60XK+Uw0Dr+TfOXHWgAsFBhr66Zv++K4NLT7a3KrDd5sxIXcuuvqqb7Sm37mR1oALBV/zgfRdoRnG8eb//87bQ3MRls/plTC60Xr4pzit1X7EADgGh83bQAACAASURBVMV0HgX+g9dxFP/nvzd/fHn13nSaTm6n8NT74rfb26i2091nVWHQvs4UDgCw0MEgVi+Bk/w9m/nm5g+/vLz67V8+5JSD3v/Taqu55Yf7S+U57d3n9y8RrjMHGgAsZN4kjNXz918zMzNvvrl584cff3159eq9e9PTTi5mLcne3PJ6b6OYFr/q8Zu2YG20+BUDgIV0rwJ/yN+zs5k3aQabEP7rP379exLD45Ibm+76bm8/Cd+k9k3TVzt+0x3o8gNasADASluqbVgf8jcxk2bw2Zs0hW/+bWz++d24FKvVcjsJ3/fpO4b8ZQwlANhLtQ3rk/x9l8EmhM9mzpIYHpe3v4VjY+ZCpuE7huz9UADfpgULACy1OBhX/n4I4Xe18Ji8/c0fmzD9Mxib5D+2dIsWLACwlN40rM/l77i9eftvUyi6KQza80zBAgBrHQwiZ/PX7QD2/eouBTAAUAJnMH+dDuAwCB9zBwkA7FXYq7ta/7odwBTAAGC5/qO8eAmckfx1OYApgAGAEjiz+etyAFMAAwAlcGbz1+EApgAGABdK4IGb9a/LAUwBDAAOaIg2Qmcof90NYApgAHCC5KuEWcpfVwPYTNziHUIAcEDnUKwEzlT+OlsBh0F7nyFYAOCAxbVYJoGzlb8OV8BMgQYAJ1TuNB2sf50NYJ5BAgBnmHeBY+fy19EADv1whXeAAcANItM4Mpe/TgaweXS4+mCB3ywAuKFxdOk+rOzlr5sVcBjM3eUKEgA4Y/OyfVgZzF83K2A6sADAKZftw8pi/joYwL7pwOqt8nsFAHdsXWokdCbz18UK2MzAWubXCgAuObjEJnQ289fFCtgPl5iBBQBuucQmdEbz17kA9rkCDAAu+uJN6Kzmr3sVcBjMsQENAO75wk3ozOavcwEc+iEd0ADgoMJJ3an8dS2AfTOCgw5oAHDQl7wMnOH8dSuAfUZwAIC7Fp+Megyc5fx1rAIOfZ8Z0ADgqNmdEY+BM52/bgVwyA0kAHBYZbs+SgJnO3+dCmBzANzjBhIAOKtxWHKl/nUrgMOgvf8/9u6ftY0zDuC4lhu8GI8iU0fh0bWxCZSAhwwRRKuHFnfyYCT8AvoKEmKw0oQ4kMngxnRK0CBMKJmKINg4ZOjSbilGaRF5Ce09J9txmz92sCPdc/f5DN5tH3z5Pfc8z3kBDFBgn3EaOO/9LU6Ak/AC2AlggGJ78Os5C5z7/hYmwFl/WxtTHk6AIjvvRqz897coAc76awMWQOF98/j+OQocQX8LMwH3k/7irhs4AArv5qOzCxxDfwszASdJY2vacwlQfN/98v0ZBY6ivwUJcBI+gWQDNEAp3Lv16QLH0d9iBDgJN1DaAA1QEg9vXY9+/i1GgPUXoEyuVB4++fh3GWLpbxECnPQT/QUoVYEffPS7DNH0twABNv8CKHB8/Y0/wOn827/rAg6AkgkFfj/BEfU3+gCH9efnGy7gAChfga+/txc6pv7GHmDrzwBldeO900hR9TfqAIf7J/UXoKwepgX+8+9Y+xtzgLP7n5v6C1DeAn/75l2BI+tvxAEO/e3Xd/QXoLTu/XT/ZAaOrb/xBjibfxvunwQosx8eHX+dMLr+Rhzg8P3BH/UXoNRuhu8Dv/krwv5GGuBk2N9t3z8CKLkrPw+PI0XX3zgDnC0/91sb1zx5AKV348n3MfY30gk47W/96e0Jjx0AYSvW16G/VQEewfJzf3HL9mcAMjcfp/2tVk3AIxh/k+Vdr38BOHJl72p7UB1UoxqCowtwGH+bz73+BeCUhf32YTWuITi2AIfdV4vrlp8B+I/53rPZuIbguAIcDh/VWk4fAfB/U3uv2oOYhuCoAhzG38bObR8fBOADQ/DBs9m0wINIhuBoApwcjb+7Lr8C4IMmwxAczTp0PAE+Gn/tvgLgo0NweBN8mA7BAnyJq8+vk6bxF4BPmtrbb88OqjEkOI4AZ6vPy1urSy6/AuBTJjovXxytQwvwpbz87Teebs54sAA4I8CViYXes3Y1/6eC8x7gLL+va/XW9orNzwCcx+RC2A+d9wTnO8BH02+z1V2VXwDOq7O3n+3GynODcx3gJEy//ebylr3PAJzfRGXiJMEDAb5AftfsvQLgMyOcJbgadkTn81xwbgMc1p7lF4CLJTg7lJTLleh8BjgMv0lSq7fkF4ALJHjhICQ4rETnrsH5C/Bw41WSNBt3u6vyC8BFdBZ6L9rZSnQYg6sCfNbw228uz22vXJNfAC40A1cqk/PDlejDnDU4XwHO6vs6HX5bWxvTDh4BcBkJnghj8HGDc7MWnZ8AJ8P69mv15fXtlbWl7I8GAJcgHYMPXrTTBg/XovMQ4ZwEeLjwnNa3sfx0d3XGsV8ALncMrnROGnyYiwiPP8DDyTf90W82FtP6Toc3v4ZfAC5dZz5biz41CI+xwmMNcHIqvvXF1s72sL4A8OUa/PLgJMKHY+zweAKcHKc3XLgRJt/lue7taSvPAHxZYcqbfBfh2ZDhw1MdHqHB29+SUatl5Q3pTQffRjr5djdXZtamPBcAjKbBWYT3evuhwiHDaYcHo5+A/wl3X4z4lsl+v1ZP07t4d6d7Z3V6Zm3p5E8CAKOJcFbhhZe9/VdXQ4eHJR6ht3/URqZZr2fdTcs7t969s7ly3F7xBWAsEa5MTXbSDs8v9Hq9/f20xSP0+9zorHe73e3NzdXptLzXlpYq4gvAWCt80qDJya86nazFIzMzMml1UyfhPf17A8A4OzxRmt/UfxsAAAAAAAAAAAAAAAAAAAAAAAAAAAAAAAAAAAAAAAAAAAAAAAAAAAAAAAAAAAAAAAAAAAAAAAAAAAAAAAAAAAAAAAAAAAAAAAAAAAAAAAAAAAAAAAAAAAAAAAAAAAAAAAAAAAAAAAAAAAAAAAAAAAAAAAAAAAAAAAAAAAAAAAAAAAAAAAAAAAAAAAAAAAAAAAAAAAAAAAAAAAAAAAAAAAAAAAAAAAAAAAAAAAAAAAAAAAAAAAAAAAAAAAAAAAAAAAAAAAAAAAAAAAAAAAAAAAAAAAAAAAAAAAAAAAAAAAAAAAAAAAAAAAAAAAAAAAAAAAAAAAAAAAAAAAAAAAAAAAAAAAAAAAAAAAAAAAAAAAAAAAAAAAAAAAAAAOBf9u6mp4m1D8C4pE3npoVOaTuT9HTGvlkbQkth4+awgLAgTSBRMDyJJiQgRAybo48mhkgA86gL964xrlz5Dc6Hmc18jWfumVoKtKWvMoTrtzkEPRqGOhf3zPT+AwAAAAAAAAAAAAAAAAAAAAAAAAAAAAAAAAAAAAAAAAAAAAAAAAAAAAAAAAAAAAAAAAAAAAAAAAAAAAAAAAAAAAAAAAAAAAAAAAAAAAAAAAAAAAAAAAAAAAAAAAAAAAAAAAAAAAAAAAAAAAAAAAAAAAAAAAAAAAAAAAAAAAAAAAAAAAAAAAAAAAAAAAAAAAAAAAAAALfcuIcDAQDAH8luj78AAAAGSm/9g1gsGneEPTnnQyMau/ybAADA4PH1ymvEi+FiavvBYtJxMiGdrDsf7jzdLofNcM6INf1uAAAwMCMXNueOkvsTs7OaqobSoXR+TMqnQ6GQrmra7POT9Z3tVLhoxDhaAAAMI773zdrR+oZTXqe6x7awrlJscZxP69rsxtLOXKpocNAAABhIPDx9tPQ8o6cTwlYUSwkGFaFcIZxPW4qT4URaz7zfPzowaTAAAP2Qd3INs/blpKCnhXDT65bXas3NsCIzbIu8ntnY8RrM/WAAAHoTvV/e28iE8sJy29o2vZcy7P5OkZANLueiHMbbx4i3wXcTAP6AbOp0qRBKOPUNdhnf5ggHZYNDheWnqSyH8rb1902ytbVtCgwAoxYv7/3U0vX6Wr2rNzitfT8qxzmct8j4vfCJLh9tvyKtTUU4PgAw2vxOJ1/owu63vk0NtoX+Ym06zr3g2xTgibzV4tuuWCECDACjPP/K/P6Qi19FPnll9c/5v2XARdpLMG5NgMesq8+5K0FLJ8AAMELZen4HWfw2V1h4CS7FOLS3KcCsgAHgz4qV3rzw8msNi5vg3e8vU1yHJsAAgNbCpxvqcPNbT7ByrM3UuA5NgAEALUSrS5ljMez8SvKNTInNtRLHmADfrqNxGS8QAKNgfqvITTeENQpOgsXuxhyLYAJ8S8rb7y8CQK9ih/sZoYxi+Xt+HVqwCCbAt6a9MSOeC19ghsPFePz38GsqDGA4iqeVhBj0jUed35TkLoInauymRIB9LmoUw+bBg6Pk+snExPvZhucTE/vJtQerKafDUSIMYDhK6wVbGdHV54uL4MrLIoebAPs3vrlw6umXpYlZTdND6bGxsWP72Jac/x6786+1zOzz/eTLsnmfiV8ABhZb3dgd6fK3aRFsF/7mMjQB9qd4uPxSDr7W02PCVrzNZJRgg/cPxJ19HVIzP5felfudumkw6uIPndpaDRXhsMBPZ9z4aUWIUS9/G4tgof9T5agTYJ991b9nb6ru4OvG8M3mAZwXZl9bQqT7nrrZat4Foy5G8X09XGtxpHk3HXzEfLPlXn5W/kSB5SI48Z85zjUE2FeMcO2LN3vTae91wze9DDembh4EYj0luOW8C0ZdjGQB/GAzf+lA62M/Aty7h2+U/tXs0T383Poy9Pw2l4EIsH++ZqP05qTX2ZtNUzcXepu62WreBducjCjA6uXXctCeDBNg+MXByW5Pl5+9jflFsIm4eKWui8vQ9ta7HIeeAPvjKy7Wku/1sX5mb9YbnNe+f04Z492e1lvNu2DUxYgCrFnBS0eaAMM/Dj/kRbeXn8/vf1mW3aT+rEr3awenwJvvTA4+AfbB13v/7VIh3f/sTa/Bx/r7tensAIeYFTArYNy91+fqh4TVTX8V70SjKLZI5EO6pmUmGzKaGvr95EpXEXbWDEFL+8QamADf9Nfq5jdfn7054NTNyucuR34RYAIMOC/PV5Vutn6u19eyRVrNTD5amNp7+L+vgcb2QG8fPpn6+9nHjOreRFOuH2Qo7wNboRUCTIBv+GuNV938Bgd+BMJNsP79qdnvISbABBh3r7/dPH71+0aXmjlbWayZgUDEiDY/xRyLZiORgFl9MvWsoMqLedcsJ9z+quspvgEE+GZf/6Xkj3p+B38G0d1lJjNTM/o7xASYAIP+tvvhPq8XFharZs6INc4ilwfEjGcjga9Pln9l8rLB7U9q9JcA+0L49OfusPLbGPlV2Sn1dYgJMAEG/W31c70l0k59v9Y33mszCab+6WzOXF3+qOaF0u7E1ugv/wYI8E2+/BuzN4f3Djy5CFb/qWUJMAEGBu+vm1/17HE10P2We9FI6t1Mod2lPfpLgP2geFrJi6Hvfi5/Xk1UrnvAnwATYNx1Bx8S192qdU8n2tmifItjDyfwe/eMwOryZsvZwvSXAPvAX9VRDR+R28xklqcJMAEGBuivfGevItTXr8xs7+fwe9HcgUzw5R0u6S8B9gHj1Yf0qIaPyJ9a049qMQJMgIE2Sid5q3N/5ekp9GExFe1z6Ol45GChIMSFd3jQXwLsA8VvL7q8+tzYPSl4vp1SV3eC5+cMAkyAgZbMf3ftztvNy6vPW4/L2QFmjo+Hn57tiqZ9PugvAfaBVLJgX7v8VZq3fWv+fPC6zWaUxl6r4wSYAANXxN/I+QudTyFC/e/hoAPHY6W1rfNBh/SXAPtAdUm1r737It/5Lgf/JhJyapGuOeQknXxCnM8q7HuvVQJMgHGHRU+3OvfXObsE5/eG8U7d+Nwjvb7ZFv0lwD5w6N7+vSa+ctpvPqRlJh/NLE9NTe09dDx2Plh49mvS3fHN7ji5Qe61amc+ldq81AkwAcYddiDfgGR1Onso6derwxkYOF5a27S8Z7HoLwG+8RPyq06bn3sP/ivulqu/Fh4/nDYDgVwkInd+i0ad/0YCgYD59snUs8mMXp9d2KHA+qcSK2ACDFxU2kh0mr8gr59lVspDe4nmtufdy9D0lwDffH8rnZ5+lg/+O/XNfFxZrJqBSLT1n5GNOBXemyno8in/NovpjgUmwAQYd1Yu2fEBLHl++rE4zFmBf1Uf7bqnPfpLgG+6vx1u/yrupm/aWfKtmas//XB127f6Z6KRQPloxh1j2DrB8oKPU2CTABNg4Fz0tNDxBrCTyvlVY7h/Z+mTagfpLwH2cX+9/G6uPEl5K99Or1SvwkbgcOqj2i7BboG1nRwBJsBAw+F8p2dQnLNQ4vVqdNh/aWqtYNNfAuzT/ir1/FYelyPZe92/827cSH0+U0Xrq9ruQw+bn+MEmAADdeZ+3urwAJbs7/QITurFd5UV+kuAfbr+FfX8yj1Xe3uRZlOff+222nS1fh94fpoAE2DAE/2mdbgBPKL+SpFagKNPgG9Qu81XvXe952V++zla49nSmpzrcPWPdvfjWDQIMAEGPNV5YYkb6K/zT+H/7J3PT9vYFscbEWE7D9mW80NybePEIY3Qg5BsuimLoi5GkYo0DYhZICHxowLEhtJWQqhVwlP7WLw966lY8U/0v5h/wBv/G+/e6yTkh53E9nXimPOdxTAzHY7P8b33c87xvTYEHwA8Q9248he/OrL4x6rK+YwXJ11s6kOvPSe7GWsfpAlDDAAGAINir0JDcW9A4++Jh8ZfEAB4liqfubz8HJe/yrdXC0Ei9kL7uk6O2jH99W/tfX7SEAOAAcCg2A/H8+KIBjRrAn9B8QRwqpFzGvmk/LX2MmtBtx3m6+So3SB/xYlDDAAGAIPiLrmVcGtAkz2btRuIEQA4hgBWr3Sns3eEv+naq2UaJfZP3XzqcY/iLwAYAAx6jiI7sNwa0Ji/bisGCAA8z4gQz4+dXr6Ktymzuc+rdFZj7etBd5f1SP4CgAHAoOeo8mPTdQcW/n7LhzzECAAcQwBvfEs7bX3AuNQzZVpxkw5rbQKP5i8AGAAMeoZSrwRrxGuAhD8LECNQDAFcwlsPGZeXrqbo2eGrNdLoHsNfADAAGAQFcH8vzjQ+yxAiUAwBzN/rjhuw8EOXVxJNSyIhMP5Cw8inOQBgADAICuD+BnQNNkCDYgngjXXHDVikTKX80lWbwGb60w3nMcQAYAAw6JkWwCY+ivGKhxCBYgjg0pbDy1fJpxJC2HQoVg8sxhhzmg8ADAAGQQHc24BWMvAAGBRHAPO3Dg1oJrRN/+pXnR13mh4ADAAGPTdp7meAWZP9tgYRAsURwE6NHybEQ3el7U8bPkIMAAYAg+I8En/oLi/BYhjGKkIDGhRLAEuZE4ez73j/86t8SBYXOB8hBgADgEEx1jJ5EubSgja24FNFoFgCeOPBYQcWy1j6WzVSIQYAA4BBMdaa61ug0b9+gFdQgmIJYKe8Ex96z2UWohViADAAGBRfqR9z7gXw4p8w9UGxBPCX4bzTPvRejliIAcAAYFB8F1VtJ226PQK21mEHFiiWAHZ88DLzQ+8AYAAw6Hmprrt2oKEABsUVwKQAZqJ26B0ADAAGPStJdy4daCZGBTCH1PszN23js7LeYy244ZAAPBieqQSm5FgAz/zQOwAYAAx6VkUN6UC7nAFWMnM/8XvWc9FWj+9TCK+rcW56nveZDmCYOoAHL1Gc2q15WXcogCNw6D00AHM9ivmSNqGjAGBQFFR3PwRsFjdi4KCoSqVUKqXVV4gO5VJKSxUkMeyV3v7VvFpAxlNy1bZ+oeF/ktSwrXMd21rHcex3atl2m/P7S2kCmFyEyJOb0w7P4RqJTl4Mv++TUQYLYNzx0Wf92c0QAOzCoThymPPiJwAYFAG574FmY3AGmEcEqn7PnC1dVyq6QJStVCo7rcb2yppWIhzkQlsK1GVtbfeu0VpCJvUsMa5XKtdLl5nvh3KqwIe5DiHPZWR7ab/jOPL7urW1jQxL4ugCybWCoAhg/KtFCYH3bfvmkPAIKDw4OlW5FPJR3PK1UwFsfNZmjhCqALbvIMpypFSPSpLEh55/zga+vIo91dqOFtp+cgBgUERVOjNMty3Q2VnXAwGrnNTa28ZSJSsoRqJpsZbtF/qhmU4oi4L+eHZUlcPCoChp9e9b+7qQUxID1hPGIsLhTuN0TQsJM/mCfN/YqWSR7Say3bVsKIvI8HZV9meXZgXMF+Tq3dK13n9z8DWi6OjXZ0cXJDghrYYObz/HPC7O/NA77QpYVEsp+fDtdqa1tITzQJT+LS2dZbZX3sulQj5eDJZKKN89wp7u246iNPu0qpVcpjgAGBSBtFG+dutAm+zfc/wZYDVVv2sVBSXBYv8YJplM4q+xMiz+Cf8Lk2WNnP7481TGFSHdWcdJ8o/Gvp5TWBZbwibb1rFxbN1i04qg77QxQ9v4/da1oKRZzJiO49hvbNliE4vZX0cXy300TLmICwfA6BJvUXKSMwZvTvveWPjW4ODwIQHC6e3nrKn8UZj9hKQEYI7kYVr1bgslYsIiSnNwHoj+Qn/HeVi20mp8v9CkmLxnFue7d2ck30WeNpvEUeSngP08lZdVADAokgO3qltJJm5bsLjC6sdWcdFgyeJO1namv9jBiz2BsCJcv6lqeZoLPV+qZ/azNnxdjeOgs2mMmdUCzSnPl740EH0x2ZLkA/BMn2XEYQYVw4vFd/Xlp63H1cslR10uhAFgric+zGB8nm5NelG/PJXDQXB96CUc+CL2Zv/WN3oVML+89nbrOptTmiQRM9t5IGO//RonYigDfGzs+sk/VWlY/kguOvwmyXu2rZF812Db35Zkuo7iXE4RKmff15ZFADAoem0b10NISUv/Is4nfpe/NB5ymL4Ef6bp9qVjsvpbrKJf/rdMrRLIy7dnRQJAZpz1JMZM7uFdPUXLuqj1GncxjP8LayAEF7pLUZZNDMtoFhf6liMqAEZ3Z2tcfDrBMYRfFO/M6FEfiQKYFoBJF6SYw2E2O4kYCXb7BzsDZFD+mX30nn+qV5khbR/6uU/czbbDr/LorLT6cUdH+RzTzXdJW6XrJ2moPLyraiIAGBQxuT8CNtm/tfnzh+ss8DZ9zTFqV2AJagu9WL7aySZY0x2A/dYJZvTLXY2G6y9Sty09wTLjjGO7yOzem1XebSlyXI4oAJjcHWOS+NjBaeI7I9IeIw5H7yLxBJgWgKXVzL6gdDsMI5IczGCP+Se6xFZOWeyXkvX1mFpc2TMGflMu8bDgBYLI1+Ncuj2iGOcpjmeZgmcZ12c7O5iFAYBBU57umvsjYOXNPHagpfYCPwH/Op7iP4oXevllYAJqtztCk52I/T0ZAELwZr1AxfU0MT7WqmkjuHaa6ixFSWZI9AHMqRvk7kwYH7KkNnO/dmlngg5H7yKy558GgBGSHnDtO7L/09MN8Zh/4ks0KO0TC1yF8hvY19H5HNOGM0p0qz2zjMNP3wDAoJnqwv0RsDCHe6DFcubYXuBND7IXeqFvevoi4PtWtomBypiMF+tJk3kqR33Ldn1C4wTBjKW/W+WmWAGX7zp3Z9L4kHJe39ygWgQ7dKCjsuc/OIB7kDTRQPCcf7YvsT9XM3M+ATyU+nmCoHxfUybLtskcT/fMMlR8VADAoNmK3xVcHwEX/zd37pRuH0+8LfC9Cz2enkEW+nLmIG3j16Pw/4LL0SCFnnS+c+LJOEYwwyqvq/wLfjoAzr9vCXaBzni8M8b6aYniMBmu4CKz5z8wgCdH0nD+KU3nEqlVwDxKeCcf8/jPJTtNH+IGABg064ZtRnF7BJx+rc3ZWBQ3GkVUgPrAr73Qm4zy167vhd4zAQfL0UCFnnx3wHp3HV9vrapOB8Da1XHa191BV2kV31D8SKDDB7Cjsuc/IN28IWkw/9wuT+ES6QE4db9uDygPvaZO0wcADIpEyei+B2vuHgGr598UvPiYPkWexu75Xei7BPRnm5Sj6dqKzyb4zZngw3Vi1Tr4WjicAoA3tvCDV9ZvbE52qL0WlT8VHDrQ0XjtajC6eUZSfy52sjNJERwVAHsfUJ2mz498B8ADeRgAGDTr2T63j4C1qwcrAH6DLfQvOwRk/NvHhd7etp8+aP68Zvhcd1FRYB2sfAgdwOJ7nB35zU/apbpIZ6QUGspwBxo3fOYdwL5znG7+eXAkh3uJ1ADsd0BhL9dPJWc3AMCgKc/2issm6KSlr86VL+XfWctv93moJ+u5pjr/ZgTASw//hU3v/Jfujy2/8Gewy8ebJ1a4AFbP1wM1J0h2QofAjoeQIvPWmQB0C5jj2DHO/iyHeIn0AOx3QHWbPgBgUAS0NrQT/6klN1ePgC9aJ2wyGAG7i5A9PT01v9eDlr9d68brukfMpK4OAqQexOg/bLgVMEkRgmVHeN2kVAPLQ1lndN46459uAXOcdozZf8Z2gKIA4MLVse/NHngk7aEpDgAGzVriYdZlE7SZ/vc8fQnphlSgQQn4ND09tSMLuPkduPjuwNBbq5V7UW7oVrDim2Gcr50agAtXe1bg7IgagcXd7PCHGKz/RCPf9E03CjkOGX9m+vWYIEcAwIWrYpABxSbRFJdepFoGABg0S/HOD//whDI25wfA4nmNRgXaWYRQOfTTw1asgKvBcIPME2bKvwUrWN3jSmBaAMYBYoIHiBaBnU4BR2a4+6UblRxnsgxw9gAOOKDIFD9Y4Yb3AgCAQVOVlFl0A3Cgb4Bjtku0pbrzd53GAt87PXOTE9jmr0nNvDfMlH/nLIae9TAALNkBohIa9q/ge5VLW8rwI+DcRzUSM9In3SZAUs+7LoKNv5kDuDB2QDGjnSVTvHYxfAYTAAyKCoADrkj8boa2jv41Df52CTxhF5oyfz0SWAuRv5QAzN8e0AoQCk369Sp9wiFPsz+i8V0+f3RTRyOp+/EFs/1RpJFfCRk3/mYNYHXkjOt+asz21XbW4bUrDPtpdRsADJoxgF3ew5H8P3tn09O20sXxVEHYISIOCY7kxo4TRzSKSJqyYQMLEAuEBBLQikpcCam8iCI2pRSpilqVoqpddN91r1h1xdd51t7kazyecXhJfM7YNHWAxwAAIABJREFUHgdieufoLm6re2OP7ZnfOf85c46tPstE+2W1v157NCtYlwgSjz/lB8lfd3p21N1AJTlyg+ZvKAJX3qv3x9/BANh1jwZ0i84PFZe0iIQzoBys8Zi0vuaiW/boEv8I3aYWpAF13hodLVr5vNsiCa2V5Sc0DBnA2aM9/INyGzJ0ZDlvOcsPHavstoPqv2Gpo0zOjQoACxumoXU45OgAHh0sF0ZsE04Pbgfkb0AJ7iYZZessgAQQOLwLfvEugYNIrToVHm1pkBcfNICPZ/yz49wawG63Wsmnj1NHXYtYsfvYk/lPMo+S8Vh4eeiG+zhuiTVbtkZVtTq9fToxMTe9PTtuKsW82zOLR2gYMoBXm+iMkyS39aA6frU9vTQxMT+9fTGuFiy3MUX/CicXmiMdAWBhsZrsgzoGTAAMNNjhN8wlqDk+hB9/70hwN6qU5J+m4R+FBgjvpL6r+1/cjUECSK3MwAccepCLDxbAtXPLln1ejjxyKxJKPk2cSY76m0iuIVD+XHLi6tLjjYAxH4d+65IDpOr0+rOfRjKZTKfTyaRhtDbmZqujpCUzPHPYQsNwAdz6lEc+KPLVyEX1Yv7gm+aMtULGmkxqRwfz44rlbZEik+7BIgIWFlMAj0c7ljHwCNiZ4uvAFB/bLHR8YHorwblGVSmfZjGEwPbMil9/GBp9M3/GbUbac3XJv1UxXQF9N6GPmz78BYbuNi1/MABPbe6zXw/VDJ2oZbSgElNGrW5rV4Y2MRMpEUvfLXi3BMFv65EA2PVxoLdC22xVTxd+JtM9PkuqnDZau1eqhR0cZgoNQwWwsViE/G3Jxe9oc3lDK+k9g82kS9rhPOkQ3vPhS1DuvwCwsNgAeCxuAC4CUzzzy2QfwqFtYeR8UTHHZ6ep4apU/0qfn/VJhdb8om9a/b0rALpG9L/RvG+3OLIC7vrU5a299KG/d+hEfKQQlh8GwJmvVebrIbfYkYvmxenEwTNiGxNLs1W3lbyMvRc7P61F+jKBJOjY1F0NT7fKJOiCUldFsraW20m9+8vXl3B7EejGm2kT647BEhqGCWCdJD1IoDJiS8XmeiNdvh3i7b+Vk+2JJm0SdfdqXqFFAFiYADBGRMtbGuTpKlsCdhf4QnV2bqNOJDjXiCp1obpN25jbjftzzO3G3A+lw24DTjrpKdX5rgBIjOh/E7NmIS+zHQBSL48tgVcmSXApMX6BKHK9Qyfi45VJGSw/BIBbVBxl3aJkqb8nPxjJtJ4hVk6XjJ8bS3uKjFaVIOkzuxEy9EveU0gjHTMmSdDh6Yb4OO6J3upyO43P4gxBMHiA3hUa6rED8NPVPdChI/PccvCrpxLQ/0r+Nl2foN1Swn3xwoQJAF8nyngBXDvP2wz+0gXe/H3QMtLlflVqY2nLB8F+243Zox1WeEcEQAeAixtaqUcATJXTycbnWdOiDjkjAJdfs7aBmcGl5C5Jyu/1vqET8bE9d9Hl230DeGqziL4e9xbz5umGlu57yOVK4/OV0h+v3H0vzeOng/zm45MEHZ5uiI9D0ggKJ6uVFOtSDoIPafskUGiw5o24ARiZ72Sw5mKbfQOp3Mq04lMrWwBYmAAwCuDtfgDr7BDUXeCfGXqqR5bqqlKVBqBK9ctaM3WmBMzACxUAm+utZLlHAOzehW6sLm2xuuOSFbA4x8gMYgWXbvijni5ovUPvio9p7fvVfoDSYVEBTH0Elnckk7dTTiT6LkLejnbWtLAByhHqVoH0iNG6G5ZuoI9DnRt7Zz1AMZlMfd4EqSRJHfOwHC8Ag/OdfuwjMwsBzu1ruztsx1MAWJgAMKoI998SJkjdMkg5OTIymPufSjsIzjMxxmJgjkjADHgTAbCOaGI0Cl+ZNln8l5gBeIURXLpdTz8taGXsxZdra03Z93hQVADXXn5BM6DJLVozG+TtgM8nlWlRMoBXc9jwKsP7zRv/fPHQQ74yHieAQR+nW1ByNRfoisbZJUglchauHi8At4D5Tl1d62Q10KZE7sUMMwYWABYmABx4chjn2ImE6zXoQMsmGMPwU6VITyiUgR/2GBIwaSx8sso+sJq61v+Qy8s2ngWWPUKDS7ee9NZko4wOPZVI6Suz+6F3xMIBWH+voB6KKxrWMyx9lJABzvKWbfm3xv3NP++MSP67G48DwJCPQ7/94kngY4Q6SCXX/UzHCcBTixY4WDnEYFuzeUbepACwMAHgoJMj81XFIUQJ2PZ3i9mqFGEgstKPvbVY4Z29NekvAGbq8wpaQpCcH0KzjbTzJ7aMux7SzLOSz6tP1OZMmx0DRwRwa0ZG/SMSXvmKhg4ZwBQ7+mTOdN5v/jlQh+ORAhj2cZyHqyw3QlDwBUgl0pgT2msfFoBhp5MMdjNE6xQmgQWAhcUGwEbcAaz9+cKAkG0Gm5YsVYqu9N91WPszO4xafvbMRqDKDtoao4g+yTZqhFh4b/hrnbSz/tceO/Op4hUNwOS4j4xXB5kJIBpmXyBpbviT+W8BuA6pMBRJWqjZ61BJ8h5NJ3vtY/EBsAE5nc5NF8INlkVgAWBhcQGw+TPSb98/gF0IoVU0dhaMAcxIVOw00BCUpD87eCkHu/gU3YFDA/AivKzVUN+DLL+FxXqgt587bDL3gaMBuPYPXp3YzgcTDfUz1YaPfWJPhg/A8em9GYpuoI/jPK9iSP52CewplwzvwAwJwK7LK3l18sVauMHS+S4ALCwGNvbu0dSC9kwOFEI0/t1ZqASeSSwCIyEwtBrcqRRx0g48izGdtSsCgoEe7nuQ5Te4Iqe/2WEdo44EYIZ/JAflbyKhzcNCv8QbAsMAjtp7c0gAbuwBGVjk6dZCU2QF+grhdPMhAXjq7RNvCVHZHjkJXTO3/RrzOwWAhT2o3Wc3pHsGMANCXf6GVeDChMBjWAAs4dmjqM6KFxNBAj08ACY1LJeD5yflzrYYR5kjARjdIAjDXwcMe0jlI7vwmWcX+G8CsH5Q8D5iLiTBaj8Ngb27wEMC8AdgB9ida2GJmfrWRL56AWBhDwxgtB+wsqDfyy8PCsAaesbFmZXmQriOOa4qBT+Jjgoch/yA7AC7JYRWs2EuruMUdFbACy14AEzrZ540QiwhU7uKLd1HBEwz5FCBIDghjOUittd9xZMI/TcBWPsjQwlYIT8/ltrvhMBLlXgAuASlQEudLZ44Ad3ZEAAW9rAAXkMBHHFNum8A4ynQzt/ubxoh1wHUJyZrkDdDB1oNbhbAnbALYAWnIJjui+8/y5L0KVxE4Gq80sABTAo+ysgDCkYIcoJar70/sbCClCpcJ+I/A2BgCpDEPOUgx3Vlw6v2kxB4rxEPANcvvXs+sl2crAxorALAwh7eSGs2BMARG7TdN4AZCOTZAysfVhEGSiOdavsptBog9FfDL4A4BWWg/lf2G5aAzUP/1ms5cEpKCABrHxGJQLLNgNpKZmpl8h/FkjrSAMth/UUAhnwcybZOeatqtrxOqPNnxaP0DwXAVG73tvT9xJcLT3c2ZAFgYUO27BsV28r0LvyxAjCKQBJhtcPf79RcEQW6Zx8WWg1usLBocKx9GAXJLlx/873cZhFJTOIJfzKv0JIeEQBc/qVgGn3AB1TWvi5WSdsIGS+S0g6/ViJZ0I/xGFLd++KcP++0eS9d/u4VYpx1YNaIA4Cn3nqUEFIQjTdRJbe2D33HAsDCHtYaZv9qdFv4MdJB4HsGMIpACiGe3es6zkBSqNBvNbg9n8qRAeNQEEuqlu3Cbn9600fM9+AKf6aWMNcjAoAxgUIK8ICI9lyqH/xRi6zOwJwnkZBzwNuPD8BQCla0xsbaO68ITfSfOAAY8DbI527wjrX2L5RCIgAs7IFn+3NkMR/pmJHant8zgHEE8mpwDgNhEdpZg8w+XbeOBY289E+MIZtSQAiS+QWnYBGAb/Hk39T30G+AG8CoAh2EEPrYh8XLgtuxGW+1QRwjje+T/ysiYDoFpP4tW876JOgUcBzA/i96GAAGvA2ymcF/UoOG+wLAwoY8242XXzCQRetRnpss2CN8hlbgvzM5tOf4FiPnrDTeIQyU+xcX8PjH9ZmlGt/zWtmxwRDYG4Lg6U12cZln3z63hvwgP4Czr8AUOV9CdBOvzmmvRrxVVIQ0LMjnfJwRcANQoCMFwOAUAJ7NMADs9TaiBcCIiygALOxhDY0koyam5Cb/15E7fGZ34FDwNkzBosAosxIPgWkQmmKuBjc5ywucXgvJR0ew2hOCpBIaUmGKBMB8+39YCMwPYKJ/yLAvwyYESbz6WHhCOmlIfgIKVxoW8TnznpJPnYtH1w0ps6B4Y8LOViPKxXXvLjDZav85fAB7HW7if0UJEUC3UwBY2MMa4yBwtKggt3Y5zmkmHAHfBTBtxgeHyVVuWQoLgaXeupzOEo7qq9xNehKJ4yqG/17MZF+YWGmK4jLXmYxEBUlA4wUw+c/yiIpRZRFC176+pYlXAfBLKn7aVahZQHjARa58PgQAkyngiQn5JJBbq/0BqmH1S2FDADBVVAY42eiEA+aRALCwh7XMoYKm344bUX45nRzjMSNpbCjwGn+zUQdFMddBYARZKvNKxdDWswYRBI5ISPUSbp+8tITlNpPw7I5n86OA/XdV3gTYFXhPmx/ABrxDQJyJEqY9Z0v1H39UEvwye6bfZMY5/3TU0IqrM4Tz/7N3Nb1NZFnUrURUGabtUhJb8sTOh52MZXXSgQ0bekHUCxQJJEiisEBCAtJKR9nMNBkJIRDQSk8vsmcNymr+xPwYb/w3pl45H3a9e6qe3331qki/u078VVX3vHvuuee25ZzPdD63DsCgkF/k2deVZuSjmCctJcwBgCNGRTptzN3i/M5UDnEA7MJyHAEwEQ5Qh5U8PlHzZZ3O8SOJALWAfQYElklnISIHNTEEruvncdA2jerv4yC1aRCdPXQpixZtCa5NQQe3a6S43sf+as3WyebZjaHwqq8Ev167+vtcb/JsGZWO8c/FNF7NoQJeW5Rb2cyakKRXZCrMOgBTjEr8sdDLM74DYBf5Pu4tPNNCr+NWf229KC1sz4Mcf1nuEIwUalgxz/9UDlrdRO6IDAYQw/8YaiXx3/rmoc335JFCG4Cb70lexSMrzUmEV0OzJ8FP++3O6/uNWxrJkui6sI1X7QOwsNCRa1XNHkTSTShTYTkAsHzTi9NGi/dTE7WHA2AXth/3j0iFJY+/5pWApCQJaVjeXjnUXh0bisbKcaZwHPprjJ+EAGXBO3uskV9cG4DBjg9JzXaOJRMIr4SQetob+PX1B8dTej+2OB14hbXCUkU34hjBHVy4uAllfn681MyBgpZvevZpI3yO5ROvA2AXliNS38Lx10oOCQiUeKM04QKoQX1WJYOL0NGh6DLiv5nld6nyAq0vGK2/icqHffZAPXVNAE74K5lUKTcbnycRXoV/480vfvnl9FZQ0kuVwQuidizMQmBVdJMfAc9EJ5vQhEgPlX0AJm56n09aEFnEAbALyxGAtG+Ag9aMLbrEC9NLLy3Bc91DMLCP9AgjDVbanJROYGAfGZJBsnXCMGGCWCZpf20Abn0lNXKxpHkhvKoqCq+E7tnr+/N7D/7R4uTeNbmcitieQiReNXSj/4rkF/g/Tvzd7QOwfNOzH/US2ShxAOzCdiA9U1/PaYgdxHxjbFQkTABvFKDKzCN5nl5G0A3XoCwesxztGKaPFd83Us8I04PaiT5fQYvh9SvgH4GqenHsMwrhVVT8qgmvvEh49eXxxjKHmCEbisWRQSsDMNEV5R+YKV5WogfsA7B8PjQxuk3UHg6AXdgObMXhDRZf2Oegl7fT+ocRCTxNT7m8ZtWgZVjcjqQXoNLmt+DANxfYeqFHTyr+v+eclo6oL67dA278SP6MV59RCK9mGr/tTCi8mhfCq2a5xMmR5EGnODJoVQCWHwGPxYHgdCDJoG0DMHXF2HTTxW3qOQB2kWtQavxLDpq3klDvCA5GfEfO4YEKTuq9OUT2qyIAkcBhFbUVcCmxFAIcsrs8/hEM7uoCMGhreCOvt7R6vP2m/sFPtHseE175s9X1uY0pA2Jl4qBTHBWWIroRj4CZQwTB9saLzRwAmHg/drkf3vTP4mpKB8AurMfRIuSgmc52WrEGlMijU0grNUACM4wwwCMpu/WjEp1tpySSkZ88YATZXZ6MCACrNgDT12d4SAii4vdKeKVa/C7+6/7pLV7xO3LQSXc8LjgAyz/xlUjC7CnQi98GOQAwYd/Nc70u0RMgDoBdFKXk7OsufOPFEt0CHjvfiy5sqlbKHA6N5Wfcqu2zhTxHqYU9tcvHSAl3k7Li0AXgykoVm4mWK8u9uWcTCa8G/g0hvFoydIsR1aMYNGsU5HlUQrfKEwq4DAjJKiuUMqmVOwBLC6z4I1eEnsIBsAvrgewn2NvNNB+KNhI4n16d0uuIBD7hkXDQZuqShUsCaV5XakiAp4FrA/7NY97ujHlzAAyuT/QLBY1Pm5fFr9rUUbsmpo6MtWhJvt0bGEjoFgGYZIpNgAepTBofBC4CAE+b4NvlH9EBsAvrAd39cymBwSLZsfoSd2G5ZQxykLh6MLMEYIXqNoDDwtztkTfMATC4PoJHOHq/U1MTXg39JoXwavNJw6xNFVHu56F34AHwfBayJPKEFyeW7Kug0z+TA2AX32w0BAeNusCWS+Boz6C+DIr7+KS/sgpNzQBgLwXdKqBPzK0IrADwYLq2V51VFV5d2D1vLJguTYnVjznN3JmsgEd1CkZPgdN5AzBdlfMb3vIpxgGwC/uBddD2S2DBQPtpPhMJMNnKEYC5M1Aq6BbQ7dVvA4D7EaOsYfdsOCVGCd0rwsydUQCeva4ArNCX1j6IOQB2kXusdRAHHealVz2bH6V3prASqKAVcJtHYl57ABbAKiJ7u+dUzkfucxSFg3YATFTAaobRk9NtB1UHwC7yD7SKNspLbZt5qflLnXSmHt99UlQAZouw0BDUNQHgvhL8GrB7TotIayeVwK/WCvAsOgC2B8CyWNABsIscItitIVJQbBiwRs3BbQje+O4TIJXKm4I20QOevh494Pl+usQ5YeqIbfecmnnlSWC/X31fgJWEDoAtUtBOhOWiENH4+gGXwLN3u7Y+R+UTvZQ+ZvMo927kpUV6kWCyYaECvjYqaHB9FO2ea1y75/Qgmi5Dm5BvGYD/YiKsDfaXdQDsohix9J8q0kH3vUH90Yylz9H6+B3tBTW+6S9DIw56O/KYEXVWFXDSjO+3NQeMro+i3fMTrt1zekyRHHQRZFicCtiImdfaohtDcuHCbnTBIlxxq3uD57cDSwUwmEiOGS0KHz76z7J3wgKmUUMjBKYVJaxuL8E1oUrmyNXByYNjRelNWvz6l3bPS9nfadTaKz8sIfMvgRXRTd4IYsqIg6J7x03Or5ERhxtDclGImHkEZVhiduSpHSV0AxTAcZPnEKmyWAiIdhLE6D3cgWautAOLGEeTTZIX9A/F8YIG18ee3bMWB12IEljVinIlKyvK3dQXzgeAPfNWlLLvnQNgF/lE79XA80F6FBMaNkqD5m9VUAB7g/XTZJrsogxkSra34Atf7V5BHU42K4aQPXzhk6ttSGhZlF+cbUjo+iTbPXceHBuze04NSvjv92fzL4FZyxg2DDyEcmmd5TIGcehUAGBi+TF7fRX1NRwAu8irBN6HrKEoDf5tQSC6gQ4B4QngwULyiTjeqtU8/h+gfUQjHVa0NVDsY2XlBLSZecT1B6+CYG4T2DK4DxiW6Wl2z4G9+z3Ylel+cZ/v5l0CK6JbObt1hLLHZWzLiEkAJsR/bh2hi79gdLEQ2lIbeHUb0eBhYhxNLXhgdnrQWTObfS5F2PebVwQrQmnORsDoW/npew6BTjv8jWqH+umXZr+1Abi180GpCZyd3XNqNL7KP7bf9790c34O1dCN2lztjZrFGX332HyTbQCmZBdGJGcN6Td0AOwip4iE0MA+QSDwndsZ1waVz3Av8ZgLB/1AUtNKGhAINjNOD2oja5YEwZq8Mkm/Ck2t6zEBzuHkaFjXr4DB9SGqX2H3/NiK8Cp2v78n/Fe9wb41xT8TgClWlu/lRZ0CpYOlWQCeVwBgoiznPmw0C+IA2EVe0dj5DpXAAoFn725k+/4P13EXekyCVUryOuQRU71FZIR5xe+GOeoNtMt8yDilzPxZV6isgxVUf8/endLMHejkod0DhlZYtN1z047wajzWXslXMTxorm/9/VugoAnZOrsBA06X0oSbOQAWr9RWAGCyMc3ueBMPnANgF3lFsNvpw8adlzECl0sb72b79ChUeNi9E5MXU1MkBnbaREaY9AFktAsG2rCiVa0P/7j8JgROAP716fct8uShDcDo+sTtnqvZ2T2np19K+C90WPkuRVJFN5mzEA2YU+7bE70IiVaiP6JO/yW86b9+UABg4tQ51hXSC2L1uANgF7nFaiQMRZaUQ0esclZZp7s53wcb2gmPCbHCGLDAnEmSm0AFFcsusP72BE5rx/GiggtYmLLAyLbfr7/UzUig+NYGYHR9xu2ea1/uny4HpbwSXo8ogcMbqPoyVxJaFYCJFWa+gdGchU2CEh4fA1ZrFKsCsCzXo0CQqsvZu08asubCAbCL/KIHSeBhatr/IyMEDvH3f/WEhUzxncRlap2NgZ02xx30qmPyFqiVZsG/6HORrxorbFbhKUHXShEW37oAjK/PkHu+tHteyvN2p0tgoTfMUwmtCsCEawu/CUyB0tBgJhsADk9qNUl9L4MgderkN4HFKdFzAOyiMLF0sJgwPRKmpvrPvWxyToS/sAFNmCxCFPIGe9pE7PI2hMCRXYjD8zgAaoYOuvvMTwDWclLpw4X/4IT+QtoVMLw+51pjG3bPaiWwT9nOZKt2qLydMgDAQsIrm2n+zuTPiTshvP+kPdeUKllrDp2iXigQlO8nruJC/b1duLAUrZ/amIQWqWk+mz7wOf56igWweHgACokSWFsMHO0ihvLm9IIxsqw+0tTwIBcST+osHwF6V7/6X91s0xZc2gAMr4+ogC/tnnMOavbdixwpu1km4Yd3kpgk1Tlg4iYMb7/aAY9UmJHOoOH9V5cOwIQqWc+HizqoUSBIEu4swSX9FDsAdpFnbCSQ0EIK3c9EiZWEv2K8htgyUL4N9MpiratmmQ45YNECXlAplTnbk7v/BXPYYVYd7ezhJrCo/vWmtRH1rg/A6PoMheobeQmv4r85Nfse9VoyzMJv3/n1BARWroCJm9DnTaKLsvoNwcqOjuBdPCrE9K6OKplqVVAgSIgK2PU+pblwAOyisCR0NDniP71tOnkefdxPwl//3RqRpRpoe4Q+Bh6fge/ux8egogFCAP+a25Nn5vYHiAHojOeZmXsQ/vWsFFEBrA/ACdfH69fF2l2NJDezbJwMPqgRs+++MH5bzuoRe/tu1hskILAyABM3YcTAcOAjomHk+69VSgdgLR+uyueqEgiSogJvUOX485GnaAfALnKNmz9DMfK5fHWwfrBq7v3KpeDhu7YP+WdR/92nEB+ikEgYWnVg69c2fsXT9IP7BQbqbU8+xjacsfKbFI9cwL8OBRkcdmjqnVEBJ16fO1oUxer2vV5g+HZv/UBd8/AB2MsKgQX++kkIrD5kS9yEPlMaLNMwMv1zwQh7BhahLFBHPxIEV+X9kUzr7t6Zivu5CxdWo3d3NqENHCHw3iODdn3Ln9Z9z8O7EPvt1+RDhgddNDGw8rkGQVUi9pb/AGy17vbkRgL6x+Ydz6tLj9bJrU/OA3bRDioOAAeQgxa9Ow2QqHzqtJ/urhq+3bf25HNPZPyWEQIP8TcJgdUBmBAmiQbMkb6RCKVDIOdtxcok34ARa6+jCoLEZHkWQwcOgF3kG8HJOuaDhwjsV/+5YaQUCW/07lz4CPpJyuvnb+l/jbx8PRoD9+9NnqgnMeIawj+2zZ44K8z8WUUtU6LTJdwofXRe+aml9d6eWQBOOCUIQmGlond9OqaL4EiHRQixpiMENp6Jh/g7nCgACKwOwBQm8cbwCB0CQf+U6BkojbGgSUCQ2B8p5HLaXeCNMyXrGRcu7MbSwV7CNPBQDD27ftAy4Z/QfLiz7yfgb/iEVB8DXqsJdbZhdutMyMSWS90dUPl7BAQKAx/YtNYYYwkOn6PfXCyCkmqxow6G69qEfbHgEC6i5FTAiacEf9L90pFRmjj7zZsugrt/I677OQKvGk7FlUPh9uad19gAgSfweVw7o3Yad7TXplA6BKDrktcY6IwFdZ/5nioNPCVzRBp3ewr2OwD+P3vX19LIksVbJliVrKRD5w/0JG2b1mwIN5rkxZfxQfFhCYxwNxEHVhBGc1GZF3UcEFlRQceHfZ/3i09+if0W8wX6JV9jq6o7iTF1qqs67V4H+sCFmcFrdfWf+p3fOb9zTmx/uVW28q5glhw9PBC21xpTV3Fmqg8HGAtaf7AANOji1qHMJT3jlpVOIVqI/BNSnxEIzE2cftxW/qO22YplLJdg1AEl3MXzia28W3Ng50NxbtUlawEaPQCDXkKI+dKDRmn0zYuYBGfueP4HQ+DFrSibUia10vHywNsUILACAAMzjVdDZojef3zkxeP1SQ0GbxREiLKg0kNBnoWWvus8udxyI+Re9+Qq32OL7f9tpliI5YWhneXv5nQHYeq2WxClfxmQti7B/7+8WYQxsN9SgKGkZoKNQCgB3uF85LxW/mFbhrHAJKjp/jpJQNLbtguBm9LWCbJRYoFeA4DnN8HpkoS57CsQ2VGjtFcgwca+zrmX7Ebq91HOJkydPY6yLTACKwBwZvI18EQI4dLX1ZvsJMcEan0mR0GEaMQKzP8GQLB6Melwh0m5QHuNATi2N2K11SwSIjA9srHe3bbCQ7BxvmFfY+EyVAoj6m3bBimwGgwR/KVpUOzKx4CBPoajlmEqCOwlBoGQsmvzijusEwd0PhLyW6fI1hM0P5sKgDOQl+A9WflhXbPvAAAdr0lEQVTY4VijtOhJsMkNJ1CExD+7jchGI1U79nO1A4jAKqOGzO4kjNB7G0qaVMlx+Cg3/KNxx1cqa6KganoABHlfHF0zTOuRMt2rGzPg2N6mNVazQg7szZLL2idhIJiOnis3cnsOdoW5ZnIY9HIiQQlMsZhYWx6Bq//VwRAwJcBcFl4DKfDgaFXCXzURuEeBp3U+xC1ApwXgAC/hsSmNwM8ataBXIMGNT7wyOC/V0lqKRgyd9tQOz1aBEFgFgHlhWRY3aqtjSImO48Zy4R/+uCvFNiBe9ZsCC/3CcbhpEFpd85i+XQRe+xiAY3sDlrlr9QM4sMtmqRMINhc0BT0W/cGFyvnGY5HCrzjO7WZPxSjWXgQx0ENguXogYSMuxCfAIgrMjtbeiVxyqnTcAuMA1Ee3+d0NQHAbbL009c6nBmBGgYH21gSB977Jgej7y6PxRi1Rk+AkX/jPENiruZv6RLZ+LOOXKI/4jprSsF1OK6+Qs7v5WjwMvf28MgBFAVi1e+0qgSDH4UYs56262fdwxUMMwLG9CQRuBiMwYhCc717V5ylGJANfW/YTGcP8cbRI2G8CI+HMdnJe/TtAKyugwAyG9vYlVDSEm/zEMP6S3wJ83zVB3RK5Nc7qnQT+p34cCG40WAVNKDA8vJlt/VtQaiw5iWwRAzDQ5mIkM5Z5PJpx/KJRS/QkuPTN5t8HulBvrj3teML05ZHNUTvwEVgJgBd4FDjM7O7MMc8JAcM//HFXSp0xUp0ePwoMgyAv5xRmswLNRQzAsf0yCMwgGGcLj5vbpj/ZBkJh/9/ThnnX2dVnPPYrjHHTQNrHIHe6fSBoXU0Oz3ywVpvHTcYFuzmwDkoHCJ4fvjzYDwpDZxodURk0OWz2oHtQCXA+7M1aWhHZIgdg1uYCgQgs83jeU6X8JHZFTIIrW3wNgPccCQmeJhOcNM8OHG6Ug73lhZwRHoCBbtbKtNDHX+nwj6aV6dxgFL4TW+nMVmahXIdbfbOinE8MwLH9QgjsTVbHxfzT/aFZMTJDuH1mQxpgVMzbzq5dxORQxkj4mz0xbyD++uNskICGLn+jWm3wizLOudxkLJ8KTjf0SkhFDUt+a5fhnvta2rptFWEdmhD9CbgtCwY40q1/OgS3nqQ1YLkdsQY9AgAus36UsI/itA7NpAb2ZNSSleMbHU86a0MSPB/R227e94CuLlRu2PszvNzQ3wLCgBfi7r3QGaoBsEeB0VSgxAqkeB877Rp6CUYNdO4wZcn0s1L1+eid59UOqSKwCH9jAI7t10Jgl4EpxkV95SS3VLdSRin94qzKpI1yyqpv5+ZWdIa+AewXOJiUMdCjL/mTbTb2Pfmyuzv5z6jlHh0sYqCEScKXkWmKWpYwmdriZns+M7E6+xuB3xsbOJkl0N8j4Cho62n+4iXr9qmH3aAHMS0Aa7VP2MXia7zjXKN/h+bPNxaz0PPxSPB/Inrbq2tQNRbCCYR9uaHayUw9iNEWEP81t9eNKULQxHXgigEYKN1JklEtdXbAucsIGETmW50nwCBPWwoL+RHvQBD0dBdcd6OdkXs6Is1FDMCx/XoI7CeD+3hmVrd3T3L725/NSspKDaz++Z+5ztyFrRdnfPQNpNUMf9f/JnWNO6L5iXQxxz75XjUWRuR88DFb5x1PCiZsBLLxLoCAI1GtFnIWN5tWKfNy8bRh/rixoZN5pGkROSHmb/Dw5uHWD00jPQpLDBavnt0E1YBFA8Ci6Vqcaxy/Q7cbi7BSHnltya9KEb3toPAfDeWGlqralnkQ4BYYu9Zz77SpABj4AmiEQGpqCmsHa3M/dP4gsoG940zypTt1/lUPXDJ9LBh7KgLBegvabOuzlFxdrLmIATi2N4jAwRhMYZV2psN4pljQ8ysrK7tzzMifbF2fZdjrkh8JRt8h/sqVfxhbOliPMwRB/YJGyMs+N88QSl6x2g9duyjMRXt56FowARf0zU64qGh395tmZRAZyKRLZRaL12eE9Je19f2HsKqjvSzsGcpwQ3/qfB5b3KiY252Lwkxg+DkSAPama4larQyvcfB4RncoL1TKMwHs16h6VSWFpXc+BB+apaQmw4PZT5SGHgSC8bdjatMBMJSGoe7J4ocgHQC5UANqB0sVWIIBg6wQiRO1xk63EXCPjNvlfjgWCjh0siNiAjQXMQDH9sYQ+FNW5pwexGtxgp0Efdy/vp5hdk3+zNgKSmCEpH6PJ+Jdly2/rJ44ohN+kKXWV046hJvXUxWzubSeO9q1Z7MYiTkgvQ7xiFN/coWoXDpBZWr2xUnuaolGBupL2w+dQSweCxt+uolTMZdIH9p9MYTTwARLDrDFK+bnpathIgBLPIrpAZgGoQNme3jXeEMfzxcrNXGHhO7RZYRvu4/ACFb8609bX6zSKEYOg69WqtQenqgHAYn9IfxVBmDIC6SXXBToANhSyXQ198htB+spEERfIetEzalC7mdXaf0fjGLVh73QLNRac4DN4l73bl7sE6WEmosYgGN7c9ZYdbDUUT0EYUaGEwyJKeclhtm/IunfQT6Qx3X59geNlriUZhghJ9xctyklz+tFB2M3AH69SRAB1+EXsAR0LPHi8ywyYOt6YRiLn1YFXvkgDIG7LxdfyUstHikAZ5p74ufz7PHk7Yk7JIxt7MjIBNQQGK5H8zwFu7v/xZovjSLmPhI/Fxymy1btj6NFoQfBwjwUf5NTA7B/h/lZ8rzfKyfJRaSF6tlTjxsLkXAAgSJAXzee5onr6D8YH31dXTgQbABy7YHighuiYPWP5YHg0o0BOLZfxWprel/ytJ5AYhXYHcPf1t8VKi/p+ZMIYOlehJySc2o+XUdBZc5ucSMwwpkKwkAWlUsgurq/uEQsnuHvznpgfpORHySRHPAX7w8Wl3wYEQAw8VHy4ulao2tUuEOUaeV/n4/2ZW+sFgV03YulZAv208bVF6o2nHSPWHKjvt3p2gXH9/DgKiw3z8NfdQDWjH3u9JRhjn3b9OoTXlQmLJQJ/BYgKQB1gwMcQKAVLLmDuPfn9ypv0QxtgZd97tNzDgkhCC7wwz5ooLhop0ra5LrJknVH8wEvnghCLx9QDMCxvS2rfrBduURwBOa3/1Obaga2UeCQ88SIkgc6Am72VGJoHguBIxl/BCPpxelvlIKXy08SUqrR4oxtKjzJKABYs+4DfZQQj4cs2LGiftlrmzp15oSulEsl/yyn8LnOtIbzBjEqN6yYze3cRtfWi1nyOiZEHgR9aDu/m/xYqSoAaxY4PcXrlfP0oWnOj/kLtCbwx8aFfg1RQlpJHuQAQn1w6Ft2rdNFy2OLLhgEBX3dY/gwMBj2YacU8Teu6lb5eSVGplRmio9JNZz0KMTYYvvLLPVtGSOFMPRURr4h5zS4/vfFJ7ml92Uz1QpEvN+SGlob1Dc7nBvS16XgRVqpHs4iAWBBiU/4W0Tek6/V6F/26n1e3CHVC2cMw/q7c3M3GzliN0xxaOuzDgFfH32RKC/hPq7PaxEBMJ2eAhZReZHzp419KkFgZqXq27mjC5EUQM6/AVrBerpxtugVWdQriLCs9rqnq0uMT6RADlZjoZDL6ysunILd7Rx+NAdVGFbzqtMdKj7Ge3GjnzhmwLG9cSs1Vx38iqf8uJSi8LWmfIXmfSFiBEZyjUBeBYFZNG22I6fvfV0EjgaAo/dRyLEvFZ5QN2t/J0j5jwY5BYJsVGtYnJ2dLTqe4pBFzwPlhizMA6VZwgCwJ4SAk9e0UL+QX1nxShO6K3niKIikAJL+jaAVrL8olR50h4tOZsWxm22d/uyrgaCgYsxPExQ934jaBV03y8sHYBcfbPb6MQDH9sbtfW3N7r86CWYeqbuTC8NrqhEjsAr+Ro0vDH+LX2XHGWaay6+HwNEAcDLaO8Ru0Cvhr6aVD2UCPoOI+ehM9xSHWCq5Qdjh6WVGixCAkyI/jOkdyF3rXzteaQKrCRSoIKT9m5qgG9tw0exw0Yk1aan7/9i7ltbGtSTswcaSYiL5ERl0LVl+dNsY2+POJht74ZCFCXSD3ffSFzIQSKZNbtOb25MEhtAwd0z3zCL7uw70alb5T974b8x5yPJLtnSOJLvd1LcLAddRqVRfVZ06p26OcoxZ6MZRMdZZDBob0ahIcNwPwPdmDl+okAEDvn8Y981M2EkwqR8dD3j6aiTCwDFxN/zr0j7LU3/OnjY8C9fxFoHfV7OGNgLKgDcf8eHh31JY/BuJFF6d5LwqVFiEx10WYWL2GhuMmYOA3SohVheAfTZhY6Dgvb5Ab2MTGISu9Dn2qm9YCdjLw9pineSOp5fsaFcKEDBgD1A4ryvh7gTjX89+epC5lie5b94xN4KxbEQjfgksAyfHU6oMTkD3W4UWHLpBAybgIGMUFKDEb2vh2fpPtbNyaAUfckHpcdeIBEzA3uaXeYgUBKb6vuZyCn+jUNLn+JhmzoA9lX02h0UCHbaWfAEEDNgPaNfhJcF070a87Ptoq8GbdzExGAePEqwHto+wdfJeDMRlYw2rb9nudyK+l5/drJ6ZUDNg+4hPQAqqhmrrBzfHm28J9RVmKrcPhUjgBMxwb12Q9X3XU/hudaZI+ijOToKFG19lH3IK7Pi1JAMBA/YEkn5eN0UhFLck0PT3dcLPAl/eN8UAkiyBL8GqflX8Z+B0G/xyyHq8Bt9Yxs1utOfrODYRQiVgcsTHr4aETed3AoRsFXyEwO1czBwPNZdqDh8BYwYWBd8fAL4/i6G+L79wP4W/iX9lPgKOFHyVfQQxNvlWKUSAgAF7RMHGza9xUYgFTsHksGKz7zer0ZED8pmjUwY0eRIs7c27se+6JSl+D4rs0mkGLnA+8iTbG6jjkAk4orXLY78EQRWUD9/YtetmadOgDr46vyCatw+623YKJwEjBma7t24NK6q9BoOi0tcqVw5s91nwEbCvcIOeAkujHwECBuwR5FoKuaVgKZg0S2bKpw9p/+trXfjcqKaNYF2uCx6KV/7qlnTG7XvObfDqV5OL/+lM+LfVlW6U4Ak48vKmKYr82wTWEOBPrwtbKfjUzsqZwNoeSDeQIMY/D1xti5+A8XEFxVcZmpxDYKwvGBwnEEiga/U5chIwCTd4Gi8t2eQUGBAwYL+Q+Hj2rrRwlt7/3i9OCyrRQJZXfXMp+iBBqxLOOeEu2fLVqIY9NOcpLOIH75tc+T/m39PqqicKgYAj8vlJ1oeGsOMs9xrbco/Rq7oqBkTBeC6WmGv2G+7RlQ8CtuswAvfHmGGvL/CcQJjrc+QlYBRv1xWOj50+Jb1sDwgYsG916CKl4EA2yMiFBhkFpQVyQMtLv6IunrMwJWR8NYKRuiWfxyaOJPe5wl9dLfCwm0BG8lQdNsPCIGASIfG28uH0t3Q8iG7P1mXtP0/K5plMHkMrfCC2dHnU0D24dl8EHCle/ZrjM0HBahBj/xSnJxAEBqYX3083mvkJGFkTe7hBn9KSDQQM2E8KxnfaxESB3y1NL60pmZ+6mhzg6qpvKAky+kx6s4J6668RTP/YKfMkTbQOf+klQdroj5qMRVOy432kRbZGwChCQmklc4Q03UA9rclbtfWCRcE+TF2w5mGWey1vpuWPgCPJWpvHBOm8RbcGsXXVl+tLhnNb5KaMWanHBwGzhhv2aYvpUwIBA/aRgvMPqZFipcGc1S78FU6QWzqtGIVgV5f+SDbvmKrk1EnGP3cNn9+edPALc9JEbzYs4fYcf9KlNG5U905vtCm3G0UOJ7ktAo4ktftmjrGCItAK7vHA2LqtYwpWuU2dXgclZrLNfiPh8eX6JOBIJH91oogsQY4wbcToPXDuvqRJ/4MnIiSi5ks9fggYhxvvPEumLR7zpy2AgAH7ScG6dl+nA0+FTdfOr/VKeKhMSRkdtfJyJGh7l6JXdXPzNLhVAqQ7dAHEAjJT0iRYPhrRb8XwrwfJ+MWr8GnKT8+kMhEwGay0jHHWK0UUGqmmdSuwwFAqOfZZH+BTKFqucdWZM3VW9sWTED51HxMMIh1U7F27zCaILYEGgD4aMZK1jofQb8r0l0dzrzJ9lB0vPS0LCeanO/Vu37pARzUsnLZIvlD9yAYAdgY9+rH9bBLHFHO/fn7uY8fp3kQsZcunAy0RjqnLxtWsSi54qRCWlKd+Qw9mNXbSFHONTSzuL5UR/QbDLsT5umdsVl3UbvhmIeCSrwwY/0iikRopGdHLUGa7VNJ7SOzEztHTy9GH1NTUPVr6zM7VUe+OqcjjpGKmDHhaOveQtwt29Gn6tUDj5inrElXZpZ6FfR6em7DWhhuCy2f+rleb/8rhHDBgX3Ng7EeN14iDs3Suits99Pbt9WRYSbnTfcwXwlueXHxoW1XytQuzFkTc+21XC4h+SdKk3XTKcTIUdq3Hns7UQdzf7N1Fg0vukHCrOOEsW7Azs7mU3ysBRyIHv5uqE5TLPkOWp2v3J3OU5qIh9cl7BTdMU4/TUYNuNynbIwtz6qiDokzWd+ugYibtUiu4n7eCDfaPvsf4u57/AFCuXj+TqMr57uVprImZPrlQvn5zqSw+rKmMoiwkuBDxbjL4cq9VXPjd5NXfFdOXbABgh5CRYxp2yiodbjabB7MMPGmdzm8rIfI9aQ+0oh6JhGroUgKzIJmAZrPw0pLI0JRS1nzqt6J6kKKRT4i2rk/KJDaxPbaT9FwWhyLFZMDCP7af1ZyzbJsbFlJ+ZwIWHAhYfl1ZgwbTU+g2pblq6HQQWHTkz9RTJyYebYfvDBOcLX1m6DnFfOohO+eIMh1VzKZdaVqiojGDw2pn9l/+NHxMBBAAzqKqVe3QSCoTxz0f8nL1evVhvzBqjWwTZGm8vSLZMnjTKYoz/MsGAHaYGyDHlDc+pDojU41j37RuPOhEzJTiilmutweP0cR2bLwQfRycPds+c7kIi52Peng7vDPwdykFrBhJNx5wbJJ1lk5CEXN01n3M68G/FRR9DNrOT44lx9VRb5HU1hDwOHNiLGsmKa+BxLhISmkoesuI6zX01Au3VMJm6sbjoH1xaCrOS7YMvZSLq3jdLYOwL4dhJf1qd5a345gh7vRdWvZf7gxbhh6UimhU5WB2U6ZvOZR6JIenZQ868417HG+vShZFEmQfoc/cKdjxKxsA2LVjQp4parQqqbOLw0NTVfB48oyNUjweV1Tz8LDe6Q/ODYt8pS0trVA0Wt32xYgsy14VcpHIRx4+d/pfjKieDG0Bibz2YXh2gpSSnZdOFIJCke65UdTDEl5IoCcnstH7mD13VjVH9f4XbSkGSr5QnQm4Huq5W0xplVT9+VBV561mRUPSd2PqBWTqd128ZGJSs7dKjCpLDP2sX3mk5LvzhaMvszFIXYwOyWfpZP/5AIsLNKpaNTtidYTpw9SHHqXhkTp7K8SQ0HPiIDsZAQB+XBLGqXA0qn2odFOpdt3GxW0qlepWvmjRKOLeXXwEko585mOl20917DW1U/0KCgaitPIWpleQ9Tzy2JVhKlW/sMR3Uv1upWaEqw6JPDmSfV7pp85mzz0kkuXlp5YHyg4IeBq9RbUvV/05q9mKhnxYOrYoFHEOUnNvtV4/SyHtYkPPWwVd6ftYbwEr+MPANoMV+w/8g1s2OyStFijTr486qeTOTHIXvxESZMPOLuBHJ2Fc0tETCfTFz4D+1O26jrSrheFlLaxJTm5jQfTnk8vSdXkL6pjKTuDIaEnysuD0m7gjAZc60e28HjmxAw3xrdha0k9yYdHSi7s1dBcFF+bMIFT7dzS7LdZ1seSoq8EDAD8iDUvs/9lmeLCTJTnLkXYm20ny6lkQntMv+6ihoC1dkvZltSGu1OGnd/exSUC+AADge8bL30rOBNxPgHIAAAAAAAirQGD8/C9HAlYGBVAPAAAAAAChEfBfJw5XGIhjtQKnMgAAAAAACAvJV+ok5nQPh/kIygEAAAAAICyk/5sdiw53+E1GBvSPAgAAAACwEXL+gJcs1/VghXwPBwAAAAAAe4+C9u/T33nn5Wr/dNoCFsa5NjRBAwAAAADgDHzrb7E2/NnMmFd8LVPyn4pzD5bS1UG/AAAAAACsSX4P7t5+y2bEcanOlwLnT0tOW8CxiXmeBPUCAAAAAOCU/Ka1P/8wc2QS24QzBa6VHSvQpAcLAAAAAADACuRi7ehvyl9EMnNcHGdOqhw/gu+hdBgjKYxLt9CDBQAAAADACnDjVRlPQEf0iwlTmCjXaY4E+Bv6Bact4OwQtoABAAAAAFiElK8N/6eS2rNosacoTJqvkkElwLGJeZcEPQMAAAAAMAf94O70WxYlvzFxLnmlRWjG08B335x2gFFCLT7BFjAAAAAAAPPQ/vGHWbKSX2Ghb+r91wM2BtZ+c2qBxmSe6xVB0wAAAPB/9u5mp40rDANwIizO2PzYsg0SsieDoQGhkAIbNnRBlEUUqZEaWpFFJKTmRxHqpk2CVEWpkkXaLnITVF3lgnoD3vg2OmOHUILH2EA21fNssGVmFmfz6vvmm3PgWLWe1HqDV5+nZugkByPFZvXPvu8Ap2HemXEUEgCccDdpF6J+uZlWxLujJHBlf68T+hXA2UtIcxYaAP6r9HP/vnHIauAsgYfsQlf2b2b5G/p2oOv2oQSAE6Z/SNohZ3SqMHwC5+dvKHQW16wzAJwU55TARwk81PxyMzd/03vbhQMATteu7xbbfWenel3o5PflK4OL4PTH+Pnj6NM7xKfuYgQLAE67drvRvwTuJnD0z+TL6oAITn+YX7uVdPLyN2pHh0awAOC0lZv9x5d7CRxqj+8tTxfz0vfK/PLzxwu59W96i/K2AhgATms+Kuc0obsJ3I6e/PXHcrMbwcViL4mLHz9UqsvPP5Sjdk6Adwvg1wpgAOhn7kY2h5VXwqZF8Jvyh3s/xdXKiasqzWtz73Yelt9En+2ideId4HayP22FAaCfu7lN6N6WHCFEjeT7+lercanUqlarrVKpFK//duth0oi6pxfmXmoEGgByTT9LBiVwFsHtqDZeTn6dfLtTr9d33k4+/HpmdiHqZvOg6zobrywvAOS4vvUk7zHwx1ZyVMhOCY6uLjTGx8cbV6++iTrZBh7RgKuy/T3KDgIGgHzLk7V2NCCBu3GahvCnh72hkG0hPeiK0G1Am8ACgAFePYgGNZM/hfCxs/43C/SNFSsLAANU1jfyNpM8l2wjy/bfSyagAeCMBB44Cn2e/E22PQAGgDM0D3Y7hShcVv6GdnkntqoAcJbWpSVwt/4t7xjAAoChEvhm/qbOI5G/ADC8ZncSK1x0FCu7RZLmb9GKAsAwKusb3a0lw0Xaz1n+7m17/gsAw1vbbESFCw1DZwm+cX/CUgLACFZuJ+dvQ3fL32j8l2/nLSQAjCR+tNcJ55yGDqEQOrv1VU9/AWBU1fUHjYGHDA4avgqN10vXrCEAjK6ysrVXyyI4jNh8DqG2992q7ScB4Hxa6zeSqBfBYcjecyiEsJC8eNXUfgaAcxfB8bPDcloFZ2cOnpnBvWOBo0byYikWvwBwEdNzB5vJQtQOg8/9/XhMcCca37uzFOs+A8BFNeMfb+/OZhkcCt0UDqcPB87Ctx3VGsnh07WW+AWACyumVXBr9eCbxXKjFnWyTnQhzeFCT/Y3ZBnciRrlxc36y9izXwC4xDJ47P39rc2pmdlGLY3h41eT0s+1hcbsTHJ4Z3stnqhYKQC4XPOtsbn9p1s3NqemkpkjydTU5outp0vv49a8JQKAL2O6OTEWl+KXS0dW0m9jE02PfQHgiykePd+tTB85/s3yAMCXjeFi7jcAAAAAAAAAAAAAAAAAAAAAAAAAAAAAAAAAAAAAAAAAAAAAAAAAAAAAAAAAAAAAAAAAAAAAAAAAAAAAAAAAAAAAAAAAAAAAAAAAAAAAAAAAAAAAAAAAAAAAAAAAAAAAAAAAAAAAAAAAAAAAAAAAAAAAAAAAAAAAAAAAAAAAAAAAAAAAAAAAAAAAAAAAAAAAAAAAAAAAAAAAAAAAAAAAAAAAAAAAAAAAAAAAAAAAAAAAAAAAAAAAAAAAAAAAAAAAAAAAAAAAAAAAAAAAAAAAAAAAAAAAAAAAAAAAAAAAAAAAAAAAAAAAAAAAAAAAAAAAAAAAAAAAAAAAAAAAAAAAAAAAAAAAAAAAAAAAAAAAAAAAAAAAAAAAAAAAAAAAAAAAAAAAAAD+V/4dAD4F+hH+Pex7AAAAAElFTkSuQmCC;clipPath=inset(20.1% 15.33% 12.37% 15.33%);" parent="1" vertex="1">
          <mxGeometry x="720" y="461" width="140" height="88.17" as="geometry" />
        </mxCell>
        <mxCell id="uI3OphNUKf_lqw-jZ9q1-29" value="" style="rounded=0;whiteSpace=wrap;html=1;fontSize=16;align=center;" parent="1" vertex="1">
          <mxGeometry x="520.4100000000001" y="800" width="120" height="80" as="geometry" />
        </mxCell>
        <mxCell id="uI3OphNUKf_lqw-jZ9q1-30" value="API" style="text;html=1;strokeColor=none;fillColor=none;align=center;verticalAlign=middle;whiteSpace=wrap;rounded=0;fontSize=16;" parent="1" vertex="1">
          <mxGeometry x="520" y="800" width="120" height="40" as="geometry" />
        </mxCell>
        <mxCell id="uI3OphNUKf_lqw-jZ9q1-32" value="" style="shape=image;verticalLabelPosition=bottom;labelBackgroundColor=default;verticalAlign=top;aspect=fixed;imageAspect=0;image=data:image/png,iVBORw0KGgoAAAANSUhEUgAAAO0AAADVCAMAAACMuod9AAAAmVBMVEVChfT///8+fORWkvQ+fOM/g/Q3gPQ6euRSieb7/P9dj+g1f/Q2eOMxduNBg/E4eePz9/4tdON8pOzh6/3p8f7u9P1CgOWzzPrZ5v1Ch/SVuPjP3/xQjvVGifT1+f60yvRvm+ptn/bL3PxelvWlw/mLsvh/qve80PWNru6rx/p0pPfE1/uRtvhlmvVWjOedvfhqmOmBp+wib+Kuk4qZAAAOZElEQVR4nNWdeWOiOhDAEQ1Iwa0WPOrZWlt7bNfu+/4f7oEIZkICOSbIzp/0vS2/TpLJnDg9MwkW89fntWNf1s+v80Vg+LaO0f8dL/th6BHSAi0hXhj2T/HNaONX4rUBSiF75NWEV582OG1aZs15Hw/661mbNnn2WkfNxXtO2qZdbG4Fm+JuFu3SLh7bX8RXIY+auHq08eaWsCnuRu+s0qLdft9uGefifW9bo13eGjbFXbZFu2jlOlEvhOhsXR3a59vDprjP7dAew1uTniU8tkG73dyaMxeyVj+o1GlP3VBtqtyTfdrE6cKuzYQ4yjdIZdq321ufQrw327SrDlifQoizsksbfHcHVsMKKdLOu3JE5RLubNJO111SbWaFxhZpO3BBhuKpWSEl2rgz1qeURyUrpET72TXVpsr9tEW76tYRlUuoYoUUaIN+59ZxKuTFDu1HF1WbKndug3baEd+nIgpWSJ72d/eOqFwUgjbStLeNqdaKfHhZmraD1qcQeV9Ilvarm0dULuEel3bbSetTCHmRTIRJ0h66u44zCT8waZPHW/M0yGaKSNuh8AxfvFc82kWXj6hcPKk0mBRtp8IzfJEL2sjQ7rq+jjPxvnBotx0Lz/CF9CVSBxK0nUkO1IuMFWqmjbvq+7Cybg7aNNN23voUImGFGmlX/wqsQ7xGX6iR9uVfOKJyabZCTbQdSw7US9hkhRpox//KEXWWxgR2A23nkgP1Eh5MaDuYHKiXhtRBPW2HwzN8abBCtbT7fw3WIaQ2dVBHu/2HrE8h9VaojrajyYF6qS2jqqFN2miOQBfSr0kd1NBqJAfqVn5bu6IugS2mjZVhH4/foYjJ2322tC8IEVshMa167WY47x1EjRXesjdvSb01qQMhrUZyIDsPFy98XrJOV0tLjRfiBLaIVis5cL7JnPgqPLtjH61U6JNvUepARHvQ2WXeuXxpxd29+eERP7exez1RAltAq5ccuOyY4MQpDywqBj5ayIwKy6gEtK96O2x9SVCs+lUVepejMhYf3GgiskJ8Wt3azTKoGywrSNf6iIP9ytBHfuqAT6vbOUC5ICv2cCbf5c9S9SIQ1b4I3wpxafU7B9bX03C7hCok5JqHC6yr1+NaIR7tWD85ENJhv1UfvgB9X08PZ6u8/AQ2j9YgOQCPBxjCI2B1cQ9uROGWUXFoE4O2WliZlkx+0T9cw5Ry/GJ19z5yInIcWqPkAAGH4R+f/hmbhgtONldz+FuG1iw8A6N+h5FLader/P5YcKvGEEKqVqhCa9g5QNmZjGY0oHBJv3Jy2Ny9pFrMW6GdG/opIbi0/fEH7vVnvERNxS7jiVcpo2JpjTsHYGPDMnIpXO6Fzp56yQt7ULG0J1MXFK6f1chNcQuaqysGQmULzq0aRTw2gc3Qxua/4pG2M8HMda/aJU6xlB9+QDhlaWk1swlshhYhOQDtzHtE45bVAvv/XLDiV30rvKwVgLR7hCUFkxP7iUvhlrHtre+Pnug/fLC0sntDaIUALU7nAEgrTrOlXOJe44FP9240A+rdv1iIWjGpA0CLkxyAqZiHiMYtI/m7TOejB1q9Yxu7FyawadopTu0mrHzf5bQX3PLETlw/fciqt4+uXrKmbzQ0LVLnAOMZ5Ev5YoiIUyzzn/vz0+iJPsLHr+g3Z1BGRdGiDXaAwxme7t1CHGplfUzyZ9EIHs5rbPXSCWyK9hPrz+oBz2A+cSncMoQSjy7P/MkDrd7tb+TdS9uIK+0X2h+VPNN7Jfb9Ajbbu8WJHdyVj6MZuFp94e5eeg5ISYvYOUAcYOWuWBlumbY4jcrHPjycp6+o6qWsUEmL2TkAoySnyKVwyxN7RT1mD+cv1N17DYgVtAlmYRT0DBY01sDtXx6P//jU83T3AturGb7nv05ZzFvQYv7r6Vahr1PBkMZy/WIb/aX/CtXd+4j3RmVA5UKL3DkAix/eAVZU/Or9yIUyATfn7Rva7iXhFNAidw7AYOpqQjPd/1xO7PGMoa2oF232XGH3ctodtju9AVEDHyzlQXFiP0UsrmvrcL6kDs60+J0DsLMO7tDy8nRkl7JbOZyPSIfzJTh4psXvHIBu9BdYytHD5XECdZ6LHwH1Jm8475afJBmtjc6BNU07BTvUHxRhyZ/qUq7u3qODod48gZ3R2ugcAOmvwsm9yKT0DDhL+fwfAMdoilJ7dI53OpY6B2AwdQewor+Xx7GA1o1cqF6Uwzk+01oZasc4uXCHDosTe8jZuLmM/tLqjRF2b+YLOZaaQq7B1HyH3gOU4sQ+THyRTODu3RmrNxs15uDeGa8CI9cf8FR+vzxeDO/EMjzRjmNivHtTt9vZWqpUZTwDsJT9YfE8qJUekJ3hzTndXI613lpQ4k/57pn8pzU01lS9Xux82Ko9hJ7BCV6nGno7RGJWGBoenVdb+UToGSyg1zcU8TSq10A53tKx1ze9oTO5W2hs7nVntQdz/d1LPh17gyw46a/rUpYc2cCR+FM75txv/k+0BXoGjJP7pE2bmjNdWpuNErDMIoC++0BuQAVfEt03cuw1xTNVHkNwTN0ZfEQj/vF/Nf96zgttLJ5SsCZ6AR0D9fm4hQRzN72GauG+OJYujpURuCdIqzpB9fpX+8n/IQ1c8uZYaydmEsXwMjXThT3MirNdHdc7ObEtWjiRYeHStKVboCjxHbVClHHDvWNtbiHMax5g9EJvIR9c4Dgq4hJn6phXSAn+bdCmEkAHd6BzIsc/wGQr46Y2wunFdkrRYKgmHoCF/CAiqpG5W43ZKeGGX1mkxs6pDGtNdkAtE/Xh+/ETN4algJtddlLa2MZgMGZIzhNYyDPV8ezBfMANxqrgZq1ZWYTVxuADWCM2BQtZ+ZKccHIoqrgk+w5LRmtj4jVMjcAcyEhxfvcHZ8cq45Lshc6ZEfwbBnHAqQuj5yOlhZxUjmIoAyncPMuX5/jQxwHAwAXMjEQ/KrC8o1gd93KNzWkxqjmBwKAUzHqpBKUER7HyYr58peOSrUYe48F4BCCj6bvyX/bZzZoUK4l7qVu60CbItM/gpWEw+U722y+JlGIzaVrMRfl/UWWyRF3LjEfATxRgKbYZt0xKFbQGvXs8WhCHYapM5DyCpqNYBbfsVSmrwzCtEGwKYiqIZlIewU50eRKKGPd607nWOSKGbGDD1wKq9m+vWeR3rIx2rzmaK+0ejxa6tkxSRGKmpsqOpYX/NpQ3RlXsohUkMF1HTIymMbRadyuu1y4Xlx5cQ9GiDQqDpfZxBDyCRtdWV7EiXI+6ldOV9li+EOzi/lDyCMYaO7YWF5yYNC3Wt+egawtjNFH9Qj5G2ooV4IJOSdAhg2OFoGvLxGhqPYLkwUSxXFz4MrDXC8UXgrm9HQw21i1kgx0rxIVDACEtyjdx4MR1xrUV521TxQrribRxmQGPTNcighWCrm0Ci/7Eya4jhmJZXNj7ZKMjFSa7jtC1FSW7puY7lofLDmZlu42NrVCdayv0CPAUC3ArnfMsrbEvBD2C7YB+C/8PdyEnD0rujjQuU4/HoTW2QtC13Uu4tsiKvYjDG1OKPQHCCcFCfm9MdiV/cY5iRrLJE9VB6NjTPUif/rcCUH7gzqojvY5DG4o9i1eN9nEmtxhF5GCyi4nRVFzb8UNkQ7Fn8YfVQwJ5Kg8zwGMJT2Q22XVsjBUbyITziSTexCUDK8QMZ4FVQ0yya4xpYysS8ZJNyNO0YEUYrKNhkl12juJCfJ93R+VOStNvhgJjMmPYEwJc26mdo/j6y7jGjj8FT9sK0T1euwHwbP17aiF/WVWsyz3+hbS6VogatVcJG/p35c/GlhWbqpY/rVMwvVLTF7rewneVIMQ12WVdsW4kyL6gTiZ1Nkmh2OrNd3I5Nmzv2DOt4AN9oqmzWlao8Dl4QYii3PzL3uXpCisKbIpotaxQ7trGXJcmOoddp+8T64p1fVcUIRFOi9bwhfJZCILo0mjVkmJF1qeWViMil7m2wgzOLNux9m7FtAyECWIxrXpELnVtd6Kbb+ra7q0fxbnUxDVrJvirW6G9+OY7OraxYzO5vxMj1dAq18g91imvJcWKrU8DrUaDuTsQvkQ7im2oGK2j1bBCNbhtSV3pWe0XczTmdt4aVxixbqbVicjdFtcf1uYQ67/9pNN3fUvYpvRww1fMdHyhG8LWWR8J2kSnDP92i3nUUFTY9PVBnRq5X7fCbexXaKLVa6u/Da5fa31kaDUjcjfBnTSWAjd/EVZv+McNYHnJAWVazW+OtE87au67kfiSs2a/UNuw0VNzuagErWa/0K92Yf1IoqRd5gvsmp1+7eJKFXnL0OrmhVrFleofk6HVr05oD1auEUWKVr9Gri1YyeEocrTaNXJtLeaJRI23NK1+jVw7uNzUtD6tfqV2G7hS1keB1mDkYwu44uSAJq1BdYJ93OZeBUVaoy/pWIaVH2gkTRsYDEK0q91IfuaNNK3RJESruKOa5IA2rVGltkVcWeujSJuY9AtZw5W2Poq0ZoOHbeFKWx9V2p5Rv5AtXNneZWVa/a+JWsMVFEZh0BqO47WAe682cU2NdmVWl46Pq2B91GlNJ/hg46oOM1KkNZ3gg42rOPJTkdZ49hYqrvLkQFXaselgNUTchtQ0Aq35ZyvwcGsbPnFozWcnYOFGDalpFFrzrlUkXI3Bgeq0CF2rKLg6o/Q0aLWqE9BxfbWZXNq0vYN5B7Y5bn1hFCKtsRVCwPX/cJtCLND29ggDL81w/UguOYBBi/JBISNcrXWsSxtgfKPIAHckkYfHo8UZJKeNO9GdEa9L27uhdic6Q2vNaHsfCCOLdHDvXc3PdhjR9hbP5t+PU8b1Rz/aI9ONaHvB8cUz3b5quNHo7mgw+t+INpX92yYMTVRMfkk2HPjRaDJ72JuwGtP2etvF/PfnS99AhjJy9/Q+X+hcn4D8D3rILl7MWLppAAAAAElFTkSuQmCC;" parent="1" vertex="1">
          <mxGeometry x="595" y="840" width="33.37" height="30" as="geometry" />
        </mxCell>
        <mxCell id="uI3OphNUKf_lqw-jZ9q1-17" value="" style="rounded=0;whiteSpace=wrap;html=1;fontSize=16;align=center;" parent="1" vertex="1">
          <mxGeometry x="520.4100000000001" y="640" width="120" height="80" as="geometry" />
        </mxCell>
        <mxCell id="uI3OphNUKf_lqw-jZ9q1-18" value="App" style="text;html=1;strokeColor=none;fillColor=none;align=center;verticalAlign=middle;whiteSpace=wrap;rounded=0;fontSize=16;" parent="1" vertex="1">
          <mxGeometry x="520" y="640" width="120" height="40" as="geometry" />
        </mxCell>
        <mxCell id="uI3OphNUKf_lqw-jZ9q1-26" value="" style="shape=image;verticalLabelPosition=bottom;labelBackgroundColor=default;verticalAlign=top;aspect=fixed;imageAspect=0;image=data:image/png,iVBORw0KGgoAAAANSUhEUgAAAR8AAACvCAMAAADzNCq+AAAA/1BMVEX///8zMzNon2M+hj0uLi4qKiprv0ddXV1yqWJxqGF1rWR2rmN3sGNtpV94sWJ4s2Jhm1wjIyN4tV9bmFV5eXlmn1t2t1t0uFdjY2OqqqpxulPw9fCyy7BVlE6rx6n4+vdvvE9IjEW/1L4MDAwfHx8AAAAYGBiCgoIxgTBXnkudnZ0LCwtYoknw8PBPT09WmU2/v79ubm49PT3MzMzZ2dl9q3mWlpbd6Nyzs7NGRkaXu5SIsYTS4dHm5ubU1NRYoEpZqEdzpW6Hs4GUuZGIvX6Crn+gxJZopVW20q7P4smgypHo8+WHw3C73bBeuzKk1JMtgCdHkD9UqECJwnxClzQEeaH1AAANUUlEQVR4nO2di1bbxhaGZcsmJD00chQnAUsWvmAgBMzNKNimwaWU5qRpoT3v/yxHmtGMNVdtySI2SP/q6iLYGo8/7fnntkcYxtPW1enR2bLrsMp6W68NXpwvuxarq7f1SqXWe3u47HqsqkI+lUq9d7HsiqyoMJ9KpdH/vOyqrKQIn0qlf1oatag5n0pp1BLF+JRGLRHDpzRqQRyf0KiPl12nVZLAp1LZ+WXZlVohSfjUT5ZdqRWShE/txbIrtUIq+ehV8tGr5KNXyUevko9eJR+9Sj56lXz0KvnoVfLRq+SjV8lHr5KPXiUfvUo+epV89Cr56FXy0avko1fJR6+Sj14lH71KPnqVfPQq+ei1XD7nm5+9H/ZhmbQwnwUShg5Peo3+YDN7ATF5v99ttHMpyTDOdndpKt2CfC4OeqdZ82Eueuizc8nr++Pup/VXtttdvCTj6sWgXh+8uML/WojP534DpeVdZajGcb1BPm/wIUsBMX19fffTq/X1ddud+YuVZBi7BzVUqYNd1PIX4PPLZT+6ICorhc6PBvFPPFgka+3bv+9+/g/i07Ts4aS1QFHGZp/yqKOWn5lPYB61ClsWWMy1SNnTi73/vn/zOuKzblkBoew2dHbaj1cqaPlXAh0gn8g84mWBq/GxJ96UrDb0fevdm9eUz4ZlNZtuM5sNXX0YcHet1h+IFYXw+dxoCFdBXeS4JlyLC+ilt6Gv77fexfi8fNkMATUz2dAFH9MqJfKhxsN/QYCLsMaToYCYvv25/f4dyycIoBBQc3iT0hEldzwjH9E8qBqNBBc5fKu/SYkFxOT9vba1xfOJAigk5IBLUt7xLHx442HVv9Sl4EuNhy8AmD37fW1tW+SzQQIotKEpkI7mjqflozKP+cXqFPzEa6MCTgBD8q/ba9vbUj5NCqg5HH2D4NHf8TR8dOZBVe99zHxtVECSDX37868Qj5RPGEAEUHM4TrSh+Th1UT5J5kHVqAlTDvC1uAC9Df3919qams9GjE+iDcHvWiKfjwN4GPJTjjTXImls6HtIR8enyQBqbqhtKN1dI5LyOa6kCkNmypHyWlyAwoa+bmM8Gj5MCwtD6FfFlAPQXUirJvIJ5rRpQdMpx9VR6mtxARIbCo1nLZFPkwW0EdiQ7I6DuguJBD5eNKdNKTxjON/JRAcVcMRVxKF00vBpBr+54xvZVQbjicTzOcsWhqiNGMaHzHgCG2N9fro3hPERAW3cs23sKvtd4/kc7izwBTeN7BcH/Rg7UrjpuNtwPgyg5h7bj+1mvOWhOD6fMzbTqKjsFwt8Jq7rwvjwgDbMPXbVY5Go5vhsLsCncpQ3n2sYH66FuYXh46bgMwdkPk0+tX5voCud43PrxgIogQ8DyE3Jp651pzR8an394EbLp3955h3qhtZ8/AxjAZTEx44BMlPxqfUutOPqFHwGL87PhVXJuDR8yCRLM8jn+PyK+HwC8rEpHzcNH7wOql3Gg/JpVND4hFvVZqTkEx8dKysj8BkOaQDB+FhR+ID50GVw9bweyKc+oLXfVLYRBR9+dqUY60v4BIT2gXxIBHXgfJh9GNW6EIgPuw6mnIHI+dQqwuz8QhZCUj5DPEgE87FNKB9+H0+xrgjh0z/i1lGDGaysqBMpn75kav5R8jE8n30MaB/Gx8UtrAPl0xD3gX+5lIQQgA/dzWtNbLLZdCy6UG3nXManviviMQwJXwUfdwvGBwHC4QPgU5M+FuFS8sZEPvQdbdeq2mSz6YQvqn8aNCMJn4Z0s1VypxR8hkMon6CJdaB85HdNBjKZD0bdtaxqKPcGTY75R8FgrzvNk89+ROgaxicIINeEtq/c+YztaiTLFfhQr8uTz5d9QgjIx7U7oZbExyJ8qrbH8ZkvQOfOBxG6hvHpuB2s1eITDRzz5vPbpwjQ/rCj3P9i46dDxK3/LJMPuwGWL58vESHz4any4TdQ8+aDCAWOAvMfysdcET4DfgM+Vz4Y0Jf9wHAfVp7PzZxPJ+Ij2fjMk8/1J0wI9djXq87HG9uYkFVFuyfHOzuSjfO8+QR6wEO+VedjGP4oGAJZNvnoQ9mO5yPwwXiCAALxMX88n0qFvDi13IQUiVz5XF/PwycIIBgf0wXxqdQlidyyLw/gU5snUyal0+bL51PwH8FjfgLyCUeJAD6VAb8oIV/5g8QPPKc75/i5vjbn2noP4mMGP0D4cGMTMZ8VzgdNsH44n3+u4+Fjmvuw+AkCCMaHGdteqJIOoOvP9T4kKXwhPuwbER8zLmD8BAHUgfGhyV3o6MRifGA53Tny+Tfg88DweQDyMeF8kA1p81lT7O8AbChnPiard+9hfDop+ATfqq99Oc3+aaIN5crnnweOjwnkY6bhk6CU+8sNvQ3lGz88HvMLkA/Qnx+BT4INgflIChb4CHiCFgbjk7y+8Xh8tDYk4bMjffOu+Dkcn+//k/DZh/G5ZxPsThbJj2I3Os4giXpqGxL41Hak+eOGIfYZHB9vb08WQBA+e1X2s4572fn0uHnIESjBRXXC7ZJ7nzCIn0vYpuYboje5F/kMk/ns3Qtn5i6yJiDWxEUKYPqq3IZYPpLU+vj35z5JNCrfEgkl8rm/lUwSM6QsV1SHbVUzEeFiiQ3F+SiOZihrLTPyrsk3suEbHR9zz1YcljtLn7Ye33hgy9LksMQJiQdtL2MvQv66RvyT5B1d+54j9LOGj2lqDluq806kimWsiAIesBNsiPLRGI+q1nI+hnfLNrKOev/rXpY5HyvpLTzzPfH2XhyAaA/Y4UHER288XK2JDSn4BDZkM4TuFHweRomHvcEHeAC3F3jOboe5CPFJNh5WkeEp+QQ2xPT1r2V8HizQKV3QOQzg7QWc0+T7v0uo8bBCNqThYxjjmA3diXzcIfiUd+I5nhS397P+uJ3Y/33og42H1Wa/saO9aa3RvJEJfB70xsNKfw4MduKTSndcs38pDIEOL7I+v8T7mHSYeeqSEBqyfJRHvlTS2JCw45kkpQ016j/8b9A5xIbifIaaI4NKKfJV05w4p5LS1o4OHk9j3MhcyqepNp7W1NdsRkkaRuY/9yWYfjBBXdKfVmvNEKGXrzCf4e8qBP7MDTp9zXYd3zBSGg8rxvSzPDsjP007QSPrID53SuNpTXC623y7VyKmfwY/qkCumOkPFitpcYU2tLG+fvdSaTxhJinJBqxq7IlOE3L4g57n+ORtmqHxY8m7ud+7u/tD9TLJJI0SKmzZhJ4I2VAduLuXoOPKoL8cWxbUcrpq48FNy5753YiQzoauTg4OcrOLs7MVf0BfEFoublZW2K95Y2JDeTzL7RmojSPGcskSYmsUEZplGCU9N02J8cQf2zatSn5ZRPmqUHH4oCqivDHu02VWQ3IDsSkVUvMYkfYgJLbsxR8p+RRFPUY91JF6UzFE+yjdUDkIMdIAi2VDgfEkT7WQWszYiGrabj9jW3IAY2Sq2Nia/MqbOX6rW32mtuQT44E9vC5+yi/6RbXld7stYwa8/mnJdyHGwyqa21sz9C+na0zGzoPhjR6pikuVBTMeVtHakIWuCrBMfMP1jNtHqeByNQ2/qA0xHlb+LARrhT/OwpM34cD65hl2+07wNe1M887wtBY6pjXxjMnUeECgnp0c8i1TqxteGUbMtB3y6bT8NDtoT0USPi3fj3XV0/YksCfbmk3aU+Z9lI8xQetEPpdx9jwk8ml1bJtM0712+EyOaBXasty4w8z5GO2Z40xuV33dL5MkfMIjapjP1J6feMSM3Hk/F+MT2PX0GXpzKB2fKZlLIEUHZ+nMi+HzbKXh4+Exjj0atx2nPR7hYHKJNxWeT/hSEC/0xcCMQl5klFx4PiM6QibCg8mISeH5IBhspzQJ3k1WNgrPxxX5TOd9W8kHTbC4Za/RaDQr4wfzmSB/vu0qGBSez5RsLAc9vCMmShWej3E7z3CxwinYxIkvoZZ8jAl9IFiVhNKYEin5BE1sZNOZBZmBEccu+aB/ddsjCz9ZMyLklv1XjA+S1/K77RuaTIbfXvLh1erOYmOiovNxxuOxsKuB5mQYXtH5oAVD/u0hFGtMfywyn9vQavg945IP5dMOUUy4t4ePmIvWPIrOx7erglF37XlQFZ2PMUKdVdUhM69W9xaNp6MFxMLzadH5aTDwwf9H48Ny/TBqVj47tYholevz1Ha8G9fi6NyW89P4+LnlzKKn9qMVjnGsvy/5YHn+tOu0206X2yItBh804GM6cfX8i1FrlDnz4ykJj3KsWAYQjA9OsXuOGT+c8CKqPaLO4gP4RCma2RKrnpY8kr5KcuzasT1AuWiKbzGyxOfJ4SGh+BRCqtZNNG60ChA9SPRwgT26wdFkq99McnsLddKJHE6JBsxq+ynsERUnlipmqbqlIh9x8tpRpqFl84s+5B3RbKOwR+S6k+C7z8aK2CiPWOpUHtFl5LcZDMpzu8WUf2PHT6yUjwhg1HJtvLIaxQo1nud4fiCL6Pwh9BrAud3iKXoqiWW3yUOA0hyfK4Do4wDI1GzZFVo5kUZWBZ7bLZ7wIo8VWxoqxcqZVauTFTOe/wPGHlr2L7nnEwAAAABJRU5ErkJggg==;" parent="1" vertex="1">
          <mxGeometry x="535" y="680" width="49.2" height="30" as="geometry" />
        </mxCell>
        <mxCell id="uI3OphNUKf_lqw-jZ9q1-27" value="" style="shape=image;verticalLabelPosition=bottom;labelBackgroundColor=default;verticalAlign=top;aspect=fixed;imageAspect=0;image=data:image/png,iVBORw0KGgoAAAANSUhEUgAAAO0AAADVCAMAAACMuod9AAAAmVBMVEVChfT///8+fORWkvQ+fOM/g/Q3gPQ6euRSieb7/P9dj+g1f/Q2eOMxduNBg/E4eePz9/4tdON8pOzh6/3p8f7u9P1CgOWzzPrZ5v1Ch/SVuPjP3/xQjvVGifT1+f60yvRvm+ptn/bL3PxelvWlw/mLsvh/qve80PWNru6rx/p0pPfE1/uRtvhlmvVWjOedvfhqmOmBp+wib+Kuk4qZAAAOZElEQVR4nNWdeWOiOhDAEQ1Iwa0WPOrZWlt7bNfu+/4f7oEIZkICOSbIzp/0vS2/TpLJnDg9MwkW89fntWNf1s+v80Vg+LaO0f8dL/th6BHSAi0hXhj2T/HNaONX4rUBSiF75NWEV582OG1aZs15Hw/661mbNnn2WkfNxXtO2qZdbG4Fm+JuFu3SLh7bX8RXIY+auHq08eaWsCnuRu+s0qLdft9uGefifW9bo13eGjbFXbZFu2jlOlEvhOhsXR3a59vDprjP7dAew1uTniU8tkG73dyaMxeyVj+o1GlP3VBtqtyTfdrE6cKuzYQ4yjdIZdq321ufQrw327SrDlifQoizsksbfHcHVsMKKdLOu3JE5RLubNJO111SbWaFxhZpO3BBhuKpWSEl2rgz1qeURyUrpET72TXVpsr9tEW76tYRlUuoYoUUaIN+59ZxKuTFDu1HF1WbKndug3baEd+nIgpWSJ72d/eOqFwUgjbStLeNqdaKfHhZmraD1qcQeV9Ilvarm0dULuEel3bbSetTCHmRTIRJ0h66u44zCT8waZPHW/M0yGaKSNuh8AxfvFc82kWXj6hcPKk0mBRtp8IzfJEL2sjQ7rq+jjPxvnBotx0Lz/CF9CVSBxK0nUkO1IuMFWqmjbvq+7Cybg7aNNN23voUImGFGmlX/wqsQ7xGX6iR9uVfOKJyabZCTbQdSw7US9hkhRpox//KEXWWxgR2A23nkgP1Eh5MaDuYHKiXhtRBPW2HwzN8abBCtbT7fw3WIaQ2dVBHu/2HrE8h9VaojrajyYF6qS2jqqFN2miOQBfSr0kd1NBqJAfqVn5bu6IugS2mjZVhH4/foYjJ2322tC8IEVshMa167WY47x1EjRXesjdvSb01qQMhrUZyIDsPFy98XrJOV0tLjRfiBLaIVis5cL7JnPgqPLtjH61U6JNvUepARHvQ2WXeuXxpxd29+eERP7exez1RAltAq5ccuOyY4MQpDywqBj5ayIwKy6gEtK96O2x9SVCs+lUVepejMhYf3GgiskJ8Wt3azTKoGywrSNf6iIP9ytBHfuqAT6vbOUC5ICv2cCbf5c9S9SIQ1b4I3wpxafU7B9bX03C7hCok5JqHC6yr1+NaIR7tWD85ENJhv1UfvgB9X08PZ6u8/AQ2j9YgOQCPBxjCI2B1cQ9uROGWUXFoE4O2WliZlkx+0T9cw5Ry/GJ19z5yInIcWqPkAAGH4R+f/hmbhgtONldz+FuG1iw8A6N+h5FLader/P5YcKvGEEKqVqhCa9g5QNmZjGY0oHBJv3Jy2Ny9pFrMW6GdG/opIbi0/fEH7vVnvERNxS7jiVcpo2JpjTsHYGPDMnIpXO6Fzp56yQt7ULG0J1MXFK6f1chNcQuaqysGQmULzq0aRTw2gc3Qxua/4pG2M8HMda/aJU6xlB9+QDhlaWk1swlshhYhOQDtzHtE45bVAvv/XLDiV30rvKwVgLR7hCUFkxP7iUvhlrHtre+Pnug/fLC0sntDaIUALU7nAEgrTrOlXOJe44FP9240A+rdv1iIWjGpA0CLkxyAqZiHiMYtI/m7TOejB1q9Yxu7FyawadopTu0mrHzf5bQX3PLETlw/fciqt4+uXrKmbzQ0LVLnAOMZ5Ev5YoiIUyzzn/vz0+iJPsLHr+g3Z1BGRdGiDXaAwxme7t1CHGplfUzyZ9EIHs5rbPXSCWyK9hPrz+oBz2A+cSncMoQSjy7P/MkDrd7tb+TdS9uIK+0X2h+VPNN7Jfb9Ajbbu8WJHdyVj6MZuFp94e5eeg5ISYvYOUAcYOWuWBlumbY4jcrHPjycp6+o6qWsUEmL2TkAoySnyKVwyxN7RT1mD+cv1N17DYgVtAlmYRT0DBY01sDtXx6P//jU83T3AturGb7nv05ZzFvQYv7r6Vahr1PBkMZy/WIb/aX/CtXd+4j3RmVA5UKL3DkAix/eAVZU/Or9yIUyATfn7Rva7iXhFNAidw7AYOpqQjPd/1xO7PGMoa2oF232XGH3ctodtju9AVEDHyzlQXFiP0UsrmvrcL6kDs60+J0DsLMO7tDy8nRkl7JbOZyPSIfzJTh4psXvHIBu9BdYytHD5XECdZ6LHwH1Jm8475afJBmtjc6BNU07BTvUHxRhyZ/qUq7u3qODod48gZ3R2ugcAOmvwsm9yKT0DDhL+fwfAMdoilJ7dI53OpY6B2AwdQewor+Xx7GA1o1cqF6Uwzk+01oZasc4uXCHDosTe8jZuLmM/tLqjRF2b+YLOZaaQq7B1HyH3gOU4sQ+THyRTODu3RmrNxs15uDeGa8CI9cf8FR+vzxeDO/EMjzRjmNivHtTt9vZWqpUZTwDsJT9YfE8qJUekJ3hzTndXI613lpQ4k/57pn8pzU01lS9Xux82Ko9hJ7BCV6nGno7RGJWGBoenVdb+UToGSyg1zcU8TSq10A53tKx1ze9oTO5W2hs7nVntQdz/d1LPh17gyw46a/rUpYc2cCR+FM75txv/k+0BXoGjJP7pE2bmjNdWpuNErDMIoC++0BuQAVfEt03cuw1xTNVHkNwTN0ZfEQj/vF/Nf96zgttLJ5SsCZ6AR0D9fm4hQRzN72GauG+OJYujpURuCdIqzpB9fpX+8n/IQ1c8uZYaydmEsXwMjXThT3MirNdHdc7ObEtWjiRYeHStKVboCjxHbVClHHDvWNtbiHMax5g9EJvIR9c4Dgq4hJn6phXSAn+bdCmEkAHd6BzIsc/wGQr46Y2wunFdkrRYKgmHoCF/CAiqpG5W43ZKeGGX1mkxs6pDGtNdkAtE/Xh+/ETN4algJtddlLa2MZgMGZIzhNYyDPV8ezBfMANxqrgZq1ZWYTVxuADWCM2BQtZ+ZKccHIoqrgk+w5LRmtj4jVMjcAcyEhxfvcHZ8cq45Lshc6ZEfwbBnHAqQuj5yOlhZxUjmIoAyncPMuX5/jQxwHAwAXMjEQ/KrC8o1gd93KNzWkxqjmBwKAUzHqpBKUER7HyYr58peOSrUYe48F4BCCj6bvyX/bZzZoUK4l7qVu60CbItM/gpWEw+U722y+JlGIzaVrMRfl/UWWyRF3LjEfATxRgKbYZt0xKFbQGvXs8WhCHYapM5DyCpqNYBbfsVSmrwzCtEGwKYiqIZlIewU50eRKKGPd607nWOSKGbGDD1wKq9m+vWeR3rIx2rzmaK+0ejxa6tkxSRGKmpsqOpYX/NpQ3RlXsohUkMF1HTIymMbRadyuu1y4Xlx5cQ9GiDQqDpfZxBDyCRtdWV7EiXI+6ldOV9li+EOzi/lDyCMYaO7YWF5yYNC3Wt+egawtjNFH9Qj5G2ooV4IJOSdAhg2OFoGvLxGhqPYLkwUSxXFz4MrDXC8UXgrm9HQw21i1kgx0rxIVDACEtyjdx4MR1xrUV521TxQrribRxmQGPTNcighWCrm0Ci/7Eya4jhmJZXNj7ZKMjFSa7jtC1FSW7puY7lofLDmZlu42NrVCdayv0CPAUC3ArnfMsrbEvBD2C7YB+C/8PdyEnD0rujjQuU4/HoTW2QtC13Uu4tsiKvYjDG1OKPQHCCcFCfm9MdiV/cY5iRrLJE9VB6NjTPUif/rcCUH7gzqojvY5DG4o9i1eN9nEmtxhF5GCyi4nRVFzb8UNkQ7Fn8YfVQwJ5Kg8zwGMJT2Q22XVsjBUbyITziSTexCUDK8QMZ4FVQ0yya4xpYysS8ZJNyNO0YEUYrKNhkl12juJCfJ93R+VOStNvhgJjMmPYEwJc26mdo/j6y7jGjj8FT9sK0T1euwHwbP17aiF/WVWsyz3+hbS6VogatVcJG/p35c/GlhWbqpY/rVMwvVLTF7rewneVIMQ12WVdsW4kyL6gTiZ1Nkmh2OrNd3I5Nmzv2DOt4AN9oqmzWlao8Dl4QYii3PzL3uXpCisKbIpotaxQ7trGXJcmOoddp+8T64p1fVcUIRFOi9bwhfJZCILo0mjVkmJF1qeWViMil7m2wgzOLNux9m7FtAyECWIxrXpELnVtd6Kbb+ra7q0fxbnUxDVrJvirW6G9+OY7OraxYzO5vxMj1dAq18g91imvJcWKrU8DrUaDuTsQvkQ7im2oGK2j1bBCNbhtSV3pWe0XczTmdt4aVxixbqbVicjdFtcf1uYQ67/9pNN3fUvYpvRww1fMdHyhG8LWWR8J2kSnDP92i3nUUFTY9PVBnRq5X7fCbexXaKLVa6u/Da5fa31kaDUjcjfBnTSWAjd/EVZv+McNYHnJAWVazW+OtE87au67kfiSs2a/UNuw0VNzuagErWa/0K92Yf1IoqRd5gvsmp1+7eJKFXnL0OrmhVrFleofk6HVr05oD1auEUWKVr9Gri1YyeEocrTaNXJtLeaJRI23NK1+jVw7uNzUtD6tfqV2G7hS1keB1mDkYwu44uSAJq1BdYJ93OZeBUVaoy/pWIaVH2gkTRsYDEK0q91IfuaNNK3RJESruKOa5IA2rVGltkVcWeujSJuY9AtZw5W2Poq0ZoOHbeFKWx9V2p5Rv5AtXNneZWVa/a+JWsMVFEZh0BqO47WAe682cU2NdmVWl46Pq2B91GlNJ/hg46oOM1KkNZ3gg42rOPJTkdZ49hYqrvLkQFXaselgNUTchtQ0Aq35ZyvwcGsbPnFozWcnYOFGDalpFFrzrlUkXI3Bgeq0CF2rKLg6o/Q0aLWqE9BxfbWZXNq0vYN5B7Y5bn1hFCKtsRVCwPX/cJtCLND29ggDL81w/UguOYBBi/JBISNcrXWsSxtgfKPIAHckkYfHo8UZJKeNO9GdEa9L27uhdic6Q2vNaHsfCCOLdHDvXc3PdhjR9hbP5t+PU8b1Rz/aI9ONaHvB8cUz3b5quNHo7mgw+t+INpX92yYMTVRMfkk2HPjRaDJ72JuwGtP2etvF/PfnS99AhjJy9/Q+X+hcn4D8D3rILl7MWLppAAAAAElFTkSuQmCC;" parent="1" vertex="1">
          <mxGeometry x="595" y="680" width="33.37" height="30" as="geometry" />
        </mxCell>
        <mxCell id="uI3OphNUKf_lqw-jZ9q1-33" value="" style="shape=image;verticalLabelPosition=bottom;labelBackgroundColor=default;verticalAlign=top;aspect=fixed;imageAspect=0;image=data:image/png,iVBORw0KGgoAAAANSUhEUgAAAT4AAACfCAMAAABX0UX9AAAAYFBMVEX///8ArNcAp9UAqtYApdRMu97J6PTT7PW24PCl2OyMzucApNT5/f6S0un0+/3i8/nr9/uu3e7a7/drxOJcv+DC5fI2tdua1erM6fRzx+N/y+Xf8fhBuNy64fBWvd8nstqGb88HAAAKiUlEQVR4nO2d65aiMAyAh7YqMHJTLooo7/+WC6gzwJQmLY265/T7tWd3pTRNmzZJw9eXw+FwOBwOh8PhcDgcDofD4XA4HA6Hwy5xmiZJksbvfo//jKQI6lvLBXsgvOZYFcm7X+s/IMnqphMY7/DGcN79bR5QiXCf7Ao/C4IqCLLr9vJf6nvsHzshTcU2lSFjbXiw2ub+4EfHkj/1/P6HTu3bc3DaW22JljRohEp0v1rYBraavNbloOnydhgro52lpojxN4KBovvVwXD97NrWrZBLbtyU4PXHSzCtGVp2TwnWa2bW3s8XlE7WVBt88iy+5ALXkVmvKtMGi1y5wEqasqHtNFxuJsLrYZ7JtIojriW7hwRFaL3nFoiPpsIb+nTWbS8xbo+zjEIAq4hWCG/oE9dSwIOxpvew8rP27YdW02BI5CcidHOp0Ro7RhgvtwTUa3szwG7I5kILzbHyU0xIsl717vAW06WtZ6U5zgpyyWDIhI3e3LvEU7C5NRZqykeY4LMl1RsA5bfzbAnP01gtyNg3NqXXy085f6tvi9LrWitfJSc5qU1luPeoVTSX2x2rvrV3HuIutrvT92iz1Frc2h6rrjXvffLbGZyZYFgtb+2CdAzoodR2Unb2TO4EId1R7KxZ3CnvWv+opNfpn2RC0bXG89fLjmbde3bo74aCTnrdaL3hAJeSrHvPDl1nrR0Iped53y/3Qu+t71jGcG/aGulY9ZvNV4uvJO2Pxybel5jE5o7gx9dK70jcH4+NDx8E+70ZcmNPRUBnNh7w0eYvJ5fen9WCFNqF/I74Ub+KfKy8+WpBipbZ4D9Rf82Y2NObdNIcK/5ocZ4aAsAwrsZ4Z8YkNKAxmZgow+theLP9pYhQyQfPn973zrFmHFKU5yi7Fn5WnUs4dj76KcL5txPMCDE+2GTYycRFk83GdO+jQzyPcFiDFwATt2CaNXMKOXrmy446s5c33QCwkRMzRU4mLs4X2Utg8xC+B/FhF75O745S61k0SIXn4NnD1ISxcSIPUh3EcdlvHID5KIw1Q5sJbqyU2RcnbCgGkB561s1frhk/BNUhVko17weFh78XXXR6/L8S9YLMmx/yZsOFUkAgdJTeVx0OM1/6Rnq0xwwBh6Oo0lHoWhZltP3VI9T+kjMwyy3B7BUAz0tQNs2m43bL8+Odc0/dEfZEPVVHEATZgO/71+t1PC1qzHu0iBh+8S0RXbidTMEYo+lsg9lyYJYcQe54xqxFDHeAHOnfXXTFn7fHHA0FMsFyAz+L+VqyMOAGvwQ61yJkT9G1dSHTIMThhjO0rwl2cpD7TREdEvjspW5LsSi64d/BxjwPDqs/QZyVGPphZsAzQOhMgDC6KtatE2g3gKDwjAs49nhVNgJWPpt+b1j5GF73eiJoPLitRHU54FLOtJMcl9mByid0lQXyG9IufvBxzWbMFDwiwdu9OQUwIr9ev3RrhdO49QjskN5kUgKOlSQcBwJZ36eTMfs2c63MmcSggP4YqIMCeKwM0huvgPqxu7ogT9owY1O+hVTfaroDKD2j9G7gqY+HtloyUkhkvJZChoNtbYjtAbRrMRwr4MzJhy1/aCs6MBli6KHLuSLx1dfkChkOw7ECRoX3O4edrRxC/j2yBZDZWvb3BAY+bmiLYZrXA4ivn23V4FixwdgWQHq/6G0MCOJyf7I4sAB78QZ+giHAkZEveQpQHkJNzLMq1EpAl+yXQHN3yb2M8RDqsjhWIOqtC120HPD0LzaMcnnqIozvVEFHQdPnQpyBubuQUUujfOZzDJhEZKlWwHlnaS2PKTIszOfuV/om8UFL38J0olC+NX65N4kPSsVdcNRSmN1VXmHIApo/WQmwaV7axoIHfyNW7M7UpkNrUT0EasZTBIi4LqVnkijfoplC4KvfSGNgCsipNdao0Mjw0qRRrnGMqaeDjrsZijxNNApwtyzk19Dkjxuf2L4gHzbHBxtAzZhkvAEBXrlCQN5JQ9bcY1YPKH5HJLGJjwyX5x8n3irgqC0XH1H6/QrHIrBvwecZhM+V7+FN6sXWdpTNTybMOHIB7Zpl4oNjZWas0D7AcuA3lPs0jeN9B+6/AzE+qfgQGR1GrFj7gCVcUJWHAMQnWzSsBVzmrLC8UAhghYSUAJNXZrJIzmtDY8b7PmjzTxYm3wBdkuw36S6zLN43hwCWEzi9mahhyTF0T3d3xvTMCy0ndClCgLvPE3/raNJdBjLtJhhqXSmkZYBDm0zvs28ghdpYfIb+PijvwyTtAwl0RpG5XC5VqMLctBh6m8EFiK4uHRTl9YT6JoKEFRcljWYv3AWLGU4zwNRMjdP2HTBZUdWYwQ5jD44WXZAXYUc1s9NO39ADVRgoCphYTFpTErzRrXehfWUISV/94Lwf+E7gCuA7FuIEP+WHtc4YXa8LfJeMtp5BAF+L0CgHtbpqnWY+wBVxo8JuBfgZCO8Tft8Urj+RaE3fK2KhJTQcPZjrWMizvJX8Q407EBXm3W0md0rAbNMYqpwlYuZiVkb0DZwjYrTIC6mhbgMjqlfvNwjpAV7hR2Mo+SWoKjDUyodMlWIbwH6cEGddFuH8DZjiy7hy3Ms1F62BuaHXB5lUkYj9GdGbPvkRd6JjkP3AFik2z3hDg7zLz9lt8V0qlJulj2WAB9RHY55q0h022DIQK/IW0OALkBxlR/o0wpXQuO9/kNvqbrCWfBU7dM2T11RQw3uYOGtn37Y5VA22M/dwFzq5iIuNJPIWZy2+4o6gthsD2AouQ6f6+/XHsAqyLIjOpUYBpkeoWiepl7FbsPs1WfGp0ilXpO8sMkTTQ/csyqHlV/45TUDhgemvGBO8yc/1OW/UX+iS/PZV1dPIIrejvvxsX3V0/fljoxAA7WF3DHnVw3GSL1mceNYi7RXyMSSJ3mPEyArQJPbOeWndTeJShFOfg2nRKB1eXPSatIzo/OiEq2C1qsUXl6yntB5/vB4G1kOzRZvlA1DQTV9JVRbq6cteZnR/QBSDMkL6oRjaornalUwsQFQvnMvvJdkqKyBDK7ZlDehijhEL0vtK6QqGv0d6+qWAMSx+4omqRrRG7TXbzEsXru+LohIaxWD1K612To49fLvy46Vq97WlUHbUB/XIsKp/Ajg3nax/Zke85QMx4y5Z+4IGok7swfK34D7g+56JJZPIMV82Tm2eFbn3+s3yX+LSSq4AchrlthZADi0VL+O8ukucoy8IBXYWQKYMzb2WYt0C2CmChr/jYuEzth/2XfL4Zi5AzlrNbX+40txzVR3991Dgv+gwE56nnwublKu+Hr/5BJMxJzJQwE54ZhGGq2eo7lzc3nZIU7OvNbvEWWl+pTQzECBn7EyfxGJMrPFRlr4r6/TA18gf8IaAfRt8ymfcl8gaAe+j+6h5vqKOw5PdGRsJ51zw+kNn7ZS0Un5aqRedV//9KoIh1xzOXuhbDP8L2d1J/bMn5p/4uqdqiLL2Le8airoVS58TG7JD8uCDF7wF4lNQ5yV/lisVvL3VVUHkXIuL6tiKIY2mF+PzQzeCb+rsjf48C8RxmqTpS5bsZJtV9TFvmmMdBf728Gl7Y4fD4XA4HA6Hw+FwOBwOh8PhcDgcjtfxD4dFmUAqF4XeAAAAAElFTkSuQmCC;" parent="1" vertex="1">
          <mxGeometry x="531.01" y="841" width="58" height="29" as="geometry" />
        </mxCell>
        <mxCell id="xoEMEb9Q6lRqkHzQhWVF-2" value="" style="endArrow=block;html=1;rounded=0;exitX=1;exitY=0.75;exitDx=0;exitDy=0;entryX=0;entryY=0.5;entryDx=0;entryDy=0;endFill=0;edgeStyle=elbowEdgeStyle;" edge="1" parent="1" source="xoEMEb9Q6lRqkHzQhWVF-9" target="uI3OphNUKf_lqw-jZ9q1-30">
          <mxGeometry width="50" height="50" relative="1" as="geometry">
            <mxPoint x="750" y="780" as="sourcePoint" />
            <mxPoint x="800" y="730" as="targetPoint" />
            <Array as="points">
              <mxPoint x="440" y="770" />
            </Array>
          </mxGeometry>
        </mxCell>
        <mxCell id="xoEMEb9Q6lRqkHzQhWVF-3" value="" style="rounded=0;whiteSpace=wrap;html=1;fontSize=16;align=center;" vertex="1" parent="1">
          <mxGeometry x="520.4100000000001" y="480" width="120" height="80" as="geometry" />
        </mxCell>
        <mxCell id="xoEMEb9Q6lRqkHzQhWVF-4" value="&lt;font style=&quot;font-size: 16px;&quot;&gt;provar-assets&lt;/font&gt;" style="text;html=1;strokeColor=none;fillColor=none;align=center;verticalAlign=middle;whiteSpace=wrap;rounded=0;fontSize=16;" vertex="1" parent="1">
          <mxGeometry x="519.6000000000001" y="480" width="120" height="40" as="geometry" />
        </mxCell>
        <mxCell id="xoEMEb9Q6lRqkHzQhWVF-5" value="" style="shape=image;verticalLabelPosition=bottom;labelBackgroundColor=default;verticalAlign=top;aspect=fixed;imageAspect=0;image=data:image/png,iVBORw0KGgoAAAANSUhEUgAAAOEAAADhCAMAAAAJbSJIAAAArlBMVEX///9Eh/pEhfRAe95FhO1AfOJEh/lEhvdEh/tFhPBEhfJEg+uArfi/1PiArPVDgOgxdOA7eeHw9f260Po1euhTj/lKivmux/vG2Pmiv/7o8P1ynutzofNJguNSh+Pf6v02fvT1+f7S4Ps4gfqLsvdalPfZ5vxgl/Wkw/lLi/ZpnflblfkrfPp6pvaUt/ajwPxmluscceyzyvctd+s2e+lpm+2duvCnxvtckOclbdpVV+1uAAAQuUlEQVR4nO1dDXvaoBYuzgDWtlbth7MfatW6urX2rt3t7v//Yzd8HDhJiCaBGPc8nrkNCSG8nJf3AIl6cnK0ox3taEc72tGOdrSj/eM2mzx9vZ3Va29fT5NZU/CGZ8uX+ZzXa/P5y/Js2ATI8ebnTYyO1G8xypvrzXjP+Aa3rf3AMyDp7WCfACf3ZH/wNEhyP9kfwOf1fM/4hM3Xz/sCOPrZBMAY4s/RfgA+/9w3Q8H4z714cfbajAeFze/3EDVmm6Y8KIxv6kd4ft0owuVT7QgXzXFUQnyrG+DoV6MACflVs56O101yVBhf1zt/+7ppHOHNV50AJ8umAYqgWOfs7a1ZmVE2r1FsRo1zVBi/qU1sBg3OZrDNX+taSA0PwoXCicN6AI5fDwNgDPG1nohxEDKjrB6xeW4aFjJO6lhGHZAL63Hi6OVQRqEw/hI8YozPmgaVsrPQYjNkh+RCMRIDR4xx67AAxhBbYZ3445BkRtn8R0iAk9WhuTB24irgGiM9IaXyJf8mMglh4i+FN1Rl4LMoM+cxe9ScYeukiTrN9eI6TZFFuOnpKLX7RGOLL8zg8kzm4RIsgU2fBGVsyh6CHAbvU3Waa9lMfh0uYqynibajTkZdTTRmyuxxnWZJb5O0+xOGvZQ5ps9W//N1KIBfhqOUoesYkGlvOVqYJbUGg5mY6AiTZrhw0uaBNjQmubtPGWi5+QzYxdJ8zqskr25sfB1GbAptcjt62tlGlzMzI5alEs4ekxC/hwA4SkYKmrykpah7/Bgh3Dr2dh5lMN6TxfgqhNhYmZH0ApVEWge008el0mIqan7qXKWKTNeEztX6LHNMDYwYPzIluQy7dB5AbEY2FIrmUa66UsU6CvGPURAhqnuaMpWpgwqjwE/1VzWWqgipAVP9R9dMda+oegxDoITCOfd24uSeq/5nzDiQMhsJkLoyTVTZqATzTDSh6nRiSthmm8bT1PADauq+oKiA4Kn3ve9bu/tkOMlMFyrWJRlJqRFMy1iVaY6qLPkPS1BXZDJTD7xlaJLAkhfl1DNiwCa39o+Zc1GYQplOZQwNEQZ+pJrbsow9Ew4xYnzCKPa4nvmhiZ5yPhWLOHtW/OJLPyfeT4ngpx4/qmFUjxFMLWvM6p7mKzVldNPkYDbzUxi4spu4ZLIZyeZMCmfDtImaMT2/9wH4LC5piElA7uQbDnrIgXtMZUNYF0pCoZisghNzuvSFnd8iD1LDYc6AuolZK3Qk0brAPHalBou57VK8LFCDXrvRdLUmIAO8xm8QFHV/MU0EbkRE85CZCUNCqUwZRrXmMR1/5LXmHmuM4QsXQ4gj/aRa0BAPgTloqg1NN/GeweBEc1GiGYlyNH5m69RdyRmqlZjLSfPYAh+vuZY74KiZmxHtKatsjNiSRj+51kmYJhjZtPkElh8Uonn6cobAhrR26iFT1W+avnGipUJpg3ILZ5a3pjvR5IZaPHoyYCRV+00MXThbTVQY45rltmamA7v2vOk9VYTh61a9uT+OQyGzwwuEkeqmK8dRKKFk0DSSwntBcvGHCqEX6kHRUaAiMXWLYoxqKPIUbmqWb80lpFbJARTztNITGrNYZpROcil6Kg0kiXMVTNV2iOx6qibbCREfxFaWpEosuOK5KsRhdIv8uLApz2ECQBVObstAq2Q+mW+qPEn0dM2VSHBNIdPvoq0yxBuf4ENyAHGqtVNPPqHnkeqqrmBQvzpLOVDXptKiJLAAyqi3miwis8pjNuPVlED71MVUdSYsGK2wVyIw1QBaUiCwesukS9RbCxvqpxziDsxjZB7Fl1S6Tiw2XX66Ki82t1KoWIIY+q1iCMRrE7i5LmxyOLGMkodgbsBsTEf1s2QOMFB3D7HMTDRGnUvobXkXcugs5QrEE8UrbiXGekYWBmGEwsZXLOU37God71COPqr9a66LSGHridfCJZ0428yh6cQkctqXkFAzhNJ0UjwHunJ9mjoFIcE5XEmxllPEZ9tl3FC4rNjEMmMFUDMny6tUAapHjTmaoBOmq1RRTLy4TKISNCKMVqevi7RdOLHcs6ezV44F0M0rU4Ajz1CCj2I66bQ9kWDiUds3NvpT9EYRNXU5I+DCx2dlnHiORdkk0rxyEBWxOkmnRKNBO1DHEZLOUecjMEq5kv2LNJmz8+IAB2srg4lEikVZouK0Q0WT0pokfDZH1YzOgomoo0lxSb4uvsY4n6JJokkQlmZRlqiY1TpaJJUWO5YkHZLN0Wqpr0DxWYb/yOHTwk4UWxdpHmLRdxBYERUXJjAFTfdUssJkPZlKcB+R3P5VdC6+oTFbcJLhYYpdWQJn2Osok5LTLOEdQ8BuZ+ExgoQXJFdUtygmNs/XnDj7KTvQU0RNZrI0o1KKxRyn5LpIhStY6GQYpKav/LpYxLifO6uALSXXIZ6aE+vxhoI+SiCh5+lW5gwBtcqCgUeydUqG04K7UiNG3ATLE9KsrFkhzalK789nmJY3BCy9cUuwkCoac1ZgC3zwyl0db3vXzaJ0AgjpogMskbNqkTsEQEv1KiTjZ908wgs8mLnh7sGTCcdbE4aQ7kEFUTMzELbVbOI7y/hAq7foiJ0fOXlacjcJiWMltSWxtQBX6/rtSuvgcG4ZO2fYvRZe8DzugZzs4ifQFBTCLadF2Y4S7kBvJEqQPH7DFztc+OHWYmjQbn6igWFW6C45RROdYgmkoKna0Awh/vuy1YnjizklbqrsEtJUwu7/bykM0bxYAmjhElJ7XTK/2LYWFs/nMRdDCEVbUoWoxXK4kJ2dFk3IjYV8vuhiMeYtW+Di4S5KMixH8lhISFUHb29xUbYnZxTELNRQVSk1bm17HGyDdp+yXC0upBCUt8pprmZuSTibl6o5LpQbMcZtrmhADRtxgsmznYegP+W9NU44gXW39oArIYuZ8qkEcV5F3xNwCin2bTtnJA5ep5S2ZDe04j8SKkpIY85DKsGnN/w60Is4ryIawGjKHO3Mm9mcv7R8jK03w9tRmNfvNfNqyotzLTx79aq19avENslOO//lAzB2omuh+OPUCyAJ+jHryZ0PQta6cTxAPF4RL4TsPuTHrcZ3kRdE4tgC30y9ANLQCPu96gBpi00zEWPkJzPePhw/Pz2hbh/c9aNex6c96Y+czBa+AP0Qjv88XnXv7HQr9mEUVfdii7XSu1LnS0+Efiwd31/GiPpdsyyQCH0gtth1QtsH936jsOXJ0s1VJKxvnqUcSIReROWJBv2e+sVCT5bOFn2F8B2GovKhnxenv+0VJitvgKkuK2eDPxrhEvY7AaHXWLRrDG+ZkfX5sPS3RnhmMANCL6IasXm6DgDQT2lWlwLNf0ynGx/6eJFcg3ItvGXGO+I/331cXv216ocQVodIp3pX6uvDH6B3xJ9NzvEO0gAh9CDqVD5APPZbqQRCmDLsQw8vMvlM39BvTQHmo6W7EFaHeBpPk2YXQVwY2ofvCYSVicouZieTZRiErWXID+b+/oiSVtGLbDk5GX6GAdgiN6PzYPYQpa0ixM9hkFABtV1dXYZ5XWYAViVqHDA8d2cS1nE0LJxV8iJ7PVmFAxjbwUFkq5OgAOuGWIWooREeHlFPvDZDXHZgEDuBx2Fs7XohlvXIKqiWKjsoosZaGjAeTrV9Xl36Wj8UxDgeBpvTsIBzmlF2ToMgliFqPKf5R+alFb0o5qX/xtqiKkSxtgi1PgyLcHK3DWFxoor14b+wxq/sRXYvN2BHB7hPswthQYgf+oPeQQKG/17bJdprG+xCWIiosNcWZL/UD+FgKVaEfed+qYcXzVN8h7Ln/a1/UQJhAYj2Bpv/fQs/hHDfIjL3LXazdDdRGX426rf/SKzn3pOPF/G9p8O7f1gM4VaI02SDvO8B+yHM3AMuxNLtRF0mn+/xFxu/aDH583jVu3PfmanoxfSnS0bdRhGmn8UojDAXYjfzuQTP52kCz9qKsjSXqNnnaU7GnhFjv/PSHV7stFwfC/Z7rq3DnA/L7QNh5HhA7NT1xZizMx+EMS+CPpu4bQWctU6KqR13d5/7bCzG5643m9H34e3t8Pvou19ic7t1Aewg6ikm4Gmr7e7tgYfYdATEz8/Hq4coerh6vPRM9MsBjKe0bdya6SZHE8btuKHVXgJk57Td+/btW6T/eiVKAoytewqt6XTynvOOI0bs7NNO1VdcebunG/ct8k2UdWLUbplm5H+6a1J5Axxc2e2V7/0wFkNUY7HDtn397vlLdZaKytutdmMQgahq9ynPBotpdZYqrM1BFEQV3bz1c08nT1V3pRRCMRaahdg5/djxAcS3Tru6CTltC7VpynpxG3Z8/vDkadWKG1rxFQ/DjlTUxiBGndXO71PaxG09rfpqx2O92yzE3T89N3htdSvTNAbYjonaaTdF1OiuwApnVJ2lcj4hXu2mvPi/Ql9Je+/F0rbiajMQ+3+KADx5XlbW01P9tymiPhT7XozZorqc2mQTRH34b8FV+GTZ8WVpM0R9LPyFu+dVaWpZ2gRR+8Xvsw/WFVnaTbzbM1H77yX2ws6rSo10HbJ9QuyV2SiaXXhATNgeiXpRarMvjhg+U3Bke/PiY8mvhP7xGQbg3iBelv3poPEqFMI9EbX8F5jeBmJpez9ejEp/f2m8xgjG0z1A7BdZU6TtaRXOi7UT9bHKl0EP3sI5sW4v9t8q3RYahwNYN8RuxS9l99qVSiOsk6j9qr9oOX4PCLHGsWgfUiltw+o7NvuE+FD92d3BIqDY1AaxUqQAew5J07ogRl6/nHsf1Im1QOx7/c6M2NA4cIj9O8/fI70NKjY1QHwoPyFNOfE+rBNDQ+x7/2bXySgwwsAQ+wF+PG8dGmJQgO/+AE9GAdcY0gJOUaO/QX5sdRPaieGIGv03BMCTSdDpqbBQ0/DoPdCPHn+FDfvCwiC8DPRbsjWITRiiBpEZZaPAM5t2GKI+hvtN58EiNMB2AKL2LwI+szsJHTGE+Xrxb8DfVo8jRnix8SXq5e6nLsrYONRtjIR5Iex5rinSNqwBoB9RQ37sWNg42P02bNUncN7LwqyNAi8UPSE+hHxuXlvILXAEsRpRL6vukG6z5zoiRlUv/vXafcqzcDdNvSGWvh1azCavoW58o3/bVYga3QUN9taCbIF3u+bfrq6vtBc9Nrm32yCEE7voX7CSEPsFfi6nooWPGJGGWI6owUOhtY0vop6kZk8mtCfleCzjxVoiBZjnGkN4zNAghoooURxiFHZNkbYvpRNVX4Azwpg1xMJErUtmlI3fO6LvK78gRkjAJmqUIWpU/XZoMRt9+KhNV/ktandVqIgAcVQYYrEnuT1stuioPo8qvdJxQjoPsooQteJTF2VMPWbTy7SzkAu7Jsz32ijiQ7qAFys9OFPSNp0uHkBlXjGMyJyoXApVKbQ7IfbDbl24Td3c9479kYHXxTnbidq/q52jwuQySophcRGVcMCPXds9mqA2c6sX+/UsmrI2WnUi6P1ut1gCD9yuISq4TuHcFTT6Ye40FbHnP9CoduEEGnXwFqY4NuxL8HlE7f/ZkweFTS46PYjaxRJo2dQzQOM0LKMsh/O8WNui0G2D29VnqSmqEVKcAwlskRti/9ttbUumHJv8eG9/It1PhQH7NgkMFZMITXREIzND1P7D44+a52oum02GF6uXz84u6+n/+85DvUyO/K9v7fLh8WK4V4ImQD7dvl3Ua2+3T5O9BMGjHe1oRzva0Y52tKMdrU77P0csX+rIHmoPAAAAAElFTkSuQmCC;clipPath=inset(5.11% 0% 5.11% 0.22%);direction=south;rotation=90;" vertex="1" parent="1">
          <mxGeometry x="565.9150000000002" y="518.385" width="29" height="32.23" as="geometry" />
        </mxCell>
        <mxCell id="xoEMEb9Q6lRqkHzQhWVF-6" value="" style="rounded=0;whiteSpace=wrap;html=1;fontSize=16;align=center;" vertex="1" parent="1">
          <mxGeometry x="720" y="800" width="120" height="80" as="geometry" />
        </mxCell>
        <mxCell id="xoEMEb9Q6lRqkHzQhWVF-7" value="&lt;font style=&quot;font-size: 16px;&quot;&gt;provar-imports&lt;/font&gt;" style="text;html=1;strokeColor=none;fillColor=none;align=center;verticalAlign=middle;whiteSpace=wrap;rounded=0;fontSize=16;" vertex="1" parent="1">
          <mxGeometry x="720" y="800" width="120" height="40" as="geometry" />
        </mxCell>
        <mxCell id="xoEMEb9Q6lRqkHzQhWVF-8" value="" style="shape=image;verticalLabelPosition=bottom;labelBackgroundColor=default;verticalAlign=top;aspect=fixed;imageAspect=0;image=data:image/png,iVBORw0KGgoAAAANSUhEUgAAAOEAAADhCAMAAAAJbSJIAAAArlBMVEX///9Eh/pEhfRAe95FhO1AfOJEh/lEhvdEh/tFhPBEhfJEg+uArfi/1PiArPVDgOgxdOA7eeHw9f260Po1euhTj/lKivmux/vG2Pmiv/7o8P1ynutzofNJguNSh+Pf6v02fvT1+f7S4Ps4gfqLsvdalPfZ5vxgl/Wkw/lLi/ZpnflblfkrfPp6pvaUt/ajwPxmluscceyzyvctd+s2e+lpm+2duvCnxvtckOclbdpVV+1uAAAQuUlEQVR4nO1dDXvaoBYuzgDWtlbth7MfatW6urX2rt3t7v//Yzd8HDhJiCaBGPc8nrkNCSG8nJf3AIl6cnK0ox3taEc72tGOdrSj/eM2mzx9vZ3Va29fT5NZU/CGZ8uX+ZzXa/P5y/Js2ATI8ebnTYyO1G8xypvrzXjP+Aa3rf3AMyDp7WCfACf3ZH/wNEhyP9kfwOf1fM/4hM3Xz/sCOPrZBMAY4s/RfgA+/9w3Q8H4z714cfbajAeFze/3EDVmm6Y8KIxv6kd4ft0owuVT7QgXzXFUQnyrG+DoV6MACflVs56O101yVBhf1zt/+7ppHOHNV50AJ8umAYqgWOfs7a1ZmVE2r1FsRo1zVBi/qU1sBg3OZrDNX+taSA0PwoXCicN6AI5fDwNgDPG1nohxEDKjrB6xeW4aFjJO6lhGHZAL63Hi6OVQRqEw/hI8YozPmgaVsrPQYjNkh+RCMRIDR4xx67AAxhBbYZ3445BkRtn8R0iAk9WhuTB24irgGiM9IaXyJf8mMglh4i+FN1Rl4LMoM+cxe9ScYeukiTrN9eI6TZFFuOnpKLX7RGOLL8zg8kzm4RIsgU2fBGVsyh6CHAbvU3Waa9lMfh0uYqynibajTkZdTTRmyuxxnWZJb5O0+xOGvZQ5ps9W//N1KIBfhqOUoesYkGlvOVqYJbUGg5mY6AiTZrhw0uaBNjQmubtPGWi5+QzYxdJ8zqskr25sfB1GbAptcjt62tlGlzMzI5alEs4ekxC/hwA4SkYKmrykpah7/Bgh3Dr2dh5lMN6TxfgqhNhYmZH0ApVEWge008el0mIqan7qXKWKTNeEztX6LHNMDYwYPzIluQy7dB5AbEY2FIrmUa66UsU6CvGPURAhqnuaMpWpgwqjwE/1VzWWqgipAVP9R9dMda+oegxDoITCOfd24uSeq/5nzDiQMhsJkLoyTVTZqATzTDSh6nRiSthmm8bT1PADauq+oKiA4Kn3ve9bu/tkOMlMFyrWJRlJqRFMy1iVaY6qLPkPS1BXZDJTD7xlaJLAkhfl1DNiwCa39o+Zc1GYQplOZQwNEQZ+pJrbsow9Ew4xYnzCKPa4nvmhiZ5yPhWLOHtW/OJLPyfeT4ngpx4/qmFUjxFMLWvM6p7mKzVldNPkYDbzUxi4spu4ZLIZyeZMCmfDtImaMT2/9wH4LC5piElA7uQbDnrIgXtMZUNYF0pCoZisghNzuvSFnd8iD1LDYc6AuolZK3Qk0brAPHalBou57VK8LFCDXrvRdLUmIAO8xm8QFHV/MU0EbkRE85CZCUNCqUwZRrXmMR1/5LXmHmuM4QsXQ4gj/aRa0BAPgTloqg1NN/GeweBEc1GiGYlyNH5m69RdyRmqlZjLSfPYAh+vuZY74KiZmxHtKatsjNiSRj+51kmYJhjZtPkElh8Uonn6cobAhrR26iFT1W+avnGipUJpg3ILZ5a3pjvR5IZaPHoyYCRV+00MXThbTVQY45rltmamA7v2vOk9VYTh61a9uT+OQyGzwwuEkeqmK8dRKKFk0DSSwntBcvGHCqEX6kHRUaAiMXWLYoxqKPIUbmqWb80lpFbJARTztNITGrNYZpROcil6Kg0kiXMVTNV2iOx6qibbCREfxFaWpEosuOK5KsRhdIv8uLApz2ECQBVObstAq2Q+mW+qPEn0dM2VSHBNIdPvoq0yxBuf4ENyAHGqtVNPPqHnkeqqrmBQvzpLOVDXptKiJLAAyqi3miwis8pjNuPVlED71MVUdSYsGK2wVyIw1QBaUiCwesukS9RbCxvqpxziDsxjZB7Fl1S6Tiw2XX66Ki82t1KoWIIY+q1iCMRrE7i5LmxyOLGMkodgbsBsTEf1s2QOMFB3D7HMTDRGnUvobXkXcugs5QrEE8UrbiXGekYWBmGEwsZXLOU37God71COPqr9a66LSGHridfCJZ0428yh6cQkctqXkFAzhNJ0UjwHunJ9mjoFIcE5XEmxllPEZ9tl3FC4rNjEMmMFUDMny6tUAapHjTmaoBOmq1RRTLy4TKISNCKMVqevi7RdOLHcs6ezV44F0M0rU4Ajz1CCj2I66bQ9kWDiUds3NvpT9EYRNXU5I+DCx2dlnHiORdkk0rxyEBWxOkmnRKNBO1DHEZLOUecjMEq5kv2LNJmz8+IAB2srg4lEikVZouK0Q0WT0pokfDZH1YzOgomoo0lxSb4uvsY4n6JJokkQlmZRlqiY1TpaJJUWO5YkHZLN0Wqpr0DxWYb/yOHTwk4UWxdpHmLRdxBYERUXJjAFTfdUssJkPZlKcB+R3P5VdC6+oTFbcJLhYYpdWQJn2Osok5LTLOEdQ8BuZ+ExgoQXJFdUtygmNs/XnDj7KTvQU0RNZrI0o1KKxRyn5LpIhStY6GQYpKav/LpYxLifO6uALSXXIZ6aE+vxhoI+SiCh5+lW5gwBtcqCgUeydUqG04K7UiNG3ATLE9KsrFkhzalK789nmJY3BCy9cUuwkCoac1ZgC3zwyl0db3vXzaJ0AgjpogMskbNqkTsEQEv1KiTjZ908wgs8mLnh7sGTCcdbE4aQ7kEFUTMzELbVbOI7y/hAq7foiJ0fOXlacjcJiWMltSWxtQBX6/rtSuvgcG4ZO2fYvRZe8DzugZzs4ifQFBTCLadF2Y4S7kBvJEqQPH7DFztc+OHWYmjQbn6igWFW6C45RROdYgmkoKna0Awh/vuy1YnjizklbqrsEtJUwu7/bykM0bxYAmjhElJ7XTK/2LYWFs/nMRdDCEVbUoWoxXK4kJ2dFk3IjYV8vuhiMeYtW+Di4S5KMixH8lhISFUHb29xUbYnZxTELNRQVSk1bm17HGyDdp+yXC0upBCUt8pprmZuSTibl6o5LpQbMcZtrmhADRtxgsmznYegP+W9NU44gXW39oArIYuZ8qkEcV5F3xNwCin2bTtnJA5ep5S2ZDe04j8SKkpIY85DKsGnN/w60Is4ryIawGjKHO3Mm9mcv7R8jK03w9tRmNfvNfNqyotzLTx79aq19avENslOO//lAzB2omuh+OPUCyAJ+jHryZ0PQta6cTxAPF4RL4TsPuTHrcZ3kRdE4tgC30y9ANLQCPu96gBpi00zEWPkJzPePhw/Pz2hbh/c9aNex6c96Y+czBa+AP0Qjv88XnXv7HQr9mEUVfdii7XSu1LnS0+Efiwd31/GiPpdsyyQCH0gtth1QtsH936jsOXJ0s1VJKxvnqUcSIReROWJBv2e+sVCT5bOFn2F8B2GovKhnxenv+0VJitvgKkuK2eDPxrhEvY7AaHXWLRrDG+ZkfX5sPS3RnhmMANCL6IasXm6DgDQT2lWlwLNf0ynGx/6eJFcg3ItvGXGO+I/331cXv216ocQVodIp3pX6uvDH6B3xJ9NzvEO0gAh9CDqVD5APPZbqQRCmDLsQw8vMvlM39BvTQHmo6W7EFaHeBpPk2YXQVwY2ofvCYSVicouZieTZRiErWXID+b+/oiSVtGLbDk5GX6GAdgiN6PzYPYQpa0ixM9hkFABtV1dXYZ5XWYAViVqHDA8d2cS1nE0LJxV8iJ7PVmFAxjbwUFkq5OgAOuGWIWooREeHlFPvDZDXHZgEDuBx2Fs7XohlvXIKqiWKjsoosZaGjAeTrV9Xl36Wj8UxDgeBpvTsIBzmlF2ToMgliFqPKf5R+alFb0o5qX/xtqiKkSxtgi1PgyLcHK3DWFxoor14b+wxq/sRXYvN2BHB7hPswthQYgf+oPeQQKG/17bJdprG+xCWIiosNcWZL/UD+FgKVaEfed+qYcXzVN8h7Ln/a1/UQJhAYj2Bpv/fQs/hHDfIjL3LXazdDdRGX426rf/SKzn3pOPF/G9p8O7f1gM4VaI02SDvO8B+yHM3AMuxNLtRF0mn+/xFxu/aDH583jVu3PfmanoxfSnS0bdRhGmn8UojDAXYjfzuQTP52kCz9qKsjSXqNnnaU7GnhFjv/PSHV7stFwfC/Z7rq3DnA/L7QNh5HhA7NT1xZizMx+EMS+CPpu4bQWctU6KqR13d5/7bCzG5643m9H34e3t8Pvou19ic7t1Aewg6ikm4Gmr7e7tgYfYdATEz8/Hq4coerh6vPRM9MsBjKe0bdya6SZHE8btuKHVXgJk57Td+/btW6T/eiVKAoytewqt6XTynvOOI0bs7NNO1VdcebunG/ct8k2UdWLUbplm5H+6a1J5Axxc2e2V7/0wFkNUY7HDtn397vlLdZaKytutdmMQgahq9ynPBotpdZYqrM1BFEQV3bz1c08nT1V3pRRCMRaahdg5/djxAcS3Tru6CTltC7VpynpxG3Z8/vDkadWKG1rxFQ/DjlTUxiBGndXO71PaxG09rfpqx2O92yzE3T89N3htdSvTNAbYjonaaTdF1OiuwApnVJ2lcj4hXu2mvPi/Ql9Je+/F0rbiajMQ+3+KADx5XlbW01P9tymiPhT7XozZorqc2mQTRH34b8FV+GTZ8WVpM0R9LPyFu+dVaWpZ2gRR+8Xvsw/WFVnaTbzbM1H77yX2ws6rSo10HbJ9QuyV2SiaXXhATNgeiXpRarMvjhg+U3Bke/PiY8mvhP7xGQbg3iBelv3poPEqFMI9EbX8F5jeBmJpez9ejEp/f2m8xgjG0z1A7BdZU6TtaRXOi7UT9bHKl0EP3sI5sW4v9t8q3RYahwNYN8RuxS9l99qVSiOsk6j9qr9oOX4PCLHGsWgfUiltw+o7NvuE+FD92d3BIqDY1AaxUqQAew5J07ogRl6/nHsf1Im1QOx7/c6M2NA4cIj9O8/fI70NKjY1QHwoPyFNOfE+rBNDQ+x7/2bXySgwwsAQ+wF+PG8dGmJQgO/+AE9GAdcY0gJOUaO/QX5sdRPaieGIGv03BMCTSdDpqbBQ0/DoPdCPHn+FDfvCwiC8DPRbsjWITRiiBpEZZaPAM5t2GKI+hvtN58EiNMB2AKL2LwI+szsJHTGE+Xrxb8DfVo8jRnix8SXq5e6nLsrYONRtjIR5Iex5rinSNqwBoB9RQ37sWNg42P02bNUncN7LwqyNAi8UPSE+hHxuXlvILXAEsRpRL6vukG6z5zoiRlUv/vXafcqzcDdNvSGWvh1azCavoW58o3/bVYga3QUN9taCbIF3u+bfrq6vtBc9Nrm32yCEE7voX7CSEPsFfi6nooWPGJGGWI6owUOhtY0vop6kZk8mtCfleCzjxVoiBZjnGkN4zNAghoooURxiFHZNkbYvpRNVX4Azwpg1xMJErUtmlI3fO6LvK78gRkjAJmqUIWpU/XZoMRt9+KhNV/ktandVqIgAcVQYYrEnuT1stuioPo8qvdJxQjoPsooQteJTF2VMPWbTy7SzkAu7Jsz32ijiQ7qAFys9OFPSNp0uHkBlXjGMyJyoXApVKbQ7IfbDbl24Td3c9479kYHXxTnbidq/q52jwuQySophcRGVcMCPXds9mqA2c6sX+/UsmrI2WnUi6P1ut1gCD9yuISq4TuHcFTT6Ye40FbHnP9CoduEEGnXwFqY4NuxL8HlE7f/ZkweFTS46PYjaxRJo2dQzQOM0LKMsh/O8WNui0G2D29VnqSmqEVKcAwlskRti/9ttbUumHJv8eG9/It1PhQH7NgkMFZMITXREIzND1P7D44+a52oum02GF6uXz84u6+n/+85DvUyO/K9v7fLh8WK4V4ImQD7dvl3Ua2+3T5O9BMGjHe1oRzva0Y52tKMdrU77P0csX+rIHmoPAAAAAElFTkSuQmCC;clipPath=inset(5.11% 0% 5.11% 0.22%);" vertex="1" parent="1">
          <mxGeometry x="763.8900000000001" y="840" width="32.23" height="29" as="geometry" />
        </mxCell>
        <mxCell id="xoEMEb9Q6lRqkHzQhWVF-9" value="" style="rounded=0;whiteSpace=wrap;html=1;fontSize=16;align=center;" vertex="1" parent="1">
          <mxGeometry x="280" y="640" width="120" height="80" as="geometry" />
        </mxCell>
        <mxCell id="xoEMEb9Q6lRqkHzQhWVF-10" value="Web Browser" style="text;html=1;strokeColor=none;fillColor=none;align=center;verticalAlign=middle;whiteSpace=wrap;rounded=0;fontSize=16;" vertex="1" parent="1">
          <mxGeometry x="280" y="640" width="120" height="40" as="geometry" />
        </mxCell>
        <mxCell id="xoEMEb9Q6lRqkHzQhWVF-12" value="" style="endArrow=none;html=1;rounded=0;exitX=1;exitY=1;exitDx=0;exitDy=0;entryX=0;entryY=1;entryDx=0;entryDy=0;endFill=0;startArrow=block;startFill=0;" edge="1" parent="1" source="uI3OphNUKf_lqw-jZ9q1-30" target="xoEMEb9Q6lRqkHzQhWVF-7">
          <mxGeometry width="50" height="50" relative="1" as="geometry">
            <mxPoint x="710" y="890" as="sourcePoint" />
            <mxPoint x="670" y="870" as="targetPoint" />
          </mxGeometry>
        </mxCell>
        <mxCell id="xoEMEb9Q6lRqkHzQhWVF-13" value="" style="endArrow=block;html=1;rounded=0;exitX=1;exitY=1;exitDx=0;exitDy=0;edgeStyle=elbowEdgeStyle;entryX=0.5;entryY=0;entryDx=0;entryDy=0;startArrow=none;startFill=0;endFill=0;" edge="1" parent="1" source="uI3OphNUKf_lqw-jZ9q1-18" target="xoEMEb9Q6lRqkHzQhWVF-7">
          <mxGeometry width="50" height="50" relative="1" as="geometry">
            <mxPoint x="710" y="890" as="sourcePoint" />
            <mxPoint x="770" y="720" as="targetPoint" />
            <Array as="points">
              <mxPoint x="780" y="740" />
            </Array>
          </mxGeometry>
        </mxCell>
        <mxCell id="xoEMEb9Q6lRqkHzQhWVF-14" value="" style="endArrow=none;html=1;rounded=0;exitX=1;exitY=1;exitDx=0;exitDy=0;entryX=0;entryY=1;entryDx=0;entryDy=0;endFill=0;startArrow=none;startFill=0;" edge="1" parent="1" source="xoEMEb9Q6lRqkHzQhWVF-10" target="uI3OphNUKf_lqw-jZ9q1-18">
          <mxGeometry width="50" height="50" relative="1" as="geometry">
            <mxPoint x="480" y="780" as="sourcePoint" />
            <mxPoint x="530" y="730" as="targetPoint" />
          </mxGeometry>
        </mxCell>
        <mxCell id="xoEMEb9Q6lRqkHzQhWVF-15" value="" style="endArrow=none;html=1;rounded=0;entryX=0;entryY=0.5;entryDx=0;entryDy=0;endFill=0;exitX=1;exitY=0.5;exitDx=0;exitDy=0;" edge="1" parent="1" source="xoEMEb9Q6lRqkHzQhWVF-25" target="xoEMEb9Q6lRqkHzQhWVF-9">
          <mxGeometry width="50" height="50" relative="1" as="geometry">
            <mxPoint x="220" y="670" as="sourcePoint" />
            <mxPoint x="530" y="730" as="targetPoint" />
          </mxGeometry>
        </mxCell>
        <mxCell id="xoEMEb9Q6lRqkHzQhWVF-16" value="" style="rounded=0;whiteSpace=wrap;html=1;fontSize=16;align=center;" vertex="1" parent="1">
          <mxGeometry x="280.41" y="480" width="120" height="80" as="geometry" />
        </mxCell>
        <mxCell id="xoEMEb9Q6lRqkHzQhWVF-17" value="Email Client" style="text;html=1;strokeColor=none;fillColor=none;align=center;verticalAlign=middle;whiteSpace=wrap;rounded=0;fontSize=16;" vertex="1" parent="1">
          <mxGeometry x="280.40999999999997" y="480" width="120" height="40" as="geometry" />
        </mxCell>
        <mxCell id="xoEMEb9Q6lRqkHzQhWVF-20" value="" style="endArrow=none;html=1;rounded=0;entryX=0;entryY=1;entryDx=0;entryDy=0;endFill=0;edgeStyle=elbowEdgeStyle;exitX=1;exitY=0.25;exitDx=0;exitDy=0;startArrow=block;startFill=0;" edge="1" parent="1" source="xoEMEb9Q6lRqkHzQhWVF-25" target="xoEMEb9Q6lRqkHzQhWVF-17">
          <mxGeometry width="50" height="50" relative="1" as="geometry">
            <mxPoint x="210" y="640" as="sourcePoint" />
            <mxPoint x="620" y="740" as="targetPoint" />
          </mxGeometry>
        </mxCell>
        <mxCell id="xoEMEb9Q6lRqkHzQhWVF-21" value="" style="endArrow=none;html=1;rounded=0;entryX=0;entryY=1;entryDx=0;entryDy=0;exitX=1;exitY=1;exitDx=0;exitDy=0;endFill=0;startArrow=block;startFill=0;" edge="1" parent="1" source="xoEMEb9Q6lRqkHzQhWVF-17" target="xoEMEb9Q6lRqkHzQhWVF-4">
          <mxGeometry width="50" height="50" relative="1" as="geometry">
            <mxPoint x="570.4100000000001" y="470" as="sourcePoint" />
            <mxPoint x="620.41" y="420" as="targetPoint" />
          </mxGeometry>
        </mxCell>
        <mxCell id="xoEMEb9Q6lRqkHzQhWVF-26" value="" style="rounded=0;whiteSpace=wrap;html=1;" vertex="1" parent="1">
          <mxGeometry x="120" y="774.5" width="80" height="120" as="geometry" />
        </mxCell>
        <mxCell id="xoEMEb9Q6lRqkHzQhWVF-27" value="User B" style="shape=umlActor;verticalLabelPosition=bottom;verticalAlign=top;html=1;outlineConnect=0;" vertex="1" parent="1">
          <mxGeometry x="140" y="785" width="40" height="80" as="geometry" />
        </mxCell>
        <mxCell id="xoEMEb9Q6lRqkHzQhWVF-28" value="" style="rounded=0;whiteSpace=wrap;html=1;fontSize=16;align=center;" vertex="1" parent="1">
          <mxGeometry x="280.41" y="800" width="120" height="80" as="geometry" />
        </mxCell>
        <mxCell id="xoEMEb9Q6lRqkHzQhWVF-29" value="Web Browser" style="text;html=1;strokeColor=none;fillColor=none;align=center;verticalAlign=middle;whiteSpace=wrap;rounded=0;fontSize=16;" vertex="1" parent="1">
          <mxGeometry x="280.40999999999997" y="800" width="120" height="40" as="geometry" />
        </mxCell>
        <mxCell id="xoEMEb9Q6lRqkHzQhWVF-31" value="" style="endArrow=none;html=1;rounded=0;exitX=1.01;exitY=0.533;exitDx=0;exitDy=0;exitPerimeter=0;entryX=0;entryY=1;entryDx=0;entryDy=0;endFill=0;" edge="1" parent="1" source="xoEMEb9Q6lRqkHzQhWVF-26" target="xoEMEb9Q6lRqkHzQhWVF-29">
          <mxGeometry width="50" height="50" relative="1" as="geometry">
            <mxPoint x="540" y="830" as="sourcePoint" />
            <mxPoint x="590" y="780" as="targetPoint" />
          </mxGeometry>
        </mxCell>
        <mxCell id="xoEMEb9Q6lRqkHzQhWVF-32" value="" style="endArrow=block;html=1;rounded=0;exitX=1;exitY=1;exitDx=0;exitDy=0;entryX=0;entryY=0.5;entryDx=0;entryDy=0;endFill=0;" edge="1" parent="1" source="xoEMEb9Q6lRqkHzQhWVF-29" target="uI3OphNUKf_lqw-jZ9q1-29">
          <mxGeometry width="50" height="50" relative="1" as="geometry">
            <mxPoint x="540" y="830" as="sourcePoint" />
            <mxPoint x="590" y="780" as="targetPoint" />
          </mxGeometry>
        </mxCell>
        <mxCell id="xoEMEb9Q6lRqkHzQhWVF-33" value="&lt;font style=&quot;font-size: 10px;&quot;&gt;https://app.provar.se&lt;/font&gt;" style="text;html=1;strokeColor=none;fillColor=none;align=center;verticalAlign=middle;whiteSpace=wrap;rounded=0;fontSize=16;" vertex="1" parent="1">
          <mxGeometry x="280" y="670" width="120" height="20" as="geometry" />
        </mxCell>
        <mxCell id="xoEMEb9Q6lRqkHzQhWVF-34" value="&lt;font style=&quot;font-size: 10px;&quot;&gt;https://client-app.se&lt;/font&gt;" style="text;html=1;strokeColor=none;fillColor=none;align=center;verticalAlign=middle;whiteSpace=wrap;rounded=0;fontSize=16;" vertex="1" parent="1">
          <mxGeometry x="280" y="830" width="120" height="20" as="geometry" />
        </mxCell>
        <mxCell id="xoEMEb9Q6lRqkHzQhWVF-35" value="&lt;div style=&quot;line-height: 100%;&quot;&gt;&lt;span style=&quot;background-color: initial;&quot;&gt;&lt;font style=&quot;font-size: 10px;&quot;&gt;Email invitations, notifications, etc.&lt;/font&gt;&lt;/span&gt;&lt;/div&gt;" style="text;html=1;strokeColor=none;fillColor=none;align=center;verticalAlign=middle;whiteSpace=wrap;rounded=0;fontSize=16;" vertex="1" parent="1">
          <mxGeometry x="280.40999999999997" y="510" width="120" height="50" as="geometry" />
        </mxCell>
        <mxCell id="xoEMEb9Q6lRqkHzQhWVF-36" value="" style="rounded=0;whiteSpace=wrap;html=1;fillColor=none;strokeColor=default;dashed=1;movable=1;resizable=1;rotatable=1;deletable=1;editable=1;locked=0;connectable=1;" vertex="1" parent="1">
          <mxGeometry x="480.41" y="240" width="400" height="160" as="geometry" />
        </mxCell>
        <mxCell id="xoEMEb9Q6lRqkHzQhWVF-37" value="" style="shape=image;verticalLabelPosition=bottom;labelBackgroundColor=default;verticalAlign=top;aspect=fixed;imageAspect=0;image=data:image/png,iVBORw0KGgoAAAANSUhEUgAAAQMAAADCCAMAAAB6zFdcAAAA8FBMVEX///8AAAABm2oDmm7//v8Bm2wDmmoAj17e+PP8///9//0AmGYAk15etJfz//+v4dKw29EAlWfh4eGSkpJJSUknoXZcXFympqaMyLX09PRVVVUAlGLX8+09rIbq6uq+vr6Ghobd3d3C5t2cnJzLy8u0tLQODg6Xl5fGxsYAmWNoaGixsbG8vLzU1NR9fX02NjZycnIgICAqKio8PDyg1MTr+/cAilZRs5Evnnuc1cUalm/d8OuW1MF2uqOWzLtkt517w6/M6eCCyLPY/fVJqItnwqqDw7BbrZRfvaE3q4K16d8cp3lGsIyd3sqv1ssZGRkIWk5EAAARlUlEQVR4nO2ce1vayhbGJxcS0hkCAQExYBG8EK1oVQSpilrcp7o97ff/NmfNLTcSdIvW8+zO+0eVZJjLb9Zas2YSi5CSkpKSkpKSkpKSkpKSkpKSkpKSkpKSkpKSkpKSkpKSkpKSkpKSkpKSkpKSkpKSkpKSktL/tZyP7sAHy3EUA6o/hcHobj1Tl5W2+9F9+10qnmMvQ75PiFcqu8g0P7qH76+ibWSpUCjoOPCnF86fywAgWAVd10lnhNC/HUMeA2oJBcvSvWn7o7v47lrKgEqfFj+6j++t5xng8Uf38b0VMrCT8i3JQD/vfXQn31mSQf17O6ZvvcsOCSxhCJN/ebIkGSyOs2dgixsCuf2Inv0+CQaFSSIrZJlRsYA5A3z3QZ37TRIMrDpNCRNCqOwLBqWP7uX7KpcB3HMmFmOg17MCgrM8j47dNPNuPKOMgu+SuktfqGftkK6wYJC9fZL9gY69PGo+n3ybZvqX5cVWVi4DeoCwLhgYmQyKveurWWl2c3a7eNttV9avSqXS1d3C/nMkFx83ZxBmWGKUrrVYub6ZQa3Q5ujtFqslDBx0Ixj87abvIbc8tn2MLcvDhBj37fi0uL17wyYBpgrg7s2tY0bTf33OM5Dzi7w+zWQJuR4x33R693U7CGi18C+xH+6KLzCql2ipL8xFPOikrpvosW7jQphN6rZdiuas0vGwpcdESOcxcu6Rr8NXDMNL1xoWMCxWs/7gRHPtlic21hMifultFu1lDL55fIj4KnEZJvUHoblDlE9b+PyO9hemq90hXkEvxDtr6QEZfw+/P7NEZpqzGyv7xnQK9/0zHmaoEfTqtkhWmAp8R4cpejCxFa0hn4GJZpgP0f+ZvDPqBDCuQijoVDB3qPOY6NoG/7AsPa0A84zbdFDPLrA2vZy0Y+yx27onTMs03SsbFxZkYQsTv4KcVSNDLgMTnck9g5eMTe4E63EGdIiYbi4d5MwIQ7DIAEz3AvFg7k6MvNw01iPDm6FPosGOry8ikG549252YKILmzdsJFwBHGEMtm5JBjrPpi+Y2bolGialA9DZ12M0yH+ZWZvo0hPO0FtMAeAuDu9+YheK9RQBPfLCgqWTH84/WZv/AQP3xhduV7CLiSYufD731EBge+nBChDUAQ2UkVZA7QD7vgcFSBTIMGxAWfpVtAvMG6z7jK7TxExYCTfy0URnsZeNGxPbMzzPx3JbC22RmxVzhUUGrOXKlNC5pK2Qy4THjTxLRDw8vW677qh9Vj+vsBKXhE47ALAs3/9Rbo/cUfH2cmLL0BiAU7FlrsSjYsHLCMRtYX7eOuIQxiIUGHT5mUGtoNvLuR/Ioy4dgudKijFwBHhYhx7sQBcMrBlCTgzCjRySfyNH4PxkjntL+FAhXnvrbpTI9TqBCBD+mDKgUZE3CgFtQeuYo/eKvNlrW0y5YXnXbjQd7Vl4xGHlrTCvYkB73V6v+8KpoRHL+I5iCQ5yp1GIo/35RAU/kOl2+LfACDptuMcRsB93HKmu2xUWARyD27u+eETlTjFzMwy4KIORbcnIPC+GWTmzpkdDrN0FPF8pWYozoB/BdD0sAzuzA+8xno5VfLHWzcT4hWBZJwXOwJ+7UQDhxnUhw4JYCtYxZ+AtnFX2bIsxID36XXAbYRa6P4Nlh7cU9n0i8OhBeZWoGI8HbrkDMUw4WZiL4PPLGIMrEfgLfL2MGDhTFqWBTngU4YRCN9IQeJZQ9ESKkPJkyEkCxsASdtmWkZnu3x3KID7WkRFwBnjirs6ArtWVOgnDbSGWjxXsy6h8nadAeD0+RDrKHpFxYvEcGmawLtYGcRQxZhAK1jyR4JjmyNbZugL5E6v1intGwZoAc+dT0g5MdOvLiFB5CwbuzKa+HK672Ma+/GCXZaujc9ZHnUahJINSYIVxIqOdskAk8q2Kz8+u/Xay8M+Ar602j4gjj02EUeD2k2IAEO7EoqGX3oDBwz0OEw/6kInUz5wLGXlpl7huA87AcFMIYCfEGWTvs5Hr8XhJ+FLgTvmOC98ki3V4gsEtXxgXHSK3lzQDqMcQB79+ep/9CgaejLHcBuYVFyj3PCsVeCuEMaDPHFKu4POISJ0kUz94VMT3PDf8i+8NC9MEMnB/xoBUhCsEnIH9yG4vMggNgZTRqxU9YwkB+N4NWChb3HoiYdHBG9hMlAWDUprBunAFv53zePJSLCgdvmiydun8JR5erPvCzEZ8pa6LoGTQWJDJoG1z0w3u34yB7nulssO2BWxoZZGVenUHSQZg0sAgFsxowTnmvlCnCX75bvaf8VMnoYkImZ7LDyvnbAINfRZj5oidQSAioivyMTzLf+47FbOUdxrxTxlYpFOh6Ww4u6boKtzpsVHz0GYlT5ppURH3gx/oW4nADiIIsI4TEgxsfpDgVGyR+oSO7ECY5zPB8j6o9FYwIEuS4Zlg4L0+TYozCOpltsGPGDhOzxdZyEzaQRYD5IoR4rOeL1KBtETOQYTxu1PhyOH4TFgJ+R7gSdQqFxN7yXnRtS/D9hswMHx6KCMGJRiAnsT5jcc+5TAwR6K3+IefTSCUYGDyw8p4nmu6nmWIpdhkDM4kgyWPviuCAXn9niFi4M1EHs5/SAYX4kELT32eY6DjrOOTLAaQAook+Fs4HCLcwzUFA+FA3ih/joWhWlE1r2cAS7CZdSrVI/xglff9WQbPSvqCiR64Ifjhajpm8dcQOUOSQS4EyYCszgD2quHeOVVAMCi/mAEmSxQ9yT/j0+4ZotWib7E8FSIiXQEpA+FY9ksYrO4L1j1azoAfVOQy8EICgXdXWaZwHXC5M1jSMi4JY2BNkGQgN6l2O59B2X6zmOj3chh8lwyW2UG4NoLqz2WtMgSiK497Mk9vHJYng2+cIVMw6Pmh/+QO8E6uC69/nVLunT03h0HP5wzsfAZ0aR+HZ0VsK2/mKWIQmTE/UmtTM7DgUxQA23K1Wc9nUGLgDGv6+iP28PzAyWGwLvbT/LwqhwFs4AK5/nO/zIVgRo9UHXEGwvHe+Hy79CMaryPP7fKTQFhP+fFuInN9FQMrj4Fj6KKj7BFprh2UiUiN/DwGKM0A1l3MDwfokRrsANlWgfQiSLBS8ErPv6Ms0Xck+JmL7l2+AYMsX4CPEJp55JqjJQzocbNgQM5MJ5OBw56KJRiMPJHnjqhj8N3YQ/jIBH6eSbDZj6Sg0jmlRDd17defpi1lYKIRFud5+CI/V2aSU4Y7SKZZces30WzSE5ejL814mgSVoxk7meBPo8Lm2+G5fGagpVHTYgy8et6T/JczKCwyAMimOyfCFbziMwwqsruEZboL/g/ftDv0GCDeSI8fnMNyKA9DcHKwTzLlmKHFDI4e0bG81LL8vGOL1RhAE+4Yts587yyet+UycJypTJMNkd0nGLSZmZB5L/FnEXRJ5QGXv/tUgIiY6ENZbsCofSQZ0M5eydt28W3OleMM2MtG7TqWR4xgBuz0IpeBGW5wdFwXe68wGAICg9msHpBSFPbh1jV/morvSiJxTmYCplsP99x08Yjtj2nYWCcCe3C/yovlOQygxtG9zQ44Wdcued6yxBcQmkhDCKa3KMYATLYsHUV4StS8OLcVRziwyiduO/TwTshfT70F5s6IJc6/VzlNjL2nmkyz3N4MY3r4zRjgJ8fkeJYxuLUtcUhg+VdFFAXA9jgcSPCUstmxWBo4CnyZfBsN5n0cyBcvgnn8GMEp19l+g6Zm9JHoWzB47IX6+dfY8MOXHowCpgefzzNAdyR81E7w7LFIn3s4xbN57CWahZOAHinEZNP5jEclExWjnQj2n8rc79329d+Sq6UHJWelFzHCvbPnR4LUMHrCb1hG1PElDOjz5NgREg7s+tO4Y9hB7CJ5XIhssfPsgl5CzsIK3bPjlRKjMx4/eH7s3aRAxp+VGcQV+idbvCfFqIklDMBu3afYKRJ9BwGzoCovBPZ/0yucw9//E/IrGQxQ2Q4rYT9w8rAO0yl6i3cwsjhwBP7MRS9iwIZUyj9LsbBdZsfVSXBFOzKDqWtmMECPXs4RJUMwKa5G4FkG/rQcPkZ/ngGUu/NxTmcJrBbmwghNNJdv2hjs3fCsjL1dz4VASqOVX8qCaYhcPyXP9i5Ti84zdgDqTTJPVTG5c1GWpYs3w1lELJqfMutEzg1ZRFuwdH96ljgAfmMGlu/PL9y0pz3PADkX9SDdYeLP2uGRfaq8G7odbMuyGdB8rWQvuJnv3bGlZ0UEqHge+Iuyvcnsgr1ul6q8fM5PBZe+ze9WSh6RPhFgQh7WRV2Zvb0hvNHzch4D3tO7OiHyUQ32iTe+YCvp6gzcn5XKz+SB38+fvYW3paW+iTLP/YnTqHc9e6APcv8e/1Vusz+XdfIYFGXDrrmMAQy3Xfmr9FDwPOOhtN6LZRorMsiRmXnO/sJlOP0n86kN80JTi7/lVZu68C//OyslJSWlP12tj+7AR2rz6KiKUEMbpm8MT2uxT82j/d/Yqd+sTU3bQqamfU3fSGKpaWvv0nyr32Tqv8oQv3x5k04wBmiwf5i+0dC6sU/vxaCqCb2KwcbGm3SCM8jQ72GwqX1e4duNRu6t7dqw+0WA3eoPuwfs9+rgEFVrwz0545vNbnfH5AwOB/DP5mAbbfa7tW1ev9ZF1b2h+MQYtAYDnlJvD6rs5+GerPy1ijMwv+z1Weda0ObhDto8hO7QK61mbcCLDPp7rD/VQ9oJyuCQz+BW0o5bR9y6DujvDf57E37va40a+3AsRsW0wxisUef/on09YNc2TM5gyD4dbUoGYLib7LtfWYWtNVHF2zA41LS1I60BbX/WaNXQ4ap2Cn1vaTCifT6ytTVtDaB3tdau1kAbDbSv0c62tFqi2g3t5GD781Cj6ODLxwfNDY221Ifunvb7UOseR7A7rLFRbNHvdGnTEBr3+hucUkPb1Xa7Nfj0q5VmcEQZtL5q2vCgCVUM3oLBprZv0ibAxQfa8TG02dT2W8hc045hjoca/HN61KLlwAFqJxs0ilI7YBU0k/HEFH2iF/eEs3e1XVqOwQRyuxScxuJJM8lgjZemNTZEic+MWQYDKMY8YqgdrcLg11cQ2NJwl13YhsEOeEebdNzwgU5ZC1rc4u0NoBM1rU9/pfHghJY9Sa3cJ9raYcsUv9ZQq9WiTl+lw2WwtuhIdmQkbiQYsEaAzza7wUsc0zFmMNCgH1B5q/rKoC4YDNnSeIh2xVIMtQ60bc6Ad5eSMKHFHa1G1YU5rvEmKQNqAlX+hUjb1L53T/vMJHaZx+7SUTW1E9EsDHVPO+WldxIMRDeoJTU0EXS/0MuLDFqxyrNXlpcxkL4gPRqmfcCbkQy2BIMDzmCvX4XuIMmgBYFvuJDdtPqNE43aNTD4tcsFMFMMjkIG1eUMPucyEJX/WomBTHPWNsSFA2DQymIgLrdgJarthgxQYw2xEL0oGNuhiN9CCQY7kaVnMeC+wD8NQ1/Y1DS+dmncF1ZZEBYYHMjQ1cpjIII/LRGzAyjdXHDG/oEYyGfoPvfw6naaQUsESGCRz4CV2KZ+L3KkXW4bQ8bgWPvFrOLw9VZATStMdxta83B7n/pGDgNY2YZbW13eHfYVnidqC5sdMNjT5uBgjU50i2YDzf4+M+6+YFBlo4Yl46TfZOlDLgPtZK8J36Vf4wyatG66GtIeAUsIaP2GMI7XafMkWljp4r1GZ2v7hDH4wty1ekKnsXVKjW4HfPwrneImd5whG3xt0RebIgOnlW+KfKnRok38kgy2UJgj8cVA5EjxeLCh7e2zEjQngdIshh6zK90N5mPVr7yK/TfbeLeerSmrxNppRrmD4fGwKQpv146P+8whtna+iNs8vd3sw50W2qGfBjswl9Ud4eAHO5v00hbaHh53+TwdHvD4vd097h6i7QOeKw+6x8fN6j8Z5Ztrs9VML4wfoQ/9Px73NZ4u/ckyN//oIzAlJSUlJSUlJSUlJSUlJSUlJSUlJSUlJSUlJSUlJSUlJSUlJSUlJSUlJSUlJSUlJSUlJSUlJaUM/Q+irpAarCEvoQAAAABJRU5ErkJggg==;clipPath=inset(20.62% 5.6% 22.16% 5.21%);" vertex="1" parent="1">
          <mxGeometry x="710.41" y="250" width="160.41" height="77.08" as="geometry" />
        </mxCell>
        <mxCell id="xoEMEb9Q6lRqkHzQhWVF-38" value="" style="rounded=0;whiteSpace=wrap;html=1;fontSize=16;align=center;" vertex="1" parent="1">
          <mxGeometry x="520.83" y="280" width="120" height="80" as="geometry" />
        </mxCell>
        <mxCell id="xoEMEb9Q6lRqkHzQhWVF-39" value="&lt;font style=&quot;font-size: 16px;&quot;&gt;Email Server&lt;/font&gt;" style="text;html=1;strokeColor=none;fillColor=none;align=center;verticalAlign=middle;whiteSpace=wrap;rounded=0;fontSize=16;" vertex="1" parent="1">
          <mxGeometry x="519.6000000000001" y="280" width="120" height="40" as="geometry" />
        </mxCell>
        <mxCell id="xoEMEb9Q6lRqkHzQhWVF-40" value="" style="endArrow=block;html=1;rounded=0;entryX=1;entryY=1;entryDx=0;entryDy=0;edgeStyle=elbowEdgeStyle;exitX=1;exitY=0.5;exitDx=0;exitDy=0;startArrow=none;startFill=0;endFill=0;" edge="1" parent="1" source="uI3OphNUKf_lqw-jZ9q1-18" target="xoEMEb9Q6lRqkHzQhWVF-39">
          <mxGeometry width="50" height="50" relative="1" as="geometry">
            <mxPoint x="1130" y="411" as="sourcePoint" />
            <mxPoint x="860" y="601" as="targetPoint" />
            <Array as="points">
              <mxPoint x="680" y="571" />
            </Array>
          </mxGeometry>
        </mxCell>
        <mxCell id="xoEMEb9Q6lRqkHzQhWVF-41" value="" style="shape=image;verticalLabelPosition=bottom;labelBackgroundColor=default;verticalAlign=top;aspect=fixed;imageAspect=0;image=data:image/png,iVBORw0KGgoAAAANSUhEUgAAAdsAAABqCAMAAADDRQtiAAABAlBMVEX+/v4AAAD///8vsZf39/f6+voFBQXi4uLn7+zs7Oy0tLQcHByqqqpQUFCUlJQHHxR9fX0vLy87pI1paWkWFhZKSkoqKiqioqI7OzuwsLAQEBC/v7/y8vIvspPq6url5eXY2NjMzMxycnJbW1shISE+Pj7R0dGGhobDw8Obm5tXV1diYmI0NDQ8PDxubm6NjY0ADwkntZMxr5kKJhsMHhcULCQ+e2tVq5M4p4g+nok2qYRSmYE2W04lb1w7u5MYV0EWRjw4hG0NMyUAFA0lYVUHOjMyh3gGGR4bVkwnuYtIh3gmODQ9upwumYAAFhIAHRokfGk5TUkleVwaT0gADBEOSjqWfHoCAAARLUlEQVR4nO2diXbbNhaGSYikSm3RvtLaV0uxYqdp5cy4k6aJm5lJmkyX93+VwQVJiSABELQsyqfGf7xKBAniIy6AiwtI05SUlJSUlJSUlJSUlJSUlJSUlJSUlJSUlJILPb7OfUtKJ4DqkfV/KM5n0qnQhiif+zafo5BpE3336PJOi384hhbHlvVAKB0lXIZl/eTqZvmogCKgdLLLZa/QarUKhUJvOR8YfMh88xBzs8ykcWeVsEryaWOf8cdUKmzzYrbIGZVq7S6VZDqrlZZZk4kMacvWXvA4lLY5I54tPiJbWJGHhwj+Wg29VMjpwdlWq1Vr1ZJXwfDYZgt+buDUHfzVyeXwV663HM2Hw+HANsitmkewSijksbX0V69fv3hsff/9K3xmXa9nBWi1+XjjZgF/W3R9n5U72She5DQij8/aiWOL60yvHUlXQN6b44c9tu6zgVAh7sB8+3JRGEpYl0cTYUsK9M0PP+52u9tqdberVvGv4/V2949/vnLvi1lvTTBRZm8CR3hQabbkn3yt1w/hRVqRLjdIVoovNacIh2Lp5Iv81fHYmg29a3mXTCDvqUUoF8yMfxsWuV7g8O44ZyOmLTqB3Ho7gYrz+i5zfZ25IMocpRuszMX1T2//BWgndQ5buMflpUQBVsYjqqONzGL0oJkda5N7jHPv620jMVcCa+jZ5Fz8sa6a5WxKza7LduWs4bLvbjFd4HokXIL288XP73Fx5Vf2hs0W2tmFFbHDEZG3l7Fs9VWcTTZYz9Ge7Swdtvgi9a2ZSsV12ZaQVmjiC7/5tsNwL45nm7m+qN79gs/YmCO7yau3o5lrtuJKAz8hg2AnhM22YYgLDC1ZZ/fZmi9TYeva69koTbYIzaG8Xn3YXR9vlKHW3r6DWyn3kdavMNjCv72mZAFaejHeJut6T9SO4bcmrEQFbwjjtFOyyUTTTgqN7r7e4rvbwlU/3t9cXB/J9iJTvXuBz9XOQctiM9iSprYrW5oWefgCqRls8amKwq4ymjOt/1nY4iu10mNLMtjDNlL/9UP1GvepjtHn3ac/8ZnW7viAxRZfdz6VLEwgMoxniw/ridCatSfENhW4+3pL/u7X4Mqfvvz0b6i40CWSrqqg6wzpH1/857+Q/5bpnpXNFoaoVvBuLapsAxjwnzOTSs6xyXqN2/1EBuqx0XlsNeNlpPxDWWJ2DbrRMZA/9LG8k1iRkZCrUZps4b8OtIHvf38L3eVkbK+htgPa3d33+BwNP+scm7wKlyT8rE+bm8q03t0Xkfd7EUrNYWvxuyhIqzGT7Nk6efYp2akOYtZbZqrwi5t+ymzREEZDv3zafSZwk9Vboi+f4Dkt7zPOZjuP9KPai+V84GDZg+yysChOA+8tpdhaes3kVtxRl5XkwNbMRf2JrQZlxjetTlQO2yaXVi3wOvaWy2WvlyuNi/VobssnHuWG2WqaWYIrv7+/wVVXni3pXeNKe3P/GhfHJhdwwTNt8lYPlDVOMW05Iad6P1fu6q412wzk6q2uz3leAcRzKbpjIPYsAiQKsC2ypwTcgqPZWnb4ILu3DrPtjk7b5NJs3ZdG4K397a6apLMMbDO7z7sPv+G0V/NAnllswcNHaTYP3yb8P+gAw64+Dr/HZTtmTy3gnhun2vrjW1bRaIi244IBdIRt2IEO+eqF3SPllNnCQ2aT6YN39xl5ujBsurkhg9r6yqA6tSy2Q3r8k19G7tGtSebyCr/dCRcUr731m7/Iycwyr+VMiS0p12FwqgLnpymYHnsEMeot3FUPerpfv8nXW6i21W/voQRGXiyNfzIW2x5d1FtkhO/S9A3gfNwcyLK1IlXcu0f8LHHgpsYW7mgY6ERAY1NIny1MRxInzv+qGVIffXqsCuv6sW52meonSDI2Qk1elC2+5oLqpNTZtc0/2AnPefJtMpyKdRL+BF5abN2jSvQjdnnS3hSbLQwIV9Cze3+Pre3NzQV/dsjvHt/cf8THVzrEmFJnYrGlOyltR3SL0UZJwBYPlxgVN8trbdNm69BtUSV27uoYcdkiNHIdzFXilbjm+phdtLu7X/HRNVJrQgaexfaKusVGOE0kL6EXBGytaMUVhpakyxZt6aZhfg62mudgtvQ/7sG/7M798dBmbsEed0taFC27vR1TNnlmJrNNIrak8xl8kKDnxvZLpM4WxiD01UVe0qPFZ0u6VBUd5uxdTyKbLXijqvdv8HFtthONwRba2+DzuxHaZMYp+WwtcPfQbMnVngrbLO3D4F/9ESRgS0ZDMATR/7jlzw3hCl2FmQGrzGk7mDa5RTuTc8n6i0K2+gqFHiRcbfmuw5TZ2ptAXqzYeIKjJKy3UEgtcA5+vIdWl+GmAmP95R1G2+zw8DDZhqbJr7i+QvYpRe2tjodM1MVMUbVNm60zo/K6PRdb930yZ299uP18fZEJ9pZJ7M319dvfX+P3J/xRDLO9zYZawBaK9oYFmQ6xXdBerhXNdhAwg7iVr23OzDZYb/kF/wiKY4sPMLw5ezeWKtDw4qb28+7TK/BEmXw0bJ9jOAaiFBuCSiWn2fY61L/tAcV2GyxzvWnSUVMps+0H50jOaJP3hyzBkHy9c/0U1wG0u5/BEzVbiiodex5oRbW3+LtYkA8Qo9jCnLxBO/NaQbZ9esapgBqh/7lXOXlfis7po0uCLT7mO7dL9SUT6FJhtBck3K38nRAKm+2gQt0jqL3KulMm8QsEKLa6niPRqYfp3o1zeNhCneSGjeg6nyJbZEamAs82BgqqA57QNz/cHHrLFxdf/tKJJyrmCuy5+RJ9k+5wtzwiVBKx1YGtRk+gHeJVUJautp1w3HrKvgu6LeqeyXcROm4IufoTd6l8uDd3MKhdC1zBXko2Wzs0y+cFrMxKo4T1lrClwsotvbFvvUOOoKJxXrYj2p+cdGCfTJJssTkxV5Crjz+7HshM9cMr8ETFN5KceCk0r+uBeKTAYqCiu25L0IYz2OKKGzxXwZ8yt/MBW03CXM/FFhxkxoSOxxufEq10vSUPHZTKi7sdhru7h5naxlKi+8Nmi1/v1XkuhcpiyV7A5yeN2uSQM6/oDZix6Q9eo6adkS0so6APIo/a6STN1p+zt/S/bn+8/eErPHVS4xYuW9eORvC68YGTXF8wrIqy1dAV9ZLbSUEDajCbJ0Es52GLr2xQaPFtNpIM/JJLni3xzJKlAC/efcT2OJ+DQpa4AoctGII2KzDUCx2djrnhREy2c2pQdQkVl/g2AzZ5raXINqJlpIfROm0Uq7xN1kgsRNbvkF4OJRejcdlCtbrSRWu9LnMOEy+TLZlbOpwKzF1opJWH6b8U2EImsoZhOJ4Mxx4uW2FvjSWx8vA4JWILx2vuFM7WQJK+BgFbWADPXKSz16zFMltstsN6qI6GPCTutH069VbftGftvTbNus88qJMObrVkbMlB8zU0FAmyJWQLIQA1Tr11X262oiXKZhsY7kD9xf08m1oH4mYiDbasG4q+xooQeVQlaG9Jk1sAH8Y4iTERsXVzMCznvbunzLPfEk/cdjfoR2Swdd0U/np1fKKJFphJtMjiBKSlVW+ZdKklMvrlaTtSWrIxkIb60D7WO4miJOLYQhnahRmjMPxCyrdCvio2Wy0UOjNyKsHzVAYpso0RRlscnDY4WUvEVtN6MKIAT9RjsvXi7kewoQlvHc1WQ6K11T7bAbVVyXpLHeT5IZ8EW2yMBolmNR8kaZ+jiewSBPmWwjGqsSnj2Pp47Rz0q6xwJDEZEW1l2GrUkMdL7P/e4MI00+tLCQR5GjsSUyLHSo4tiQGHkt8k96TE2uTDRczRAmoea1BERd1w2fZ5df+wG8aZ2ZLcbTrJ4kweKFm2JpkIurKTGxJptuQJcgprJpzmUIYtf5enhv1k2NbLQ9eEnFpSbBHqQ2B+vmCIPPi8xInY4rselqL7YNDLL/lsTd5uM/tJ8HPb5GkJyJ7eIGsybMkYFHqclw9bmSTP1r+eZnZe6jq1aN0iy8z3fDhs8Ts5tof60kmTLc/TVm+Ulw+oHQ+VDNs+dKL01QPnGpOyJYMtp0BHrOHCWpsybBm7AYIOvpZ0fBdWZbapNJvT6TTfrGxmxUlt2+rNBzC7ZUgXxLGSiIUjK+k3y7htJrmO/eRsQQNqeZZFLb/ks9Vg95uoJube95EO2+7ANAzPpWwY5n5RItxCart1CtkSl0EOOlFlsROF9IJybG9VYrbeGc1twLjB75UUW42e63MVtOeptLf1gRtdEJB3yhQ32RXGnoONI50o8WQUuY3hhLN/w8PYQuxsJEhBhi1rP5p1sB+WDttses0qV0K2eFALzVcjJiYKnkqyv0109bt2BFs0pAkVTSm2UHFDeIPhIYqt+xaJOre2gsBy70iyL1W+xWxJHsgWckav5DwsVhWyJWvkKY01TbENvUNCG2fCXRLdM5DY9CInHpMTCyfR7oSmX6cybDWyyzXtd8zSbyu2SCNm9koQtuSdwNlCUS6c6J4V7gGcOMdTscVjXHqmsEa/q9i6nqhph0RJCXrt3lqwlznuegA2W/4m94GU9N5x074kW4Ma44YW0j93trgCkj2miqJOlNep70C4yNoWzPOw1mj222U7MDbgpKQ3DjoEasewJeVMIuqgnx0Kb3jubJFTgkItiTebBoc36UR1V6LGk8EW9rvVmytHxBZFtkaV6ieTlE6ASTNkIZ43W88TJV6dB8dpZq7t1e5kbJHbkrZbomklMqkTZFuWGd+6px+M3b5ytzvNhS7wbNmaMAfv7nJBNtvkZs+EXWttEtiwcGIsK2O/C8Nb4THdDrVg6oPzCL8Mq7SCfqmWJFvSTxvMR/MsFmSO6i6kx5ZfJCmJZrt35NZb4ghVMjkEQ6RKLm4wE2VrwkcY+CpuR+F9LRH0uN2Nun1BwzmXZevlj92cp8ZWXCppKMKWdKIuh+K6uJ+sX8dHdLFs8ihQHXFBXK16w6ztHJAY9nLcDc3xXR5KNp6tIDvPl20Jur3lGDML837EJV8yYg7U2Gz9PQwOH5NUb25mk3WtdjUe19brRlNnOA4PJ1BsZXRgC19ZaAc3MavzgOYSPmwgzs/sHc5gy9mDnK8u7e9XbGUUYIvzB9VlHN71NJrGJkOkrVwEOoOtw4tG5msqEy8llZ1nyXYASwinjCUa4RRDuOVmbCfKPz7Kdhj7KQARUdtXKbZS2rNFQ9KJEvfdwbFoktq9Hsh28hlsC4yVmRxZ7jf9YRSKrZR8tuYK1uRshZWWuIzJZL0V47KiUkXZwtqOuE/h28MlHjJ6RKbYSsljOwBPVLMXE6iFvAXCs1GCj+hlsM0uprqsYOv3gim1HkguO8+N7QRcQFd2OMQn6lMAT1SXBE/FHBkQy+fodBoeODFYOKBGVnGb6be3pD8fyGKCWLgn5JcCYiVHM8Syc7Bd3nRlG3YCOXP25/EtyzMfL8s+W16TXOxFQ/CRUfQ+Mcv91Kwki5RhBtAKJA5/zgWVySs9eJ0GP4r3MGR3s959Ov5kyE8TAmqFmpLI226zWe/WE2jK+NxqUu+d+WIWqJ8htuTHesRaXBGaoT2q3grZ0jZ5JslW158W29MqaqI8e20OO4vJhp2ouV5xZpiQOd7sNxyYtTfJ6u2kW8/7moqeC1w0leDOBmP+Ih5shqaVvZrNzZNga2oLf8W6/znsOv3rEV7Y8EZMhK8zGLXKl7NNPl/vYuWn01lx3JoLHJ+IaiucZHfs2M5BtrBTaNKNkmi2y3SoQxNl6VTCprE/yJ5WA2HQ1b7TBUUNDbRjcOZwGGlijotPG+dePcGhaUm+u3ukkmYixfj7v6sOgxnNi2bz/6J/RV5P9EIM3H0GJJ8FJSUlJSUlJSUlJSUlJSUlJSUlJSUlJSUlJaW/l/4PFluAn3BE8i4AAAAASUVORK5CYII=;clipPath=inset(3.73% 8% 5.22% 7.33%);" vertex="1" parent="1">
          <mxGeometry x="532.2700000000001" y="323.08" width="95.46" height="22.92" as="geometry" />
        </mxCell>
        <mxCell id="xoEMEb9Q6lRqkHzQhWVF-42" value="" style="endArrow=none;html=1;rounded=0;entryX=0;entryY=0.5;entryDx=0;entryDy=0;edgeStyle=elbowEdgeStyle;exitX=1;exitY=0.5;exitDx=0;exitDy=0;startArrow=block;startFill=0;" edge="1" parent="1" source="xoEMEb9Q6lRqkHzQhWVF-17" target="xoEMEb9Q6lRqkHzQhWVF-38">
          <mxGeometry width="50" height="50" relative="1" as="geometry">
            <mxPoint x="610" y="670" as="sourcePoint" />
            <mxPoint x="610" y="291" as="targetPoint" />
            <Array as="points">
              <mxPoint x="440" y="390" />
            </Array>
          </mxGeometry>
        </mxCell>
        <mxCell id="xoEMEb9Q6lRqkHzQhWVF-43" value="" style="shape=image;verticalLabelPosition=bottom;labelBackgroundColor=default;verticalAlign=top;aspect=fixed;imageAspect=0;image=data:image/png,iVBORw0KGgoAAAANSUhEUgAAARMAAAC3CAMAAAAGjUrGAAAA3lBMVEX////zgCBAQEH6rkA7OzzydABKSks3Nzj6pyQmJig0NDXydwAoKCkrKywwMDE6OjtqamvW1tby8vKVlZXk5ORTU1SoqKjFxcXzewq0tLTr6+vd3d3U1NTzfBD6qjJzc3P+7tz+8uvzhjD3rH36zrX96t/4u5b728n1nmT+8+ZcXF2JiYm/v8BVVVX84dP+9/P0ijr5x6r1llX7umT93Lf6tlj8zJH3tYyurq4dHR+cnJx+fn5iYmP0kEj4vpz2pXH8yo37wnn6zLH96ND7vGv81qr82bD5ow4AAAQXFxl2ZYWBAAAHqElEQVR4nO2ZCVfaTBSGQ8hCQhIWUZFVFNxAXD6r4tpqF/v//9A3a2ZCAoJJO0Xuc05POeMw3PtytwmaBgAAAAAAAAAAAAAAAAAAAAAAAAAAAAAAAAAAAAAAAAAAAAAAAAAAAAAAAADAv0lvMB4Peqqt+Gc46+/vmUWCeb7fP1Ntj3oOL81iOxfSLppHh6ptUks/JwvCZdnrq7ZLHYPz4rQglOLjupaWJzNZERwr5oVq65RwNCNIWKg8q7ZPAY/1eZLkcvVL1Rb+dc5jtXXtRbl8J0qIKOuVPgdza0lYU9ap0A5md5wI5hq15L3FJMm1H1Vb+te4WChzSPaszZz/bssR7Km29U8yvnksmu3LJ1Qh+guHyacOlPE5veu16+az9ri4JLn2kWrT/xQ3Up9p15dIHdR6PunzlP0lkmWa4ud8bnCx4DSSSHtftfl/grM0kuTqN+iEs8+WQPtL1Y9p0Ch7/atQKHz5eqXakQxJUUzoJJsndDqFb7uqfcmIw1SaoBLbK+QZncJ/x6rdyYTFB/lETTTtqpMXFK5V+5MFBws8KZkJ7jrf8jKdL6odyoBUmpgDTSvko6LkV78JvaTQBE/2u1OaIFS7lJLe+CmFJkUUEq+daUlWOn3G+22zmEISc6wlxklnZQvt4Xn8d8/lJKHPCeKa5Au7al37KEepRno01OcG9KDrWPLk8yuZPb1cqhhp182b8Kzv8UgpvCr07YP0ZlWROqNYL87CRDw+yQ336gu68HQIXJT/lLn2YWZ9/+cHBwdPiIuLl5eXfr9/SBkjBpgeIvEW3Dvefb26+vHjOw+UlfuV42hG4hTHaU8+ZpHS+ZmFnX+Rw5nlde8I8fz8vI+4QdCwuUDgqGFxM44pd7b7+nr188f1VzHnf1PhWArO5xRPmbqoLtHyYh5JqXF2nWfFRKon+Y469z7CONVNmEpnDvhp14WEXowKymrdetI9WOPQs47ziYogTVbrSUoWirAfuxIGe547u4q9XIp0z6Q59Sd01PFMSVZMkwzKCdbkQONPYj9B7qR7ABtqcpF801nNGpuNJsX4E7Zo7qh2cykyyh1N+zknTPLfVbu5FGdmFqBrMb75zeLXZ/oFDAAAAADWmmqtttjGRnPBjStOY6Pk+L6zuSWWXMvS72IbK/e+hzfeiqUd3bJKTfLyFr9kit2h15jycCQf0LUE+lCsnSSZFTiIyIrN3/uw0RJGGdKhzJTUbExsHWO4/jZfc3Td3ZjeeO+U6MbADk3aCXTdp4ZsubruMU02XLrTsANP0rZMDyDY9+GasZlg1jY6WQ8ikjrsrehY76TKFiu+OFP3stGkHIgjJzwC0Kfb05pYrrSRq7fjRjTxuSa22BsIj8uGWC7dh2uJmjzgvUYkgjzJe9tiixFN/Ew0GWJJbJQRAbZhwgIgQZMydtP20EYiCnN+nia+7wc4MOzQMayJ4VMm3XAtSZOaE//iPWKB5/n49IClOtGE5BniLQtNmhNs/LCBzt4kgU2X45qM8Ed7dyhit3VDfIFzNPFrtdp2mVi8o0n+VxuUqrQWN4xFGs8wAtLEHlar1RpOTeOBLmJNglb8gI9zj4RwWcZv2qWSQ5MirskpEsJnvklf4BxNaH28DYTSxP/TKQtmaIJjYhP9c6qRNWYVtsami9lr4kkWN8vdbplGZEyTqiMl9wj56dKN72pC8oWX3sU1wec6DT/8HG4ss4okIV3Emthb24RRYznvE6n5CcVUS9CkhWW4lf7MSuT7muAdASvJtMYamBLXIVkTy9BLXRLFhlgMNWkhs0usHpF6YgeEySh20PI0p74JTkwT3BlFYxQmva8JeWdEE9pP52qCnfZb5L8gHBBIUFsPDw8WqW1sXe47QRaaKImTBTTpogDBzdYStVRjiY5ijHRdXnyJJi6Nk99ZaELHIPa6sTMajSp8OapJQ64n26KejITHd0gHjyX0VD1xGuI1TZ35uYM/TT8ZDocnuMqGtwmqCZ1uwuDGmri3lRYhi3pCJsuw7/hu8HtW37Fw3xmJ18xSHD82ndItPdRB0mQHmWzw+WrRGntHGrFt0/+GfJnkzqmFi0w33Jt932l5ZD5BDa95YgvriSZVRuibTub0CjaqxCMaf6M++tKq97YU52Q+aaL5pIvfxrWco4n8Ueiqo8t4kiZYIHksYJpUstRE69LxFF12yBxbEZ7iiRExKdOlEzzSuZ4RkI08GzQsBVp2vZLsfHSOLcv+J2iiG/SjvDe6hHu9XiIpRk7ndYxpQjLLidx3wjl2W8uCTfkaI913OLznVXXpDhPed8jgwhFDfOS+I+4sszSZiohNtOSyP/tSwWOaaFuBVNwi950gG020Lrvu6tF78bQmyHqP34sN6VrRDJiohi86xAZfswNfavX4DhzTRLor0xJU8USN04Y4C5ldXBOSPZH7TtaaaJWug8LckR+YTIwQV5SzFt14uhN9/51Flh+kRrjhkvei3hHpjmXbsKfrKVoLoZrcozeHuVlzkAks+d6CwCEtuDFBjfeNVvmKJ95v+Flpgj+50qy+vwtvTHzOVq01M+mCAAAAAAAAAAAAAAAAAAAAAAAAAAAAAAAAAAAAAAAAAAAAAAAAAAAAAAAAAACk4H9iOqci0Mg3NAAAAABJRU5ErkJggg==;clipPath=inset(28.14% 10.36% 27.05% 10%);" vertex="1" parent="1">
          <mxGeometry x="508.1" y="131.76999999999998" width="145.45" height="54.46" as="geometry" />
        </mxCell>
        <mxCell id="xoEMEb9Q6lRqkHzQhWVF-45" value="&lt;font style=&quot;font-size: 10px;&quot;&gt;Feedback,&lt;br&gt;Metadata&lt;/font&gt;" style="text;html=1;strokeColor=none;fillColor=none;align=center;verticalAlign=middle;whiteSpace=wrap;rounded=0;fontColor=#CC0000;" vertex="1" parent="1">
          <mxGeometry x="400" y="840" width="80" height="40" as="geometry" />
        </mxCell>
      </root>
    </mxGraphModel>
  </diagram>
</mxfile>
